<?xml version="1.0" standalone="no"?>
<!DOCTYPE svg PUBLIC "-//W3C//DTD SVG 1.1//EN" "http://www.w3.org/Graphics/SVG/1.1/DTD/svg11.dtd" >
<svg xmlns="http://www.w3.org/2000/svg">
<metadata></metadata>
<defs>
<font id="publica_sanslight" horiz-adv-x="1263" >
<font-face units-per-em="2048" ascent="1638" descent="-410" />
<missing-glyph horiz-adv-x="540" />
<glyph unicode="&#xfb01;" horiz-adv-x="958" d="M827 1004v-1004h-157v870h-320v-870h-157v870h-148v134h148v165q0 115 78.5 188t203.5 73q30 0 74 -7v-141q-35 14 -72 14q-57 0 -92 -35t-35 -92v-165h477zM748 1169q-46 0 -76.5 28.5t-30.5 72.5q0 43 30.5 70.5t76.5 27.5t76 -27.5t30 -70.5q0 -44 -30 -72.5 t-76 -28.5z" />
<glyph unicode="&#xfb02;" horiz-adv-x="966" d="M674 1413h155v-1413h-155v870h-324v-870h-157v870h-148v134h148v165q0 115 78.5 188t203.5 73q30 0 74 -7v-141q-35 14 -72 14q-57 0 -92 -35t-35 -92v-165h324v409z" />
<glyph horiz-adv-x="0" />
<glyph horiz-adv-x="682" />
<glyph unicode=" "  horiz-adv-x="540" />
<glyph unicode="&#x09;" horiz-adv-x="540" />
<glyph unicode="&#xa0;" horiz-adv-x="540" />
<glyph unicode="!" horiz-adv-x="546" d="M176 1413h197l-27 -1094h-143zM274 211q51 0 84 -31t33 -82q0 -49 -33 -80.5t-84 -31.5q-52 0 -84 31t-32 81q0 51 32 82t84 31z" />
<glyph unicode="&#x22;" horiz-adv-x="700" d="M414 1413h155l-20 -465h-115zM129 1413h158l-21 -465h-114z" />
<glyph unicode="#" horiz-adv-x="1392" d="M1307 930h-238l-108 -449h346v-86h-367l-96 -395h-99l95 395h-439l-94 -395h-100l96 395h-217v86h238l108 449h-346v86h367l94 397h100l-96 -397h438l96 397h99l-94 -397h217v-86zM860 481l109 449h-439l-108 -449h438z" />
<glyph unicode="$" horiz-adv-x="1212" d="M1135 395q0 -178 -131 -288.5t-347 -122.5v-142h-112v142q-217 15 -344 137t-133 313h168q3 -139 101.5 -227t272.5 -88q158 0 256.5 74t98.5 196q0 57 -24 99.5t-65 68t-95.5 45.5t-115.5 31.5t-126 27t-126 30.5t-115.5 43.5t-95.5 65t-65 95.5t-24 135q0 170 118 276 t314 121v144h112v-144q197 -12 318 -125.5t125 -297.5h-162q-6 137 -95 212.5t-239 75.5q-146 0 -233.5 -68t-87.5 -186q0 -62 29 -106.5t78.5 -70t113.5 -43.5t134.5 -32t141 -29.5t134.5 -42.5t113.5 -65.5t78.5 -103t29 -150.5z" />
<glyph unicode="%" horiz-adv-x="1656" d="M430 1427q145 0 238.5 -93t93.5 -238q0 -143 -94 -237.5t-238 -94.5q-142 0 -237 95t-95 237q0 144 94.5 237.5t237.5 93.5zM1198 1413h100l-839 -1413h-99zM430 1331q-100 0 -164.5 -66t-66.5 -169q2 -103 66.5 -169.5t164.5 -66.5q101 0 166.5 66.5t65.5 169.5 t-65.5 169t-166.5 66zM1227 645q145 0 238.5 -93.5t93.5 -238.5q0 -143 -94 -237t-238 -94q-143 0 -237.5 94.5t-94.5 236.5q0 144 94.5 238t237.5 94zM1227 549q-100 0 -165 -66.5t-67 -169.5q1 -103 66.5 -169t165.5 -66q101 0 166 66t65 169t-65 169.5t-166 66.5z" />
<glyph unicode="&#x26;" horiz-adv-x="1357" d="M1286 0h-176l-141 160q-193 -178 -437 -178q-201 0 -323.5 111t-122.5 282q0 81 23.5 150t68.5 123.5t92 94t113 82.5q-141 184 -141 326q0 124 83.5 201.5t223.5 77.5q143 0 227 -77.5t84 -189.5q0 -47 -18 -91t-43.5 -77.5t-69 -70.5t-78.5 -60.5t-88 -56.5l6 -6 l418 -467q82 102 141 244h156q-105 -209 -215 -336zM547 1315q-71 0 -115.5 -46.5t-44.5 -119.5q0 -109 107 -256q69 45 112.5 80.5t75 84.5t31.5 101q0 67 -47.5 111.5t-118.5 44.5zM557 111q178 0 332 137l-432 487q-1 0 -2 1t-2 1q-215 -153 -215 -350q0 -120 88 -198 t231 -78z" />
<glyph unicode="'" horiz-adv-x="415" d="M129 1413h158l-21 -465h-114z" />
<glyph unicode="(" horiz-adv-x="550" d="M496 1563q-115 -203 -172.5 -456t-57.5 -529q0 -581 230 -988h-97q-136 186 -209 441t-73 547q0 290 73 544.5t209 440.5h97z" />
<glyph unicode=")" horiz-adv-x="544" d="M47 1563h98q137 -186 210 -440.5t73 -544.5q0 -291 -73 -546.5t-210 -441.5h-98q115 204 173.5 457t58.5 531q0 275 -58.5 528t-173.5 457z" />
<glyph unicode="*" horiz-adv-x="952" d="M836 1169l-293 -71l194 -230l-102 -75l-160 256l-158 -256l-104 75l197 230l-293 71l39 121l280 -114l-24 301h129l-25 -301l281 114z" />
<glyph unicode="+" horiz-adv-x="974" d="M877 678v-98h-336v-322h-105v322h-338v98h338v321h105v-321h336z" />
<glyph unicode="," horiz-adv-x="501" d="M172 166h168l-156 -459h-123z" />
<glyph unicode="-" horiz-adv-x="921" d="M98 649h725v-119h-725v119z" />
<glyph unicode="." horiz-adv-x="538" d="M270 211q51 0 84 -31t33 -82q0 -49 -33 -80.5t-84 -31.5q-52 0 -85 31t-33 81q0 51 32.5 82t85.5 31z" />
<glyph unicode="/" horiz-adv-x="694" d="M555 1413h119l-537 -1413h-117z" />
<glyph unicode="0" horiz-adv-x="1339" d="M670 1430q267 0 424 -195.5t157 -527.5t-157 -528.5t-424 -196.5q-266 0 -424 197t-158 528t158 527t424 196zM670 1294q-194 0 -307 -157t-113 -430t113 -431.5t307 -158.5q195 0 308.5 158.5t113.5 431.5t-113.5 430t-308.5 157z" />
<glyph unicode="1" horiz-adv-x="761" d="M438 1413h129v-1413h-155v1051h-318v104q149 0 246.5 73t97.5 185z" />
<glyph unicode="2" horiz-adv-x="1150" d="M264 131h809v-131h-985v18q0 48 6.5 92t21 83t29.5 72t41.5 65.5t46.5 56.5t55.5 52.5t57 45t63 42.5t61 38t62.5 37q85 50 141 89t111.5 91.5t83 111.5t27.5 126q0 123 -86.5 200.5t-220.5 77.5q-132 0 -221 -78t-99 -216h-153q12 197 143 311.5t332 114.5 q202 0 331.5 -112.5t129.5 -291.5q0 -60 -15 -114t-47 -100.5t-65 -83t-86 -76t-91.5 -64.5t-99.5 -62q-8 -5 -24 -14q-52 -30 -78 -46t-71 -45t-68.5 -49t-54.5 -50.5t-47 -58t-27.5 -62t-12.5 -70.5z" />
<glyph unicode="3" horiz-adv-x="1181" d="M756 739q157 -32 250.5 -130.5t93.5 -231.5q0 -170 -144 -282.5t-366 -112.5q-229 0 -376 123t-151 329h158q4 -149 105 -234t260 -85q154 0 254 79t100 199q0 125 -107.5 205t-281.5 80h-70v110h68q157 0 252.5 74t95.5 189q0 110 -87 181t-222 71q-141 0 -232.5 -80 t-95.5 -219h-145q6 196 137 311t338 115q198 0 328.5 -102t130.5 -257q0 -118 -79.5 -208t-213.5 -124z" />
<glyph unicode="4" horiz-adv-x="1265" d="M1221 467v-133h-260v-334h-156v334h-735v119l702 960h189v-946h260zM805 1237l-576 -770h576v770z" />
<glyph unicode="5" horiz-adv-x="1226" d="M637 956q220 0 355.5 -135.5t135.5 -347.5q0 -214 -148.5 -352.5t-377.5 -138.5q-207 0 -354 121t-162 319h158q15 -139 117 -221t241 -82q158 0 261.5 102.5t103.5 261.5q0 158 -102.5 259.5t-262.5 101.5q-96 0 -183.5 -50.5t-131.5 -131.5h-150l109 751h127h682v-133 h-699l-61 -461q59 62 150.5 99.5t191.5 37.5z" />
<glyph unicode="6" horiz-adv-x="1226" d="M659 958q202 0 342 -135.5t140 -343.5q0 -217 -149 -357t-378 -140q-230 0 -379 140t-149 357q0 157 92 293l443 641h184l-361 -502q96 47 215 47zM614 117q158 0 262.5 102.5t104.5 259.5q0 156 -104 258.5t-263 102.5q-160 0 -264 -102t-104 -259t104 -259.5 t264 -102.5z" />
<glyph unicode="7" horiz-adv-x="1157" d="M88 1413h989v-121l-635 -1292h-161l632 1280h-825v133z" />
<glyph unicode="8" horiz-adv-x="1265" d="M858 745q153 -42 240.5 -137t87.5 -225q0 -175 -154.5 -288t-398.5 -113t-398.5 113t-154.5 288q0 130 87.5 225t238.5 137q-125 40 -196 125t-71 199q0 159 138 260t356 101t355.5 -101t137.5 -260q0 -114 -71 -199t-197 -125zM285 1053q0 -115 97.5 -188.5t250.5 -73.5 t250.5 73.5t97.5 188.5t-97.5 187.5t-250.5 72.5t-250.5 -72.5t-97.5 -187.5zM633 104q172 0 281.5 81.5t109.5 209.5t-110 210.5t-281 82.5t-281 -82.5t-110 -210.5t109.5 -209.5t281.5 -81.5z" />
<glyph unicode="9" horiz-adv-x="1226" d="M612 1432q230 0 379.5 -140.5t149.5 -357.5q0 -157 -92 -293l-443 -641h-184l362 504q-93 -49 -217 -49q-202 0 -341.5 135.5t-139.5 343.5q0 217 148.5 357.5t377.5 140.5zM612 573q160 0 264.5 102t104.5 259t-104.5 259.5t-264.5 102.5q-158 0 -262 -102.5 t-104 -259.5t104 -259t262 -102z" />
<glyph unicode=":" horiz-adv-x="581" d="M291 827q52 0 84.5 -31t32.5 -81q0 -49 -33 -81t-84 -32q-52 0 -84.5 31.5t-32.5 81.5q0 51 32 81.5t85 30.5zM291 211q51 0 84 -31t33 -82q0 -49 -33 -80.5t-84 -31.5q-52 0 -84.5 31t-32.5 81q0 51 32 82t85 31z" />
<glyph unicode=";" horiz-adv-x="557" d="M266 827q53 0 85 -30.5t32 -81.5q0 -50 -32.5 -81.5t-84.5 -31.5q-51 0 -83.5 31.5t-32.5 81.5q0 51 32.5 81.5t83.5 30.5zM170 166h168l-156 -459h-123z" />
<glyph unicode="&#x3c;" horiz-adv-x="944" d="M844 1028v-115l-621 -284l621 -287v-113l-746 351v98z" />
<glyph unicode="=" horiz-adv-x="913" d="M98 813h715v-96h-715v96zM98 543h715v-97h-715v97z" />
<glyph unicode="&#x3e;" horiz-adv-x="944" d="M98 1028l746 -350v-98l-746 -351v113l623 287l-623 284v115z" />
<glyph unicode="?" horiz-adv-x="1122" d="M565 1430q207 0 341 -122.5t134 -308.5q0 -171 -113.5 -287.5t-293.5 -131.5l-2 -261h-144l-6 365h27q169 0 271 86.5t102 222.5q0 131 -90.5 217t-229.5 86q-138 0 -228.5 -85t-92.5 -216h-158q0 189 136 312t347 123zM563 211q51 0 84 -31t33 -82q0 -49 -33 -80.5 t-84 -31.5q-53 0 -86 31.5t-33 80.5q0 51 33 82t86 31z" />
<glyph unicode="@" horiz-adv-x="2152" d="M1067 1452q169 0 321 -45.5t272.5 -130t209.5 -200t136.5 -262.5t47.5 -310q0 -233 -89.5 -377.5t-240.5 -144.5q-95 0 -156.5 56.5t-76.5 162.5v26q-62 -115 -176 -180t-256 -65q-218 0 -365 147t-147 371q0 226 149 373t379 147t378.5 -147t148.5 -373v-224 q0 -82 30.5 -124.5t85.5 -42.5q88 0 139.5 109t51.5 286q0 175 -64 326.5t-175.5 258.5t-267.5 168.5t-335 61.5q-235 0 -423.5 -104.5t-295 -291t-106.5 -419.5q0 -232 107 -418t296 -290.5t424 -104.5q237 0 424 96v-147q-201 -82 -426 -82q-206 0 -386 71t-308.5 195.5 t-202.5 301.5t-74 380t73.5 379t202 300.5t308.5 195.5t387 71zM1077 119q161 0 266 108t105 275q0 166 -105 273.5t-266 107.5t-264.5 -107.5t-103.5 -273.5q0 -167 103.5 -275t264.5 -108z" />
<glyph unicode="A" horiz-adv-x="1361" d="M1165 0l-133 342h-704l-131 -342h-181l564 1413h200l563 -1413h-178zM383 479h596l-299 770z" />
<glyph unicode="B" horiz-adv-x="1286" d="M922 727q132 -26 211 -123t79 -235q0 -162 -106.5 -265.5t-271.5 -103.5h-674v1413h612q167 0 274 -99.5t107 -256.5q0 -117 -62.5 -205t-168.5 -125zM987 1026q0 104 -69 173t-173 69h-419v-488h419q105 0 173.5 69.5t68.5 176.5zM799 145q105 0 174 71t69 181 q0 107 -69.5 177.5t-173.5 70.5h-473v-500h473z" />
<glyph unicode="C" horiz-adv-x="1607" d="M1528 565q-43 -260 -239.5 -421.5t-475.5 -161.5q-157 0 -293 54.5t-232 150.5t-151 231t-55 291q0 207 94 372t261 257t376 92q279 0 475.5 -160t239.5 -418h-170q-42 191 -190 308.5t-355 117.5q-244 0 -402.5 -160.5t-158.5 -408.5q0 -249 158.5 -411.5t402.5 -162.5 q207 0 355 118.5t190 311.5h170z" />
<glyph unicode="D" horiz-adv-x="1398" d="M592 1413q214 0 379 -88.5t255.5 -248.5t90.5 -367q0 -156 -53 -288t-147.5 -224.5t-229.5 -144.5t-295 -52h-432v1413h432zM592 147q248 0 401.5 156t153.5 408q0 247 -153.5 400t-401.5 153h-266v-1117h266z" />
<glyph unicode="E" horiz-adv-x="1208" d="M1114 1264h-788v-478h721v-141h-721v-498h788v-147h-954v1413h954v-149z" />
<glyph unicode="F" horiz-adv-x="1148" d="M1081 1264h-755v-490h688v-143h-688v-631h-166v1413h921v-149z" />
<glyph unicode="G" horiz-adv-x="1619" d="M1538 754q2 -10 2 -45q0 -209 -91.5 -374.5t-257.5 -259t-378 -93.5q-157 0 -293 54.5t-232 150.5t-151 231t-55 291q0 207 94 372t261 257t376 92q267 0 462 -152t245 -395h-174q-46 182 -190 291.5t-343 109.5q-244 0 -402.5 -162t-158.5 -413q0 -252 158.5 -416 t402.5 -164q221 0 374.5 136.5t172.5 348.5h-547v140h725z" />
<glyph unicode="H" horiz-adv-x="1372" d="M1044 1413h168v-1413h-168v625h-718v-625h-166v1413h166v-639h718v639z" />
<glyph unicode="I" horiz-adv-x="487" d="M326 1413v-1413h-166v1413h166z" />
<glyph unicode="J" horiz-adv-x="1216" d="M375 1413h715v-919q0 -227 -140 -369.5t-364 -142.5t-364 142.5t-140 369.5v36h166v-43q0 -160 93 -258t245 -98t244 98t92 258v777h-547v149z" />
<glyph unicode="K" horiz-adv-x="1210" d="M1153 0h-199l-628 700v-700h-166v1413h166v-676l628 676h193l-645 -692z" />
<glyph unicode="L" horiz-adv-x="1091" d="M326 147h741v-147h-907v1413h166v-1266z" />
<glyph unicode="M" horiz-adv-x="1798" d="M1393 1413h245v-1413h-165v1210l-496 -1210h-156l-495 1210v-1210h-166v1413h246l493 -1202z" />
<glyph unicode="N" horiz-adv-x="1429" d="M1104 1413h166v-1413h-215l-729 1198v-1198h-166v1413h215l729 -1198v1198z" />
<glyph unicode="O" horiz-adv-x="1624" d="M813 1430q209 0 376 -92t261 -257t94 -372q0 -156 -55 -291t-151 -231t-232 -150.5t-293 -54.5t-293 54.5t-232 150.5t-151 231t-55 291q0 207 94 372t261 257t376 92zM813 1278q-244 0 -402.5 -160.5t-158.5 -408.5q0 -249 158.5 -411.5t402.5 -162.5q243 0 401 162.5 t158 411.5q0 247 -158 408t-401 161z" />
<glyph unicode="P" horiz-adv-x="1220" d="M715 1413q204 0 329 -122t125 -320q0 -201 -125 -324t-329 -123h-389v-524h-166v1413h555zM698 666q136 0 218.5 83.5t82.5 219.5q0 135 -82 215t-219 80h-372v-598h372z" />
<glyph unicode="Q" horiz-adv-x="1628" d="M1133 125l421 31v-156h-741q-157 0 -293 54t-232 148t-151 227.5t-55 287.5q0 205 94 368t260.5 254t376.5 91q155 0 290 -52.5t231 -143.5t151 -220.5t55 -278.5q0 -215 -110.5 -377.5t-296.5 -232.5zM252 715q0 -246 158.5 -405.5t402.5 -159.5q243 0 401 159.5 t158 405.5q0 161 -71.5 289.5t-199.5 201t-288 72.5q-244 0 -402.5 -159t-158.5 -404z" />
<glyph unicode="R" horiz-adv-x="1312" d="M1188 322q4 -244 29 -322h-175q-16 67 -20 305q-1 126 -67.5 200.5t-176.5 74.5h-452v-580h-166v1413h612q198 0 315 -106.5t117 -286.5q0 -133 -67.5 -229t-186.5 -136q110 -30 172.5 -115.5t65.5 -217.5zM756 717q128 0 202 74.5t74 201.5q0 125 -74.5 198t-201.5 73 h-430v-547h430z" />
<glyph unicode="S" horiz-adv-x="1212" d="M606 1430q218 0 353 -114.5t141 -311.5h-162q-6 137 -95 212.5t-239 75.5q-146 0 -233.5 -68t-87.5 -186q0 -62 29 -106.5t78.5 -70t113.5 -43.5t134.5 -32t141 -29.5t134.5 -42.5t113.5 -65.5t78.5 -103t29 -150.5q0 -190 -146.5 -301.5t-384.5 -111.5 q-244 0 -386 123.5t-150 328.5h168q3 -139 101.5 -227t272.5 -88q158 0 256.5 74t98.5 196q0 57 -24 99.5t-65 68t-95.5 45.5t-115.5 31.5t-126 27t-126 30.5t-115.5 43.5t-95.5 65t-65 95.5t-24 135q0 184 135.5 292t357.5 108z" />
<glyph unicode="T" horiz-adv-x="1136" d="M1102 1413v-149h-451v-1264h-166v1264h-450v149h1067z" />
<glyph unicode="U" horiz-adv-x="1339" d="M1212 1413v-891q0 -244 -148.5 -392t-391.5 -148q-245 0 -395 148t-150 392v891h168v-883q0 -180 102.5 -287.5t272.5 -107.5q172 0 274.5 107.5t102.5 287.5v883h165z" />
<glyph unicode="V" horiz-adv-x="1323" d="M1128 1413h175l-545 -1413h-193l-542 1413h174l465 -1243z" />
<glyph unicode="W" horiz-adv-x="1918" d="M1716 1413h172l-415 -1413h-173l-342 1178l-344 -1178h-168l-415 1413h172l340 -1186l340 1186h151l340 -1186z" />
<glyph unicode="X" horiz-adv-x="1370" d="M1319 0h-197l-436 608l-436 -608h-199l522 717l-505 696h198l420 -590l420 590h197l-506 -696z" />
<glyph unicode="Y" horiz-adv-x="1298" d="M1280 1413l-547 -805v-608h-166v604l-549 809h189l442 -665l445 665h186z" />
<glyph unicode="Z" horiz-adv-x="1269" d="M285 147h895v-147h-1094v139l891 1125h-879v149h1078v-139z" />
<glyph unicode="[" horiz-adv-x="579" d="M545 1446h-254v-1739h254v-117h-395v1973h395v-117z" />
<glyph unicode="\" horiz-adv-x="694" d="M139 1413l535 -1413h-117l-537 1413h119z" />
<glyph unicode="]" horiz-adv-x="579" d="M35 1563h395v-1973h-395v117h254v1739h-254v117z" />
<glyph unicode="^" horiz-adv-x="620" d="M530 1053h-90l-131 278l-129 -278h-92l180 360h82z" />
<glyph unicode="_" horiz-adv-x="1142" d="M96 -154h951v-96h-951v96z" />
<glyph unicode="`" horiz-adv-x="436" d="M178 1413l258 -311h-123l-293 311h158z" />
<glyph unicode="a" d="M973 1004h155v-1004h-155v182q-67 -95 -171.5 -147.5t-230.5 -52.5q-217 0 -357 147t-140 373t140 372t357 146q126 0 230.5 -53t171.5 -148v185zM604 119q160 0 264.5 108t104.5 275q0 166 -104.5 273.5t-264.5 107.5q-161 0 -266 -107.5t-105 -273.5q0 -167 105 -275 t266 -108z" />
<glyph unicode="b" d="M694 1020q216 0 357 -146.5t141 -371.5q0 -226 -141.5 -373t-356.5 -147q-127 0 -230.5 53t-170.5 147v-182h-158v1413h158v-594q67 95 170.5 148t230.5 53zM662 119q161 0 264.5 108t103.5 275q0 166 -103.5 273.5t-264.5 107.5t-265 -107.5t-104 -273.5 q0 -167 104 -275t265 -108z" />
<glyph unicode="c" horiz-adv-x="1191" d="M1120 412q-25 -187 -170.5 -308.5t-345.5 -121.5q-230 0 -380 147t-150 373t150 372t380 146q199 0 345 -121t171 -307h-157q-25 128 -125.5 209.5t-233.5 81.5q-161 0 -266 -107.5t-105 -273.5q0 -167 105 -275t266 -108q134 0 234 82.5t125 210.5h157z" />
<glyph unicode="d" d="M973 1413h155v-1413h-155v182q-67 -95 -171.5 -147.5t-230.5 -52.5q-217 0 -357 147t-140 373t140 372t357 146q126 0 230.5 -53t171.5 -148v594zM604 119q160 0 264.5 108t104.5 275q0 166 -104.5 273.5t-264.5 107.5q-161 0 -266 -107.5t-105 -273.5q0 -167 105 -275 t266 -108z" />
<glyph unicode="e" horiz-adv-x="1204" d="M1133 502q0 -9 -5 -49h-901q15 -150 120.5 -246t258.5 -96q124 0 221.5 72t130.5 184h160q-41 -168 -185 -276.5t-329 -108.5q-230 0 -380 147t-150 373t150 372t380 146t379.5 -146t149.5 -372zM606 891q-147 0 -249.5 -88t-125.5 -230h752q-20 140 -125 229t-252 89z " />
<glyph unicode="f" horiz-adv-x="583" d="M477 1296q-57 0 -92 -35t-35 -92v-165h199v-134h-199v-870h-157v870h-148v134h148v165q0 115 78.5 188t203.5 73q30 0 74 -7v-141q-35 14 -72 14z" />
<glyph unicode="g" d="M973 1004h155v-941q0 -214 -145.5 -352.5t-370.5 -138.5q-178 0 -317 96t-176 244l149 -2q32 -91 128 -151t210 -60q160 0 263.5 100.5t103.5 255.5v158q-67 -95 -172 -148t-232 -53q-215 0 -355 142t-140 362t140 362t355 142q127 0 232 -52.5t172 -146.5v183zM604 135 q160 0 264.5 107.5t104.5 273.5q0 167 -104.5 275t-264.5 108q-161 0 -266 -108t-105 -275q0 -166 105 -273.5t266 -107.5z" />
<glyph unicode="h" horiz-adv-x="1155" d="M631 1020q179 0 289 -114t110 -302v-604h-156v586q0 141 -78 225t-210 84q-134 0 -213.5 -84t-79.5 -225v-586h-158v1413h158v-588q48 93 135.5 144t202.5 51z" />
<glyph unicode="i" horiz-adv-x="419" d="M315 1270q0 -44 -29 -72.5t-75 -28.5q-47 0 -77 28.5t-30 72.5q0 43 30 70.5t77 27.5q46 0 75 -27.5t29 -70.5zM133 1004h156v-1004h-156v1004z" />
<glyph unicode="j" horiz-adv-x="419" d="M315 1270q0 -44 -29 -72.5t-75 -28.5q-47 0 -77 28.5t-30 72.5q0 43 30 70.5t77 27.5q46 0 75 -27.5t29 -70.5zM289 1004v-1414h-156v1414h156z" />
<glyph unicode="k" horiz-adv-x="999" d="M952 1004l-501 -484l501 -520h-186l-473 494v-494h-158v1413h158v-866l473 457h186z" />
<glyph unicode="l" horiz-adv-x="428" d="M135 1413h158v-1413h-158v1413z" />
<glyph unicode="m" horiz-adv-x="1703" d="M1233 1020q157 0 251.5 -99.5t94.5 -267.5v-653h-156v635q0 120 -63.5 189t-177.5 69t-180 -69t-66 -189v-635h-156v635q0 121 -64 189.5t-179 68.5q-113 0 -178.5 -69t-65.5 -189v-635h-158v1004h158v-150q43 80 121.5 123t181.5 43q111 0 191.5 -53.5t117.5 -149.5 q40 96 126 149.5t202 53.5z" />
<glyph unicode="n" horiz-adv-x="1155" d="M631 1020q179 0 289 -114t110 -302v-604h-156v586q0 141 -78 225t-210 84q-134 0 -213.5 -84t-79.5 -225v-586h-158v1004h158v-179q48 93 135.5 144t202.5 51z" />
<glyph unicode="o" horiz-adv-x="1206" d="M604 1020q230 0 379.5 -146t149.5 -372t-149.5 -373t-379.5 -147t-380 147t-150 373t150 372t380 146zM604 883q-161 0 -266 -107.5t-105 -273.5q0 -167 105 -275t266 -108q160 0 264.5 108t104.5 275q0 166 -104.5 273.5t-264.5 107.5z" />
<glyph unicode="p" d="M694 1020q216 0 357 -146.5t141 -371.5q0 -226 -141.5 -373t-356.5 -147q-127 0 -230.5 53t-170.5 147v-592h-158v1414h158v-185q67 95 170.5 148t230.5 53zM662 119q161 0 264.5 108t103.5 275q0 166 -103.5 273.5t-264.5 107.5t-265 -107.5t-104 -273.5 q0 -167 104 -275t265 -108z" />
<glyph unicode="q" d="M973 1004h155v-1414h-155v592q-67 -95 -171.5 -147.5t-230.5 -52.5q-217 0 -357 147t-140 373t140 372t357 146q126 0 230.5 -53t171.5 -148v185zM604 119q160 0 264.5 108t104.5 275q0 166 -104.5 273.5t-264.5 107.5q-161 0 -266 -107.5t-105 -273.5q0 -167 105 -275 t266 -108z" />
<glyph unicode="r" horiz-adv-x="696" d="M293 760q47 128 147.5 197t241.5 69v-154q-185 0 -287 -95.5t-102 -268.5v-508h-158v1004h158v-244z" />
<glyph unicode="s" horiz-adv-x="970" d="M487 1020q164 0 267.5 -81t103.5 -210h-145q-3 78 -65.5 126t-162.5 48q-96 0 -155.5 -42t-59.5 -111q0 -23 4 -42.5t15 -35t21 -26.5t30.5 -21t33.5 -16t41.5 -13.5t43 -10.5t47.5 -10q147 -29 212 -58q165 -74 165 -241q0 -130 -109 -212t-282 -82q-174 0 -285.5 84.5 t-114.5 218.5h154q3 -83 72 -134t178 -51q103 0 168 46.5t65 121.5q0 36 -15 63.5t-28.5 42.5t-57 30t-58 18t-74.5 15q-9 2 -13 3q-43 8 -69.5 13t-70 17.5t-71 25.5t-60.5 36t-52 50t-32 66.5t-13 86.5q0 129 103 207t269 78z" />
<glyph unicode="t" horiz-adv-x="643" d="M610 1004v-134h-229v-870h-156v870h-186v134h186v256h156v-256h229z" />
<glyph unicode="u" horiz-adv-x="1138" d="M1014 1004v-590q0 -195 -122.5 -313.5t-322.5 -118.5t-322 118.5t-122 313.5v590h158v-590q0 -137 78 -219t208 -82t208.5 82t78.5 219v590h158z" />
<glyph unicode="v" horiz-adv-x="1038" d="M852 1004h166l-406 -1004h-186l-406 1004h166l334 -848z" />
<glyph unicode="w" horiz-adv-x="1615" d="M1425 1004h162l-319 -1004h-201l-258 784l-258 -784h-201l-321 1004h161l271 -873l274 873h148l272 -873z" />
<glyph unicode="x" horiz-adv-x="1142" d="M1096 0h-183l-342 418l-342 -418h-182l412 504l-408 500h182l338 -414l338 414h183l-408 -500z" />
<glyph unicode="y" horiz-adv-x="1058" d="M874 1004h166l-678 -1405h-165l262 518l-439 887h166l346 -732z" />
<glyph unicode="z" horiz-adv-x="1058" d="M276 131h707v-131h-909v119l706 751h-702v134h903v-119z" />
<glyph unicode="{" horiz-adv-x="561" d="M326 702q0 -88 -86 -122q86 -39 86 -127v-572q0 -89 50.5 -144.5t137.5 -55.5v-109q-161 0 -245.5 85.5t-84.5 223.5v572q0 71 -75 71v109q75 0 75 69v568q0 138 84.5 222.5t245.5 84.5v-107q-86 0 -137 -56t-51 -144v-568z" />
<glyph unicode="|" horiz-adv-x="487" d="M184 1638h119v-2048h-119v2048z" />
<glyph unicode="}" horiz-adv-x="561" d="M379 702q0 -69 74 -69v-109q-74 0 -74 -71v-572q0 -138 -85 -223.5t-245 -85.5v109q85 0 137 55.5t52 144.5v572q0 89 84 125q-84 36 -84 124v568q0 87 -52 143.5t-137 56.5v107q160 0 245 -84.5t85 -222.5v-568z" />
<glyph unicode="~" horiz-adv-x="913" d="M98 676q95 43 197 43q69 0 160 -31t161 -31q102 0 197 43v-118q-95 -43 -197 -43q-71 0 -162.5 30.5t-160.5 30.5q-100 0 -195 -43v119z" />
<glyph unicode="&#xa1;" horiz-adv-x="546" d="M272 795q-51 0 -83.5 30.5t-32.5 81.5q0 50 32.5 81.5t83.5 31.5q52 0 84.5 -31.5t32.5 -81.5q0 -51 -32 -81.5t-85 -30.5zM371 -408h-195l27 1092h141z" />
<glyph unicode="&#xa2;" horiz-adv-x="1191" d="M604 119q134 0 234 82.5t125 210.5h157q-23 -173 -151 -291t-310 -135v-144h-112v144q-208 19 -340.5 162t-132.5 354t132.5 354t340.5 162v143h112v-143q182 -17 310 -135t151 -291h-157q-25 128 -125.5 209.5t-233.5 81.5q-161 0 -266 -107.5t-105 -273.5 q0 -167 105 -275t266 -108z" />
<glyph unicode="&#xa3;" horiz-adv-x="1226" d="M307 147h819v-147h-1040v160q58 0 94.5 36t36.5 95v280h-131v119h131v72q0 191 87 343.5t242 238.5t349 86q79 0 162 -17v-164q-85 29 -162 29q-220 0 -366 -147t-146 -369v-72h539v-119h-539v-262q0 -102 -76 -162z" />
<glyph unicode="&#xa4;" horiz-adv-x="960" d="M879 616q0 -149 -91 -258l99 -100l-47 -49l-101 100q-114 -86 -258 -86q-148 0 -258 86l-100 -100l-49 49l100 98q-92 106 -92 260q0 152 92 258l-100 99l49 49l100 -100q110 86 258 86q146 0 256 -86l103 100l47 -49l-99 -101q91 -105 91 -256zM481 328q123 0 204 81 t81 207q0 124 -81 205.5t-204 81.5q-124 0 -205 -81t-81 -206q0 -126 80.5 -207t205.5 -81z" />
<glyph unicode="&#xa5;" horiz-adv-x="1337" d="M1300 1413l-497 -725h303v-98h-873v98h302l-498 725h188l445 -665l442 665h188zM233 371v98h873v-98h-354v-371h-166v371h-353z" />
<glyph unicode="&#xa6;" horiz-adv-x="487" d="M184 874v764h119v-764h-119zM184 -410v764h119v-764h-119z" />
<glyph unicode="&#xa7;" horiz-adv-x="1251" d="M1157 395q0 -145 -94 -250q47 -68 47 -178q0 -179 -136.5 -287t-357.5 -108q-212 0 -347 107.5t-140 279.5h162q6 -111 94.5 -178.5t230.5 -67.5q146 0 235 69t89 185q0 62 -29 107t-78.5 70.5t-113.5 44t-134.5 33t-141 30.5t-134.5 43t-113.5 64.5t-78.5 101t-29 147.5 q0 148 94 250q-47 68 -47 178q0 178 136.5 286t357.5 108q212 0 347.5 -107.5t139.5 -280.5h-162q-4 112 -93 179t-232 67q-146 0 -235 -68.5t-89 -185.5q0 -78 47 -129t122 -76t166 -43t182 -42t166 -60.5t122 -109.5t47 -179zM240 606q0 -69 36.5 -117t93 -73t135.5 -45.5 t154.5 -33t158.5 -37.5t140 -58q48 70 48 153q0 69 -36.5 117.5t-93.5 73t-135.5 45t-154 33.5t-158.5 38t-139 58q-49 -67 -49 -154z" />
<glyph unicode="&#xa8;" horiz-adv-x="460" d="M174 1253q0 -35 -24 -57t-62 -22t-63 22t-25 57t25 58.5t63 23.5t62 -23t24 -59zM461 1253q0 -35 -25 -57t-63 -22t-62 22t-24 57q0 36 24 59t62 23t63 -23.5t25 -58.5z" />
<glyph unicode="&#xa9;" horiz-adv-x="1652" d="M825 1430q210 0 377 -92t260.5 -257t93.5 -372q0 -208 -93.5 -374.5t-260.5 -259.5t-377 -93q-157 0 -292.5 54.5t-231.5 150.5t-150.5 231t-54.5 291q0 207 93.5 372t260 257t375.5 92zM825 1321q-176 0 -316 -78t-219 -218t-79 -316q0 -132 46 -246.5t127 -196 t195 -128t246 -46.5q268 0 442.5 175t174.5 442q0 176 -79 315.5t-220 218t-318 78.5zM1286 629q-22 -164 -149.5 -270.5t-302.5 -106.5q-202 0 -333.5 128.5t-131.5 326.5t131 326t334 128q175 0 302.5 -106t149.5 -269h-139q-22 111 -109.5 183.5t-203.5 72.5 q-141 0 -232.5 -94.5t-91.5 -240.5t91.5 -240t232.5 -94q118 0 205.5 71.5t109.5 184.5h137z" />
<glyph unicode="&#xaa;" horiz-adv-x="847" d="M651 1415h109v-647h-109v113q-44 -60 -111 -93.5t-149 -33.5q-141 0 -233 96t-92 244q0 146 92 241t233 95q82 0 149.5 -33t110.5 -92v110zM420 852q101 0 166 68t65 174q0 103 -65 171t-166 68t-167.5 -68t-66.5 -171q0 -106 66.5 -174t167.5 -68z" />
<glyph unicode="&#xab;" horiz-adv-x="946" d="M836 928l-279 -408l279 -405h-138l-280 405l280 408h138zM496 928l-279 -408l279 -405h-138l-280 405l280 408h138z" />
<glyph unicode="&#xac;" horiz-adv-x="987" d="M98 788h764v-372h-106v276h-658v96z" />
<glyph unicode="&#xad;" horiz-adv-x="921" d="M98 649h725v-119h-725v119z" />
<glyph unicode="&#xae;" horiz-adv-x="1652" d="M825 1430q210 0 377 -92t260.5 -257t93.5 -372q0 -208 -93.5 -374.5t-260.5 -259.5t-377 -93q-157 0 -292.5 54.5t-231.5 150.5t-150.5 231t-54.5 291q0 207 93.5 372t260 257t375.5 92zM825 92q268 0 442.5 175t174.5 442q0 176 -79 315.5t-220 218t-318 78.5 q-176 0 -316 -78t-219 -218t-79 -316q0 -132 46 -246.5t127 -196t195 -128t246 -46.5zM1167 897q0 -105 -62 -173t-167 -79l246 -371h-137l-242 369h-156v-369h-119v871h373q119 0 191.5 -68.5t72.5 -179.5zM649 1047v-318h228q73 0 117 44t44 118q0 72 -43.5 114t-117.5 42 h-228z" />
<glyph unicode="&#xaf;" horiz-adv-x="575" d="M0 1290h575v-102h-575v102z" />
<glyph unicode="&#xb0;" horiz-adv-x="702" d="M350 1425q115 0 188.5 -71.5t73.5 -182.5q0 -113 -73.5 -184.5t-188.5 -71.5q-114 0 -188 72t-74 184q0 110 74 182t188 72zM350 1360q-85 0 -139.5 -53.5t-54.5 -135.5q0 -83 54.5 -136.5t139.5 -53.5q86 0 141.5 53.5t55.5 136.5q0 82 -55.5 135.5t-141.5 53.5z" />
<glyph unicode="&#xb1;" horiz-adv-x="960" d="M532 678h324v-98h-324v-213h-104v213h-322v98h322v321h104v-321zM106 190v99h750v-99h-750z" />
<glyph unicode="&#xb2;" horiz-adv-x="847" d="M227 997h559v-112h-714v14q0 48 11 91t25.5 74.5t43.5 64t49.5 51.5t61 45.5t60 37.5t62.5 35q59 33 98.5 59t77.5 60t57 71.5t19 78.5q0 75 -57 122.5t-146 47.5q-86 0 -145 -48.5t-66 -136.5h-131q7 138 102.5 218.5t243.5 80.5q146 0 240 -77t94 -199 q0 -61 -23.5 -113.5t-68.5 -95.5t-88 -72.5t-105 -64.5q-8 -4 -40 -22t-42 -23.5t-37 -21.5t-37.5 -24t-31 -23.5t-29 -27t-20 -27t-16.5 -31t-7 -32.5z" />
<glyph unicode="&#xb3;" horiz-adv-x="894" d="M584 1384q110 -25 173.5 -89.5t63.5 -153.5q0 -115 -104 -192t-264 -77q-167 0 -272.5 84.5t-108.5 227.5h137q3 -92 69.5 -144.5t170.5 -52.5q101 0 166 48t65 122q0 76 -71 125t-187 49h-51v92h51q104 0 167.5 46t63.5 118q0 67 -57 110.5t-145 43.5 q-94 0 -154.5 -49.5t-63.5 -139.5h-127q4 138 100 218.5t247 80.5q143 0 237 -69.5t94 -175.5q0 -78 -54.5 -138.5t-145.5 -83.5z" />
<glyph unicode="&#xb4;" horiz-adv-x="417" d="M258 1413h160l-293 -311h-125z" />
<glyph unicode="&#xb6;" horiz-adv-x="1064" d="M504 1413h381v-1618h-107v1520h-112v-1520h-107v893h-55q-172 0 -277.5 101t-105.5 264q0 161 105.5 260.5t277.5 99.5z" />
<glyph unicode="&#xb7;" horiz-adv-x="378" d="M188 776q53 0 85 -30.5t32 -81.5q0 -50 -32.5 -81.5t-84.5 -31.5q-51 0 -83.5 31.5t-32.5 81.5q0 51 32.5 81.5t83.5 30.5z" />
<glyph unicode="&#xb8;" horiz-adv-x="210" d="M53 -66q70 0 114 -41t44 -108q0 -66 -44.5 -108t-113.5 -42q-29 0 -53 7v63q24 -4 41 -4q37 0 61.5 23.5t24.5 60.5t-24.5 61.5t-61.5 24.5q-23 0 -41 -6v63q21 6 53 6z" />
<glyph unicode="&#xb9;" horiz-adv-x="581" d="M315 1839h111v-954h-135v696h-223v84q108 0 177.5 49t69.5 125z" />
<glyph unicode="&#xba;" horiz-adv-x="821" d="M410 1430q151 0 248.5 -95t97.5 -243q0 -146 -97.5 -242t-248.5 -96q-149 0 -246.5 96t-97.5 242q0 147 97 242.5t247 95.5zM410 1329q-98 0 -163 -67t-65 -170t65 -170.5t163 -67.5q99 0 163 67.5t64 170.5t-64 170t-163 67z" />
<glyph unicode="&#xbb;" horiz-adv-x="946" d="M586 928l280 -408l-280 -405h-137l278 405l-278 408h137zM246 928l280 -408l-280 -405h-137l280 405l-280 408h137z" />
<glyph unicode="&#xbc;" horiz-adv-x="1835" d="M1184 1413h119l-826 -1413h-117zM426 457h-135v696h-223v84q108 0 177.5 49t69.5 125h111v-954zM1825 334v-117h-180v-217h-138v217h-512v102l486 635h164v-620h180zM1509 807l-376 -473h374z" />
<glyph unicode="&#xbd;" horiz-adv-x="1894" d="M1184 1413h119l-826 -1413h-117zM426 457h-135v696h-223v84q108 0 177.5 49t69.5 125h111v-954zM1274 113h559v-113h-715v14q0 48 11 91t25.5 74.5t43.5 64t50 52t61 45.5t60 37.5t63 35.5q59 33 98.5 59t77.5 59.5t56.5 71t18.5 78.5q0 75 -56.5 122.5t-145.5 47.5 q-87 0 -145.5 -48t-65.5 -136h-131q7 138 102.5 218.5t243.5 80.5q146 0 240 -77.5t94 -199.5q0 -61 -23.5 -113.5t-68.5 -95.5t-88 -72.5t-105 -64.5q-10 -6 -40 -22t-42 -23t-37.5 -22t-37 -23.5t-31 -23.5t-28.5 -26.5t-20.5 -27t-16.5 -31t-7 -32.5z" />
<glyph unicode="&#xbe;" horiz-adv-x="2134" d="M821 713q0 -115 -104 -192t-264 -77q-167 0 -272.5 84.5t-108.5 227.5h137q3 -92 69.5 -144.5t170.5 -52.5q101 0 166 48t65 122q0 76 -71 125t-187 49h-51v92h51q104 0 167.5 46t63.5 118q0 67 -57 110.5t-145 43.5q-94 0 -154.5 -49.5t-63.5 -139.5h-127 q4 138 100 218.5t247 80.5q143 0 237 -69.5t94 -175.5q0 -78 -54.5 -138.5t-145.5 -83.5q110 -25 173.5 -89.5t63.5 -153.5zM1483 1413h119l-826 -1413h-117zM2124 334v-117h-180v-217h-138v217h-512v102l486 635h164v-620h180zM1808 807l-376 -473h374z" />
<glyph unicode="&#xbf;" horiz-adv-x="1105" d="M551 793q-52 0 -84.5 31t-32.5 81q0 49 33 81t84 32q52 0 85.5 -31.5t33.5 -81.5q0 -51 -33 -81.5t-86 -30.5zM874 8h158q0 -190 -136 -313t-347 -123q-207 0 -341 122t-134 310q0 170 113 286.5t292 133.5l4 258h144l6 -365h-27q-169 0 -271 -86.5t-102 -220.5 q0 -131 90.5 -218t229.5 -87q138 0 228.5 86t92.5 217z" />
<glyph unicode="&#xc0;" horiz-adv-x="1361" d="M756 1511h-125l-293 312h160zM1165 0l-133 342h-704l-131 -342h-181l564 1413h200l563 -1413h-178zM383 479h596l-299 770z" />
<glyph unicode="&#xc1;" horiz-adv-x="1361" d="M1022 1823l-293 -312h-125l258 312h160zM1165 0l-133 342h-704l-131 -342h-181l564 1413h200l563 -1413h-178zM383 479h596l-299 770z" />
<glyph unicode="&#xc2;" horiz-adv-x="1361" d="M678 1745l-217 -236h-125l258 312h154h12l260 -312h-125zM1165 0l-133 342h-704l-131 -342h-181l564 1413h200l563 -1413h-178zM383 479h596l-299 770z" />
<glyph unicode="&#xc3;" horiz-adv-x="1361" d="M535 1694q-50 0 -82.5 -47.5t-32.5 -122.5h-86q0 125 56 202.5t147 77.5q40 0 74.5 -19t58.5 -46t47.5 -54t52 -46t59.5 -19q51 0 82 46t31 120h86q0 -123 -55 -199t-146 -76q-40 0 -74.5 19t-59.5 45.5t-48.5 53.5t-51.5 46t-58 19zM1165 0l-133 342h-704l-131 -342 h-181l564 1413h200l563 -1413h-178zM383 479h596l-299 770z" />
<glyph unicode="&#xc4;" horiz-adv-x="1361" d="M539 1583q-38 0 -63 22.5t-25 57.5t25 58.5t63 23.5t62 -23t24 -59q0 -35 -24 -57.5t-62 -22.5zM823 1583q-38 0 -62 22.5t-24 57.5q0 36 24 59t62 23t63 -23.5t25 -58.5t-25 -57.5t-63 -22.5zM1165 0l-133 342h-704l-131 -342h-181l564 1413h200l563 -1413h-178z M383 479h596l-299 770z" />
<glyph unicode="&#xc5;" horiz-adv-x="1361" d="M1165 0l-133 342h-704l-131 -342h-181l551 1380q-56 28 -88.5 81.5t-32.5 121.5q0 100 67 164.5t171 64.5q103 0 170.5 -64.5t67.5 -164.5q0 -70 -34 -124.5t-93 -82.5l548 -1376h-178zM684 1718q-60 0 -98.5 -38t-38.5 -97q0 -60 38.5 -98.5t98.5 -38.5t98.5 38.5 t38.5 98.5q0 59 -38.5 97t-98.5 38zM383 479h596l-299 770z" />
<glyph unicode="&#xc6;" horiz-adv-x="1824" d="M1733 1264h-893l190 -478h635v-141h-578l197 -498h449v-147h-527h-41l-133 342h-704l-131 -342h-181l564 1413h200h953v-149zM383 479h596l-299 770z" />
<glyph unicode="&#xc7;" horiz-adv-x="1607" d="M1528 565q-43 -260 -239.5 -421.5t-475.5 -161.5q-157 0 -293 54.5t-232 150.5t-151 231t-55 291q0 207 94 372t261 257t376 92q279 0 475.5 -160t239.5 -418h-170q-42 191 -190 308.5t-355 117.5q-244 0 -402.5 -160.5t-158.5 -408.5q0 -249 158.5 -411.5t402.5 -162.5 q207 0 355 118.5t190 311.5h170zM793 -68q70 0 113.5 -41t43.5 -108q0 -66 -44 -108t-113 -42q-29 0 -54 7v63q24 -4 41 -4q37 0 61.5 23.5t24.5 60.5t-24.5 61.5t-61.5 24.5q-23 0 -41 -6v63q21 6 54 6z" />
<glyph unicode="&#xc8;" horiz-adv-x="1208" d="M723 1511h-125l-293 312h160zM1114 1264h-788v-478h721v-141h-721v-498h788v-147h-954v1413h954v-149z" />
<glyph unicode="&#xc9;" horiz-adv-x="1208" d="M989 1823l-293 -312h-125l258 312h160zM1114 1264h-788v-478h721v-141h-721v-498h788v-147h-954v1413h954v-149z" />
<glyph unicode="&#xca;" horiz-adv-x="1208" d="M645 1745l-217 -236h-125l258 312h154h12l260 -312h-125zM1114 1264h-788v-478h721v-141h-721v-498h788v-147h-954v1413h954v-149z" />
<glyph unicode="&#xcb;" horiz-adv-x="1208" d="M506 1583q-38 0 -63 22.5t-25 57.5t25 58.5t63 23.5t62 -23t24 -59q0 -35 -24 -57.5t-62 -22.5zM791 1583q-38 0 -62 22.5t-24 57.5q0 36 24 59t62 23t63 -23.5t25 -58.5t-25 -57.5t-63 -22.5zM1114 1264h-788v-478h721v-141h-721v-498h788v-147h-954v1413h954v-149z" />
<glyph unicode="&#xcc;" horiz-adv-x="487" d="M61 1823l258 -312h-124l-293 312h159zM326 1413v-1413h-166v1413h166z" />
<glyph unicode="&#xcd;" horiz-adv-x="487" d="M426 1823h160l-293 -312h-125zM326 1413v-1413h-166v1413h166z" />
<glyph unicode="&#xce;" horiz-adv-x="487" d="M324 1821l260 -312h-125l-217 236l-217 -236h-125l258 312h153h13zM160 0v1413h166v-1413h-166z" />
<glyph unicode="&#xcf;" horiz-adv-x="487" d="M186 1663q0 -35 -24 -57.5t-62 -22.5t-63 22.5t-25 57.5t25 58.5t63 23.5t62 -23t24 -59zM473 1663q0 -35 -25 -57.5t-63 -22.5t-62 22.5t-24 57.5q0 36 24 59t62 23t63 -23.5t25 -58.5zM326 1413v-1413h-166v1413h166z" />
<glyph unicode="&#xd0;" horiz-adv-x="1398" d="M592 1413q214 0 379 -88.5t255.5 -248.5t90.5 -367q0 -156 -53 -288t-147.5 -224.5t-229.5 -144.5t-295 -52h-432v657h-148v105h148v651h432zM592 147q248 0 401.5 156t153.5 408q0 247 -153.5 400t-401.5 153h-266v-502h262v-105h-262v-510h266z" />
<glyph unicode="&#xd1;" horiz-adv-x="1429" d="M567 1694q-50 0 -82 -47.5t-32 -122.5h-86q0 125 55.5 202.5t146.5 77.5q40 0 74.5 -19t59 -46t47.5 -54t52 -46t60 -19q51 0 82 46t31 120h86q0 -123 -55 -199t-146 -76q-40 0 -75 19t-60 45.5t-48 53.5t-51.5 46t-58.5 19zM1104 1413h166v-1413h-215l-729 1198v-1198 h-166v1413h215l729 -1198v1198z" />
<glyph unicode="&#xd2;" horiz-adv-x="1624" d="M631 1823l258 -312h-125l-293 312h160zM813 1430q209 0 376 -92t261 -257t94 -372q0 -156 -55 -291t-151 -231t-232 -150.5t-293 -54.5t-293 54.5t-232 150.5t-151 231t-55 291q0 207 94 372t261 257t376 92zM813 1278q-244 0 -402.5 -160.5t-158.5 -408.5 q0 -249 158.5 -411.5t402.5 -162.5q243 0 401 162.5t158 411.5q0 247 -158 408t-401 161z" />
<glyph unicode="&#xd3;" horiz-adv-x="1624" d="M995 1823h160l-293 -312h-125zM813 1430q209 0 376 -92t261 -257t94 -372q0 -156 -55 -291t-151 -231t-232 -150.5t-293 -54.5t-293 54.5t-232 150.5t-151 231t-55 291q0 207 94 372t261 257t376 92zM813 1278q-244 0 -402.5 -160.5t-158.5 -408.5q0 -249 158.5 -411.5 t402.5 -162.5q243 0 401 162.5t158 411.5q0 247 -158 408t-401 161z" />
<glyph unicode="&#xd4;" horiz-adv-x="1624" d="M811 1745l-217 -236h-125l258 312h154h12l260 -312h-125zM813 1430q209 0 376 -92t261 -257t94 -372q0 -156 -55 -291t-151 -231t-232 -150.5t-293 -54.5t-293 54.5t-232 150.5t-151 231t-55 291q0 207 94 372t261 257t376 92zM813 135q243 0 401 162.5t158 411.5 q0 247 -158 408t-401 161q-244 0 -402.5 -160.5t-158.5 -408.5q0 -249 158.5 -411.5t402.5 -162.5z" />
<glyph unicode="&#xd5;" horiz-adv-x="1624" d="M668 1804q40 0 74.5 -19t59 -46t47.5 -54t52 -46t60 -19q51 0 81.5 46t30.5 120h86q0 -123 -55 -199t-146 -76q-40 0 -74.5 19t-59.5 45.5t-48.5 53.5t-51.5 46t-58 19q-50 0 -82.5 -47.5t-32.5 -122.5h-86q0 125 56 202.5t147 77.5zM813 1430q209 0 376 -92t261 -257 t94 -372q0 -156 -55 -291t-151 -231t-232 -150.5t-293 -54.5t-293 54.5t-232 150.5t-151 231t-55 291q0 207 94 372t261 257t376 92zM813 1278q-244 0 -402.5 -160.5t-158.5 -408.5q0 -249 158.5 -411.5t402.5 -162.5q243 0 401 162.5t158 411.5q0 247 -158 408t-401 161z " />
<glyph unicode="&#xd6;" horiz-adv-x="1624" d="M756 1663q0 -35 -24 -57.5t-62 -22.5t-63 22.5t-25 57.5t25 58.5t63 23.5t62 -23t24 -59zM1042 1663q0 -35 -25 -57.5t-63 -22.5t-62 22.5t-24 57.5q0 36 24 59t62 23t63 -23.5t25 -58.5zM813 1430q209 0 376 -92t261 -257t94 -372q0 -156 -55 -291t-151 -231 t-232 -150.5t-293 -54.5t-293 54.5t-232 150.5t-151 231t-55 291q0 207 94 372t261 257t376 92zM813 1278q-244 0 -402.5 -160.5t-158.5 -408.5q0 -249 158.5 -411.5t402.5 -162.5q243 0 401 162.5t158 411.5q0 247 -158 408t-401 161z" />
<glyph unicode="&#xd7;" horiz-adv-x="874" d="M768 891l-262 -262l262 -262l-68 -70l-264 264l-262 -264l-68 70l263 262l-263 264l68 68l264 -263l262 263z" />
<glyph unicode="&#xd8;" horiz-adv-x="1630" d="M1321 1241q106 -97 164.5 -234.5t58.5 -297.5q0 -156 -55 -291t-151 -231t-232 -150.5t-293 -54.5q-239 0 -418 118l-166 -202h-127l213 264q-110 98 -171.5 239.5t-61.5 307.5q0 207 94 372t261 257t376 92q244 0 430 -125l170 211h129zM252 709q0 -125 44.5 -233.5 t123.5 -186.5l721 889q-143 100 -328 100q-244 0 -402.5 -160.5t-158.5 -408.5zM813 135q243 0 401 162.5t158 411.5q0 247 -155 405l-721 -887q137 -92 317 -92z" />
<glyph unicode="&#xd9;" horiz-adv-x="1339" d="M487 1823l258 -312h-124l-293 312h159zM1212 1413v-891q0 -244 -148.5 -392t-391.5 -148q-245 0 -395 148t-150 392v891h168v-883q0 -180 102.5 -287.5t272.5 -107.5q172 0 274.5 107.5t102.5 287.5v883h165z" />
<glyph unicode="&#xda;" horiz-adv-x="1339" d="M852 1823h160l-293 -312h-125zM1212 1413v-891q0 -244 -148.5 -392t-391.5 -148q-245 0 -395 148t-150 392v891h168v-883q0 -180 102.5 -287.5t272.5 -107.5q172 0 274.5 107.5t102.5 287.5v883h165z" />
<glyph unicode="&#xdb;" horiz-adv-x="1339" d="M668 1745l-217 -236h-125l258 312h153h13l260 -312h-125zM1047 1413h165v-891q0 -244 -148.5 -392t-391.5 -148q-245 0 -395 148t-150 392v891h168v-883q0 -180 102.5 -287.5t272.5 -107.5q172 0 274.5 107.5t102.5 287.5v883z" />
<glyph unicode="&#xdc;" horiz-adv-x="1339" d="M614 1663q0 -35 -24 -57.5t-62 -22.5t-63 22.5t-25 57.5t25 58.5t63 23.5t62 -23t24 -59zM901 1663q0 -35 -25 -57.5t-63 -22.5t-62 22.5t-24 57.5q0 36 24 59t62 23t63 -23.5t25 -58.5zM1212 1413v-891q0 -244 -148.5 -392t-391.5 -148q-245 0 -395 148t-150 392v891 h168v-883q0 -180 102.5 -287.5t272.5 -107.5q172 0 274.5 107.5t102.5 287.5v883h165z" />
<glyph unicode="&#xdd;" horiz-adv-x="1298" d="M991 1823l-293 -312h-125l258 312h160zM1280 1413l-547 -805v-608h-166v604l-549 809h189l442 -665l445 665h186z" />
<glyph unicode="&#xde;" horiz-adv-x="1189" d="M700 1147q194 0 313.5 -115.5t119.5 -304.5t-119.5 -305.5t-313.5 -116.5h-374v-305h-166v1413h166v-266h374zM684 451q127 0 203 75.5t76 200.5q0 124 -75.5 198t-203.5 74h-358v-548h358z" />
<glyph unicode="&#xdf;" horiz-adv-x="1107" d="M768 754q121 -40 193.5 -140.5t72.5 -232.5q0 -174 -118.5 -285.5t-305.5 -111.5q-84 0 -172 36v144q65 -43 160 -43q121 0 198.5 77t77.5 197q0 126 -82.5 206.5t-211.5 80.5v121q92 6 152.5 76.5t60.5 173.5q0 104 -70.5 171.5t-179.5 67.5t-179.5 -72t-70.5 -186 v-1034h-158v1044q0 167 115.5 276.5t292.5 109.5q178 0 293.5 -103.5t115.5 -261.5q0 -105 -49.5 -188t-134.5 -123z" />
<glyph unicode="&#xe0;" d="M692 1102h-125l-293 311h160zM973 1004h155v-1004h-155v182q-67 -95 -171.5 -147.5t-230.5 -52.5q-217 0 -357 147t-140 373t140 372t357 146q126 0 230.5 -53t171.5 -148v185zM604 119q160 0 264.5 108t104.5 275q0 166 -104.5 273.5t-264.5 107.5q-161 0 -266 -107.5 t-105 -273.5q0 -167 105 -275t266 -108z" />
<glyph unicode="&#xe1;" d="M958 1413l-292 -311h-125l258 311h159zM973 1004h155v-1004h-155v182q-67 -95 -171.5 -147.5t-230.5 -52.5q-217 0 -357 147t-140 373t140 372t357 146q126 0 230.5 -53t171.5 -148v185zM604 119q160 0 264.5 108t104.5 275q0 166 -104.5 273.5t-264.5 107.5 q-161 0 -266 -107.5t-105 -273.5q0 -167 105 -275t266 -108z" />
<glyph unicode="&#xe2;" d="M614 1335l-217 -235h-125l258 311h154h12l260 -311h-125zM973 1004h155v-1004h-155v182q-67 -95 -171.5 -147.5t-230.5 -52.5q-217 0 -357 147t-140 373t140 372t357 146q126 0 230.5 -53t171.5 -148v185zM604 119q160 0 264.5 108t104.5 275q0 166 -104.5 273.5 t-264.5 107.5q-161 0 -266 -107.5t-105 -273.5q0 -167 105 -275t266 -108z" />
<glyph unicode="&#xe3;" d="M469 1284q-50 0 -82.5 -47.5t-32.5 -122.5h-86q0 125 56 203t147 78q40 0 74.5 -19t59 -46.5t47.5 -54.5t52 -46t60 -19q51 0 82 46t31 120h86q0 -123 -55 -198.5t-146 -75.5q-34 0 -64.5 13.5t-51.5 33.5t-43.5 44t-40.5 44t-42.5 33.5t-50.5 13.5zM973 1004h155v-1004 h-155v182q-67 -95 -171.5 -147.5t-230.5 -52.5q-217 0 -357 147t-140 373t140 372t357 146q126 0 230.5 -53t171.5 -148v185zM604 119q160 0 264.5 108t104.5 275q0 166 -104.5 273.5t-264.5 107.5q-161 0 -266 -107.5t-105 -273.5q0 -167 105 -275t266 -108z" />
<glyph unicode="&#xe4;" d="M473 1174q-38 0 -63 22t-25 57t25 58.5t63 23.5t62 -23t24 -59q0 -35 -24 -57t-62 -22zM758 1174q-38 0 -62 22t-24 57q0 36 24 59t62 23t63 -23.5t25 -58.5t-25 -57t-63 -22zM973 1004h155v-1004h-155v182q-67 -95 -171.5 -147.5t-230.5 -52.5q-217 0 -357 147t-140 373 t140 372t357 146q126 0 230.5 -53t171.5 -148v185zM604 119q160 0 264.5 108t104.5 275q0 166 -104.5 273.5t-264.5 107.5q-161 0 -266 -107.5t-105 -273.5q0 -167 105 -275t266 -108z" />
<glyph unicode="&#xe5;" d="M616 1094q-104 0 -170.5 64t-66.5 165q0 100 66.5 164.5t170.5 64.5q103 0 169.5 -64.5t66.5 -164.5q0 -101 -66.5 -165t-169.5 -64zM616 1460q-60 0 -99.5 -39t-39.5 -98q0 -60 39.5 -98.5t99.5 -38.5q59 0 98.5 38.5t39.5 98.5q0 58 -39.5 97.5t-98.5 39.5zM973 1004 h155v-1004h-155v182q-67 -95 -171.5 -147.5t-230.5 -52.5q-217 0 -357 147t-140 373t140 372t357 146q126 0 230.5 -53t171.5 -148v185zM604 119q160 0 264.5 108t104.5 275q0 166 -104.5 273.5t-264.5 107.5q-161 0 -266 -107.5t-105 -273.5q0 -167 105 -275t266 -108z" />
<glyph unicode="&#xe6;" horiz-adv-x="2148" d="M2077 502q0 -13 -4 -49h-904q17 -151 122 -246.5t257 -95.5q123 0 221.5 72.5t131.5 183.5h159q-42 -169 -182.5 -277t-323.5 -108q-136 0 -246 53.5t-180 150.5v-186h-155v182q-67 -95 -171.5 -147.5t-230.5 -52.5q-217 0 -357 147t-140 373t140 372t357 146 q126 0 230.5 -53t171.5 -148v185h155v-187q70 97 180 150t246 53q229 0 375 -145.5t148 -372.5zM1548 891q-147 0 -249 -88t-125 -230h753q-22 140 -127 229t-252 89zM604 119q160 0 264.5 108t104.5 275q0 166 -104.5 273.5t-264.5 107.5q-161 0 -266 -107.5t-105 -273.5 q0 -167 105 -275t266 -108z" />
<glyph unicode="&#xe7;" horiz-adv-x="1191" d="M1120 412q-25 -187 -170.5 -308.5t-345.5 -121.5q-230 0 -380 147t-150 373t150 372t380 146q199 0 345 -121t171 -307h-157q-25 128 -125.5 209.5t-233.5 81.5q-161 0 -266 -107.5t-105 -273.5q0 -167 105 -275t266 -108q134 0 234 82.5t125 210.5h157zM584 -70 q70 0 113.5 -41t43.5 -108q0 -66 -44 -108t-113 -42q-30 0 -54 7v63q24 -4 41 -4q37 0 61.5 23.5t24.5 60.5t-24.5 61.5t-61.5 24.5q-23 0 -41 -6v63q21 6 54 6z" />
<glyph unicode="&#xe8;" horiz-adv-x="1204" d="M680 1102h-125l-293 311h160zM1133 502q0 -9 -5 -49h-901q15 -150 120.5 -246t258.5 -96q124 0 221.5 72t130.5 184h160q-41 -168 -185 -276.5t-329 -108.5q-230 0 -380 147t-150 373t150 372t380 146t379.5 -146t149.5 -372zM606 891q-147 0 -249.5 -88t-125.5 -230h752 q-20 140 -125 229t-252 89z" />
<glyph unicode="&#xe9;" horiz-adv-x="1204" d="M946 1413l-293 -311h-125l258 311h160zM1133 502q0 -9 -5 -49h-901q15 -150 120.5 -246t258.5 -96q124 0 221.5 72t130.5 184h160q-41 -168 -185 -276.5t-329 -108.5q-230 0 -380 147t-150 373t150 372t380 146t379.5 -146t149.5 -372zM606 891q-147 0 -249.5 -88 t-125.5 -230h752q-20 140 -125 229t-252 89z" />
<glyph unicode="&#xea;" horiz-adv-x="1204" d="M602 1335l-217 -235h-125l258 311h154h12l260 -311h-125zM1133 502q0 -9 -5 -49h-901q15 -150 120.5 -246t258.5 -96q124 0 221.5 72t130.5 184h160q-41 -168 -185 -276.5t-329 -108.5q-230 0 -380 147t-150 373t150 372t380 146t379.5 -146t149.5 -372zM606 891 q-147 0 -249.5 -88t-125.5 -230h752q-20 140 -125 229t-252 89z" />
<glyph unicode="&#xeb;" horiz-adv-x="1204" d="M461 1174q-38 0 -63 22t-25 57t25 58.5t63 23.5t62 -23t24 -59q0 -35 -24 -57t-62 -22zM745 1174q-38 0 -62 22t-24 57q0 36 24 59t62 23t63.5 -23.5t25.5 -58.5t-25 -57t-64 -22zM1133 502q0 -9 -5 -49h-901q15 -150 120.5 -246t258.5 -96q124 0 221.5 72t130.5 184h160 q-41 -168 -185 -276.5t-329 -108.5q-230 0 -380 147t-150 373t150 372t380 146t379.5 -146t149.5 -372zM606 891q-147 0 -249.5 -88t-125.5 -230h752q-20 140 -125 229t-252 89z" />
<glyph unicode="&#xec;" horiz-adv-x="448" d="M43 1413l258 -311h-125l-293 311h160zM145 1004h158v-1004h-158v1004z" />
<glyph unicode="&#xed;" horiz-adv-x="448" d="M408 1413h159l-293 -311h-124zM145 1004h158v-1004h-158v1004z" />
<glyph unicode="&#xee;" horiz-adv-x="450" d="M295 1413l201 -311h-109l-162 233l-164 -233h-106l201 311h139zM145 0v1004h158v-1004h-158z" />
<glyph unicode="&#xef;" horiz-adv-x="460" d="M203 1272q0 -35 -25 -58.5t-63 -23.5t-62 23t-24 59q0 37 24 59.5t62 22.5q39 0 63.5 -23t24.5 -59zM434 1272q0 -35 -25 -58.5t-63 -23.5t-62 23t-24 59q0 37 24 59.5t62 22.5q39 0 63.5 -23t24.5 -59zM154 1004h155v-1004h-155v1004z" />
<glyph unicode="&#xf0;" horiz-adv-x="1202" d="M985 864q72 -89 107.5 -176t35.5 -192q0 -224 -147.5 -369t-378.5 -145t-379.5 145.5t-148.5 368.5q0 144 66.5 258.5t181.5 177.5t256 63q98 0 186 -37l-186 224l-127 -88l-56 59l131 90l-141 170h158l82 -102l139 96l55 -59l-145 -101zM602 117q161 0 265 107t104 272 q0 166 -104 272t-265 106t-265 -106t-104 -272q0 -165 104 -272t265 -107z" />
<glyph unicode="&#xf1;" horiz-adv-x="1155" d="M442 1284q-50 0 -82 -47.5t-32 -122.5h-86q0 125 56 203t146 78q40 0 74.5 -19t59 -46.5t47.5 -54.5t52 -46t60 -19q51 0 82 46t31 120h86q0 -123 -55 -198.5t-146 -75.5q-34 0 -64.5 13.5t-51.5 33.5t-43.5 44t-40.5 44t-42.5 33.5t-50.5 13.5zM631 1020q179 0 289 -114 t110 -302v-604h-156v586q0 141 -78 225t-210 84q-134 0 -213.5 -84t-79.5 -225v-586h-158v1004h158v-179q48 93 135.5 144t202.5 51z" />
<glyph unicode="&#xf2;" horiz-adv-x="1206" d="M422 1413l258 -311h-125l-293 311h160zM604 1020q230 0 379.5 -146t149.5 -372t-149.5 -373t-379.5 -147t-380 147t-150 373t150 372t380 146zM604 883q-161 0 -266 -107.5t-105 -273.5q0 -167 105 -275t266 -108q160 0 264.5 108t104.5 275q0 166 -104.5 273.5 t-264.5 107.5z" />
<glyph unicode="&#xf3;" horiz-adv-x="1206" d="M786 1413h160l-293 -311h-125zM604 1020q230 0 379.5 -146t149.5 -372t-149.5 -373t-379.5 -147t-380 147t-150 373t150 372t380 146zM604 883q-161 0 -266 -107.5t-105 -273.5q0 -167 105 -275t266 -108q160 0 264.5 108t104.5 275q0 166 -104.5 273.5t-264.5 107.5z " />
<glyph unicode="&#xf4;" horiz-adv-x="1206" d="M602 1335l-217 -235h-125l258 311h154h12l260 -311h-125zM604 1020q230 0 379.5 -146t149.5 -372t-149.5 -373t-379.5 -147t-380 147t-150 373t150 372t380 146zM604 119q160 0 264.5 108t104.5 275q0 166 -104.5 273.5t-264.5 107.5q-161 0 -266 -107.5t-105 -273.5 q0 -167 105 -275t266 -108z" />
<glyph unicode="&#xf5;" horiz-adv-x="1206" d="M459 1395q40 0 74.5 -19t59 -46.5t47.5 -54.5t52 -46t60 -19q51 0 81.5 46t30.5 120h86q0 -123 -54.5 -198.5t-145.5 -75.5q-34 0 -64.5 13.5t-51.5 33.5t-43.5 44t-40.5 44t-42.5 33.5t-50.5 13.5q-50 0 -82.5 -47.5t-32.5 -122.5h-86q0 125 56 203t147 78zM604 1020 q230 0 379.5 -146t149.5 -372t-149.5 -373t-379.5 -147t-380 147t-150 373t150 372t380 146zM604 883q-161 0 -266 -107.5t-105 -273.5q0 -167 105 -275t266 -108q160 0 264.5 108t104.5 275q0 166 -104.5 273.5t-264.5 107.5z" />
<glyph unicode="&#xf6;" horiz-adv-x="1206" d="M547 1253q0 -35 -24 -57t-62 -22t-63 22t-25 57t25 58.5t63 23.5t62 -23t24 -59zM834 1253q0 -35 -25 -57t-64 -22q-38 0 -62 22t-24 57q0 36 24 59t62 23t63.5 -23.5t25.5 -58.5zM604 1020q230 0 379.5 -146t149.5 -372t-149.5 -373t-379.5 -147t-380 147t-150 373 t150 372t380 146zM604 883q-161 0 -266 -107.5t-105 -273.5q0 -167 105 -275t266 -108q160 0 264.5 108t104.5 275q0 166 -104.5 273.5t-264.5 107.5z" />
<glyph unicode="&#xf7;" horiz-adv-x="983" d="M492 1020q35 0 57 -21t22 -55t-22 -56t-57 -22t-57.5 22t-22.5 56t22.5 55t57.5 21zM98 678h787v-98h-787v98zM492 391q35 0 57 -22t22 -56t-22 -54.5t-57 -20.5t-57.5 20.5t-22.5 54.5t22.5 56t57.5 22z" />
<glyph unicode="&#xf8;" horiz-adv-x="1206" d="M954 899q85 -70 132 -172.5t47 -224.5q0 -226 -149.5 -373t-379.5 -147q-158 0 -289 75l-122 -159h-95l156 204q-86 70 -133 173.5t-47 226.5q0 226 150 372t380 146q162 0 289 -76l121 162h98zM233 502q0 -173 111 -281l461 606q-86 56 -201 56q-161 0 -266 -107.5 t-105 -273.5zM604 119q160 0 264.5 108t104.5 275q0 169 -109 278l-461 -606q86 -55 201 -55z" />
<glyph unicode="&#xf9;" horiz-adv-x="1138" d="M387 1413l258 -311h-125l-293 311h160zM1014 1004v-590q0 -195 -122.5 -313.5t-322.5 -118.5t-322 118.5t-122 313.5v590h158v-590q0 -137 78 -219t208 -82t208.5 82t78.5 219v590h158z" />
<glyph unicode="&#xfa;" horiz-adv-x="1138" d="M752 1413h159l-293 -311h-124zM1014 1004v-590q0 -195 -122.5 -313.5t-322.5 -118.5t-322 118.5t-122 313.5v590h158v-590q0 -137 78 -219t208 -82t208.5 82t78.5 219v590h158z" />
<glyph unicode="&#xfb;" horiz-adv-x="1138" d="M569 1335l-217 -235h-125l258 311h154h12l260 -311h-125zM856 1004h158v-590q0 -195 -122.5 -313.5t-322.5 -118.5t-322 118.5t-122 313.5v590h158v-590q0 -137 78 -219t208 -82t208.5 82t78.5 219v590z" />
<glyph unicode="&#xfc;" horiz-adv-x="1138" d="M514 1253q0 -35 -24 -57t-62 -22t-63 22t-25 57t25 58.5t63 23.5t62 -23t24 -59zM801 1253q0 -35 -25 -57t-63 -22t-62 22t-24 57q0 36 24 59t62 23t63 -23.5t25 -58.5zM1014 1004v-590q0 -195 -122.5 -313.5t-322.5 -118.5t-322 118.5t-122 313.5v590h158v-590 q0 -137 78 -219t208 -82t208.5 82t78.5 219v590h158z" />
<glyph unicode="&#xfd;" horiz-adv-x="1058" d="M872 1413l-292 -311h-125l258 311h159zM874 1004h166l-678 -1405h-165l262 518l-439 887h166l346 -732z" />
<glyph unicode="&#xfe;" d="M694 1020q216 0 357 -146.5t141 -371.5q0 -226 -141.5 -373t-356.5 -147q-127 0 -230.5 53t-170.5 147v-592h-158v1823h158v-594q67 95 170.5 148t230.5 53zM662 119q161 0 264.5 108t103.5 275q0 166 -103.5 273.5t-264.5 107.5q-160 0 -264.5 -107.5t-104.5 -273.5 q0 -167 104.5 -275t264.5 -108z" />
<glyph unicode="&#xff;" horiz-adv-x="1058" d="M387 1174q-38 0 -63 22t-25 57t25 58.5t63 23.5t62 -23t24 -59q0 -35 -24 -57t-62 -22zM672 1174q-38 0 -62 22t-24 57q0 36 24 59t62 23t63 -23.5t25 -58.5t-25 -57t-63 -22zM874 1004h166l-678 -1405h-165l262 518l-439 887h166l346 -732z" />
<glyph unicode="&#x152;" horiz-adv-x="2015" d="M1923 1264h-788v-478h720v-141h-720v-498h788v-147h-938q-83 -18 -172 -18q-157 0 -293 54.5t-232 150.5t-151 231t-55 291q0 207 94 372t261 257t376 92q93 0 168 -17h942v-149zM252 709q0 -249 158.5 -411.5t402.5 -162.5q78 0 154 29v1083q-81 31 -154 31 q-244 0 -402.5 -160.5t-158.5 -408.5z" />
<glyph unicode="&#x153;" horiz-adv-x="2125" d="M2054 502q0 -13 -4 -49h-901q15 -150 120.5 -246t258.5 -96q122 0 220 72.5t132 183.5h160q-41 -168 -185 -276.5t-329 -108.5q-152 0 -273 67t-188 184q-69 -117 -189 -184t-272 -67q-230 0 -380 147t-150 373t150 372t380 146q152 0 272.5 -66.5t188.5 -183.5 q67 117 188 183.5t273 66.5q230 0 378 -146t150 -372zM1528 891q-147 0 -249.5 -88t-125.5 -230h752q-20 140 -125 229t-252 89zM604 119q160 0 264.5 108t104.5 275q0 166 -104.5 273.5t-264.5 107.5q-161 0 -266 -107.5t-105 -273.5q0 -167 105 -275t266 -108z" />
<glyph unicode="&#x178;" horiz-adv-x="1298" d="M508 1583q-38 0 -63 22.5t-25 57.5t25 58.5t63 23.5t62 -23t24 -59q0 -35 -24 -57.5t-62 -22.5zM793 1583q-38 0 -62 22.5t-24 57.5q0 36 24 59t62 23t63 -23.5t25 -58.5t-25 -57.5t-63 -22.5zM1280 1413l-547 -805v-608h-166v604l-549 809h189l442 -665l445 665h186z " />
<glyph unicode="&#x2c6;" horiz-adv-x="684" d="M684 1102h-125l-217 235l-217 -235h-125l260 311h152h14z" />
<glyph unicode="&#x2dc;" horiz-adv-x="694" d="M203 1395q40 0 74.5 -19t59 -46.5t47.5 -54.5t52 -46t60 -19q51 0 81.5 46t30.5 120h86q0 -123 -54.5 -198.5t-145.5 -75.5q-34 0 -64.5 13.5t-51.5 33.5t-43.5 44t-40.5 44t-42.5 33.5t-50.5 13.5q-50 0 -82.5 -47.5t-32.5 -122.5h-86q0 125 56 203t147 78z" />
<glyph unicode="&#x2000;" horiz-adv-x="925" />
<glyph unicode="&#x2001;" horiz-adv-x="1851" />
<glyph unicode="&#x2002;" horiz-adv-x="925" />
<glyph unicode="&#x2003;" horiz-adv-x="1851" />
<glyph unicode="&#x2004;" horiz-adv-x="617" />
<glyph unicode="&#x2005;" horiz-adv-x="462" />
<glyph unicode="&#x2006;" horiz-adv-x="308" />
<glyph unicode="&#x2007;" horiz-adv-x="308" />
<glyph unicode="&#x2008;" horiz-adv-x="231" />
<glyph unicode="&#x2009;" horiz-adv-x="370" />
<glyph unicode="&#x200a;" horiz-adv-x="102" />
<glyph unicode="&#x2010;" horiz-adv-x="921" d="M98 649h725v-119h-725v119z" />
<glyph unicode="&#x2011;" horiz-adv-x="921" d="M98 649h725v-119h-725v119z" />
<glyph unicode="&#x2012;" horiz-adv-x="921" d="M98 649h725v-119h-725v119z" />
<glyph unicode="&#x2013;" horiz-adv-x="1189" d="M98 647h994v-98h-994v98z" />
<glyph unicode="&#x2014;" horiz-adv-x="2181" d="M98 647h1983v-98h-1983v98z" />
<glyph unicode="&#x2018;" horiz-adv-x="366" d="M221 954h-168l156 459h123z" />
<glyph unicode="&#x2019;" horiz-adv-x="366" d="M145 1413h168l-155 -459h-123z" />
<glyph unicode="&#x201a;" horiz-adv-x="366" d="M145 166h168l-155 -459h-123z" />
<glyph unicode="&#x201c;" horiz-adv-x="667" d="M221 954h-168l156 459h123zM522 954h-168l156 459h123z" />
<glyph unicode="&#x201d;" horiz-adv-x="667" d="M145 1413h168l-155 -459h-123zM446 1413h168l-155 -459h-123z" />
<glyph unicode="&#x201e;" horiz-adv-x="667" d="M145 166h168l-155 -459h-123zM446 166h168l-155 -459h-123z" />
<glyph unicode="&#x2022;" horiz-adv-x="696" d="M348 766q105 0 173.5 -67.5t68.5 -170.5q0 -102 -68.5 -168.5t-173.5 -66.5t-173.5 66.5t-68.5 168.5q0 103 68.5 170.5t173.5 67.5z" />
<glyph unicode="&#x2026;" horiz-adv-x="1345" d="M270 211q51 0 84 -31t33 -82q0 -49 -33 -80.5t-84 -31.5q-52 0 -85 31t-33 81q0 51 32.5 82t85.5 31zM672 211q53 0 86 -31t33 -82q0 -49 -33 -80.5t-86 -31.5q-51 0 -84 31.5t-33 80.5q0 51 33 82t84 31zM1075 211q53 0 85 -31t32 -82q0 -50 -32.5 -81t-84.5 -31 q-51 0 -84 31.5t-33 80.5q0 51 33 82t84 31z" />
<glyph unicode="&#x202f;" horiz-adv-x="370" />
<glyph unicode="&#x2039;" horiz-adv-x="606" d="M496 928l-279 -408l279 -405h-138l-280 405l280 408h138z" />
<glyph unicode="&#x203a;" horiz-adv-x="606" d="M246 928l280 -408l-280 -405h-137l280 405l-280 408h137z" />
<glyph unicode="&#x205f;" horiz-adv-x="462" />
<glyph unicode="&#x20ac;" horiz-adv-x="1214" d="M975 868l-29 -98h-878v98h143q51 253 245.5 407.5t469.5 154.5q101 0 196 -25l-43 -150q-77 23 -153 23q-201 0 -346.5 -112.5t-190.5 -297.5h586zM385 551q46 -188 192.5 -302t348.5 -114q93 0 172 31v-166q-80 -18 -172 -18q-276 0 -471.5 157t-245.5 412h-141v98 l839 2l-28 -100h-494z" />
<glyph unicode="&#x2122;" horiz-adv-x="1613" d="M70 1321v92h557v-92h-228v-637h-102v637h-227zM1362 1413h149v-729h-100v594l-240 -594h-104l-240 590v-590h-102v729h152l241 -596z" />
<glyph unicode="&#x25fc;" horiz-adv-x="1003" d="M0 1004h1004v-1004h-1004v1004z" />
<glyph unicode="&#xfb03;" horiz-adv-x="1435" d="M1305 1004v-1004h-158v870h-320v-870h-157v870h-148h-172v-870h-157v870h-148v134h148v165q0 115 78.5 188t203.5 73q30 0 74 -7v-141q-35 14 -72 14q-57 0 -92 -35t-35 -92v-165h199h121v165q0 115 78.5 188t203.5 73q30 0 74 -7v-141q-35 14 -72 14q-57 0 -92 -35 t-35 -92v-165h478zM1225 1169q-46 0 -76.5 28.5t-30.5 72.5q0 43 30.5 70.5t76.5 27.5t76 -27.5t30 -70.5q0 -44 -30 -72.5t-76 -28.5z" />
<glyph unicode="&#xfb04;" horiz-adv-x="1443" d="M1151 1413h156v-1413h-156v870h-324v-870h-157v870h-148h-172v-870h-157v870h-148v134h148v165q0 115 78.5 188t203.5 73q30 0 74 -7v-141q-35 14 -72 14q-57 0 -92 -35t-35 -92v-165h199h121v165q0 115 78.5 188t203.5 73q30 0 74 -7v-141q-35 14 -72 14q-57 0 -92 -35 t-35 -92v-165h324v409z" />
</font>
</defs>
</svg>
