<?xml version="1.0" standalone="no"?>
<!DOCTYPE svg PUBLIC "-//W3C//DTD SVG 1.1//EN" "http://www.w3.org/Graphics/SVG/1.1/DTD/svg11.dtd" >
<svg xmlns="http://www.w3.org/2000/svg">
<metadata></metadata>
<defs>
<font id="publica_sansmedium" horiz-adv-x="1271" >
<font-face units-per-em="2048" ascent="1638" descent="-410" />
<missing-glyph horiz-adv-x="585" />
<glyph unicode="&#xfb01;" horiz-adv-x="1159" d="M903 1145q-72 0 -117 41t-45 106q0 66 45 108t117 42t117 -42t45 -108q0 -65 -45 -106t-117 -41zM1036 1012v-1012h-266v791h-313v-791h-267v791h-141v221h141v100q0 145 106.5 237.5t272.5 92.5q48 0 84 -8v-232q-51 15 -82 15q-50 0 -82 -29t-32 -76v-100h579z" />
<glyph unicode="&#xfb02;" horiz-adv-x="1163" d="M776 1421h268v-1421h-268v791h-319v-791h-267v791h-141v221h141v100q0 145 106.5 237.5t272.5 92.5q48 0 84 -8v-232q-51 15 -82 15q-50 0 -82 -29t-32 -76v-100h319v409z" />
<glyph horiz-adv-x="0" />
<glyph horiz-adv-x="682" />
<glyph unicode=" "  horiz-adv-x="585" />
<glyph unicode="&#x09;" horiz-adv-x="585" />
<glyph unicode="&#xa0;" horiz-adv-x="585" />
<glyph unicode="!" horiz-adv-x="669" d="M166 1421h338l-49 -979h-240zM334 332q81 0 132.5 -49t51.5 -125q0 -77 -51 -125.5t-133 -48.5q-80 0 -132 49t-52 125q0 75 52.5 124.5t131.5 49.5z" />
<glyph unicode="&#x22;" horiz-adv-x="907" d="M127 1421h266l-35 -532h-198zM514 1421h268l-34 -532h-199z" />
<glyph unicode="#" horiz-adv-x="1474" d="M1386 903h-237l-94 -383h331v-135h-364l-94 -385h-160l96 385h-413l-95 -385h-157l94 385h-205v135h238l94 383h-332v135h367l94 383h158l-95 -383h412l94 383h160l-96 -383h204v-135zM897 520l94 383h-411l-95 -383h412z" />
<glyph unicode="$" horiz-adv-x="1284" d="M1212 418q0 -181 -131 -295.5t-350 -136.5v-146h-184v146q-218 23 -347.5 149t-133.5 322h284q2 -108 82 -176t217 -68q121 0 197 53.5t76 141.5q0 49 -28 84t-75.5 55.5t-108.5 36t-129 29.5t-136 31t-129 45t-108.5 67.5t-75.5 103.5t-28 148q0 177 121 290.5 t322 137.5v145h184v-145q197 -25 318.5 -148t124.5 -309h-277q-3 106 -74 168.5t-188 62.5q-106 0 -173 -50t-67 -134q0 -50 28 -85t75 -55.5t108.5 -36t129.5 -29.5t135.5 -30.5t129 -45.5t108.5 -69t75 -105.5t28 -151.5z" />
<glyph unicode="%" horiz-adv-x="1740" d="M438 1440q148 0 245 -97t97 -245q0 -149 -97 -245.5t-245 -96.5q-149 0 -245.5 96.5t-96.5 245.5q0 148 96.5 245t245.5 97zM1214 1421h158l-846 -1421h-159zM438 1286q-77 0 -127.5 -53t-50.5 -135t50.5 -135.5t127.5 -53.5t127.5 53.5t50.5 135.5t-50.5 135t-127.5 53z M1303 666q148 0 245 -97t97 -245q0 -149 -97 -245.5t-245 -96.5q-149 0 -245.5 96.5t-96.5 245.5q0 148 96.5 245t245.5 97zM1303 512q-77 0 -128 -53.5t-51 -134.5q0 -82 51 -135.5t128 -53.5t127.5 53.5t50.5 135.5t-50.5 135t-127.5 53z" />
<glyph unicode="&#x26;" horiz-adv-x="1468" d="M1386 0h-296l-117 127q-192 -145 -426 -145q-213 0 -336 111t-123 286q0 75 21.5 139.5t62.5 115t86.5 88.5t106.5 75q-136 169 -136 323q0 145 98 233.5t269 88.5q175 0 272 -88t97 -215q0 -62 -24 -118.5t-68 -102.5t-90 -80.5t-105 -69.5l334 -360q66 81 108 182h262 q-99 -188 -231 -334zM594 1251q-55 0 -90 -38t-35 -97q0 -88 86 -209q162 111 162 219q0 54 -35 89.5t-88 35.5zM592 199q128 0 246 75l-349 381q-145 -115 -145 -254q0 -89 66 -145.5t182 -56.5z" />
<glyph unicode="'" horiz-adv-x="520" d="M127 1421h266l-35 -532h-198z" />
<glyph unicode="(" horiz-adv-x="636" d="M569 1563q-100 -210 -152 -464t-52 -524q0 -268 52 -521.5t152 -463.5h-155q-147 189 -226 444.5t-79 540.5q0 287 79 543t226 445h155z" />
<glyph unicode=")" horiz-adv-x="622" d="M55 1563h154q147 -189 226 -445t79 -543q0 -285 -79 -540.5t-226 -444.5h-154q203 426 203 985q0 562 -203 988z" />
<glyph unicode="*" horiz-adv-x="1050" d="M942 1098l-303 -60l211 -227l-174 -123l-150 270l-151 -270l-172 123l209 227l-303 60l65 200l283 -129l-37 308h211l-37 -308l283 129z" />
<glyph unicode="+" horiz-adv-x="1056" d="M961 719v-156h-349v-336h-170v336h-346v156h346v336h170v-336h349z" />
<glyph unicode="," horiz-adv-x="589" d="M164 256h289l-187 -522h-205z" />
<glyph unicode="-" horiz-adv-x="987" d="M96 666h795v-197h-795v197z" />
<glyph unicode="." horiz-adv-x="616" d="M307 332q81 0 133 -49.5t52 -124.5q0 -77 -51.5 -125.5t-133.5 -48.5q-80 0 -131 49t-51 125q0 75 51.5 124.5t130.5 49.5z" />
<glyph unicode="/" horiz-adv-x="776" d="M557 1421h199l-543 -1421h-193z" />
<glyph unicode="0" horiz-adv-x="1347" d="M676 1442q272 0 434 -198.5t162 -532.5t-162 -531.5t-434 -197.5q-276 0 -438 197t-162 532t162 533t438 198zM676 1214q-154 0 -241 -133.5t-87 -369.5t87 -369t241 -133q151 0 237 133t86 369t-86 369.5t-237 133.5z" />
<glyph unicode="1" horiz-adv-x="825" d="M444 1421h218v-1421h-269l2 985h-307v176q155 0 255.5 73.5t100.5 186.5z" />
<glyph unicode="2" horiz-adv-x="1198" d="M385 223h735v-223h-1038v25q0 58 9 111.5t22 96t38 84.5t45.5 71t56 62.5t58.5 52.5t64.5 46.5t62 40t62.5 37.5q80 47 134.5 86t103.5 86.5t73.5 99t24.5 107.5q0 94 -63 152.5t-163 58.5t-168.5 -62.5t-74.5 -175.5h-258q9 212 149 337.5t358 125.5q210 0 347 -118.5 t137 -303.5q0 -54 -13 -104.5t-33 -90.5t-53 -80t-64 -69t-76 -62t-79 -54.5t-82 -49.5q-153 -89 -195 -120q-113 -82 -120 -167z" />
<glyph unicode="3" horiz-adv-x="1224" d="M836 741q141 -37 226 -133.5t85 -222.5q0 -171 -151 -287t-380 -116q-157 0 -280.5 57t-195 165.5t-74.5 252.5h266q4 -118 81.5 -186t194.5 -68q115 0 189.5 61t74.5 154q0 97 -85 159t-222 62h-69v180h69q125 0 202 59.5t77 153.5q0 87 -66.5 141t-167.5 54 q-107 0 -176.5 -65t-73.5 -183h-247q7 212 145.5 337.5t359.5 125.5q204 0 341 -107.5t137 -265.5q0 -114 -70.5 -202.5t-189.5 -125.5z" />
<glyph unicode="4" horiz-adv-x="1318" d="M1262 530v-221h-238v-309h-268v309h-680v197l626 915h322v-891h238zM758 1135l-424 -605h422z" />
<glyph unicode="5" horiz-adv-x="1236" d="M672 958q217 0 347 -133.5t130 -345.5q0 -217 -153.5 -357t-389.5 -140q-216 0 -366.5 125t-165.5 325h268q15 -100 88.5 -159.5t175.5 -59.5q116 0 193.5 79.5t77.5 203.5q0 121 -76.5 198.5t-194.5 77.5q-76 0 -141 -39.5t-98 -107.5h-254l116 796h213h635v-221h-661 l-41 -340q116 98 297 98z" />
<glyph unicode="6" horiz-adv-x="1247" d="M713 958q195 0 328 -131.5t133 -332.5q0 -224 -155.5 -368t-395.5 -144q-117 0 -219 38t-174.5 104.5t-114 160.5t-41.5 202q0 156 94 295l434 639h318l-357 -487q68 24 150 24zM623 211q120 0 198 77.5t78 198.5q0 122 -77.5 199.5t-198.5 77.5q-120 0 -197.5 -78 t-77.5 -199t78 -198.5t197 -77.5z" />
<glyph unicode="7" horiz-adv-x="1179" d="M82 1421h1018v-196l-576 -1225h-270l571 1198h-743v223z" />
<glyph unicode="8" horiz-adv-x="1302" d="M930 750q139 -45 216 -136t77 -217q0 -183 -158 -299t-414 -116t-413.5 116t-157.5 299q0 126 76.5 217t214.5 136q-110 45 -171 126.5t-61 188.5q0 168 140.5 272.5t371.5 104.5t371.5 -104.5t140.5 -272.5q0 -107 -61.5 -188.5t-171.5 -126.5zM651 1247 q-120 0 -194 -59t-74 -156q0 -94 74 -152.5t194 -58.5t194.5 58.5t74.5 152.5q0 97 -74.5 156t-194.5 59zM651 186q132 0 214.5 66t82.5 170q0 105 -82.5 170t-214.5 65q-133 0 -216 -65t-83 -170q0 -104 83.5 -170t215.5 -66z" />
<glyph unicode="9" horiz-adv-x="1247" d="M625 1440q156 0 282 -65t196.5 -180.5t70.5 -260.5q0 -155 -95 -295l-434 -639h-317l354 485q-71 -22 -147 -22q-195 0 -328 132t-133 333q0 224 155.5 368t395.5 144zM625 657q120 0 197 78t77 199t-77.5 198.5t-196.5 77.5q-120 0 -198.5 -77.5t-78.5 -198.5 q0 -122 78 -199.5t199 -77.5z" />
<glyph unicode=":" horiz-adv-x="696" d="M348 930q81 0 132.5 -49t51.5 -125q0 -77 -51 -125.5t-133 -48.5q-80 0 -132 49t-52 125q0 75 52.5 124.5t131.5 49.5zM348 332q81 0 132.5 -49t51.5 -125q0 -77 -51 -125.5t-133 -48.5q-80 0 -132 49t-52 125q0 75 52.5 124.5t131.5 49.5z" />
<glyph unicode=";" horiz-adv-x="684" d="M336 930q79 0 131.5 -49.5t52.5 -124.5q0 -76 -52 -125t-132 -49q-82 0 -133 48.5t-51 125.5q0 76 51.5 125t132.5 49zM178 256h289l-186 -522h-205z" />
<glyph unicode="&#x3c;" horiz-adv-x="999" d="M905 1075v-186l-594 -248l594 -246v-188l-809 352v162z" />
<glyph unicode="=" horiz-adv-x="983" d="M96 883h793v-158h-793v158zM96 557h793v-158h-793v158z" />
<glyph unicode="&#x3e;" horiz-adv-x="999" d="M96 1075l809 -354v-162l-809 -352v188l594 246l-594 248v186z" />
<glyph unicode="?" horiz-adv-x="1200" d="M608 1442q221 0 365.5 -116.5t144.5 -295.5q0 -151 -109 -260.5t-284 -140.5l-10 -187h-240l-14 357h51q160 1 246 61.5t86 155.5q0 86 -68.5 144.5t-175.5 58.5q-106 0 -177.5 -56.5t-74.5 -144.5h-266q0 184 148.5 304t377.5 120zM600 332q81 0 132.5 -49t51.5 -125 q0 -77 -51 -125.5t-133 -48.5q-80 0 -131 49t-51 125q0 75 51.5 124.5t130.5 49.5z" />
<glyph unicode="@" horiz-adv-x="2191" d="M1087 1454q217 0 405.5 -71.5t322 -196t210 -301t76.5 -379.5q0 -238 -99 -381t-267 -143q-104 0 -169.5 58t-92.5 150q-68 -98 -176 -153t-234 -55q-213 0 -360.5 149t-147.5 375q0 229 152.5 377.5t388.5 148.5q237 0 390.5 -148.5t153.5 -377.5v-162q0 -80 28 -127 t75 -47q68 0 107.5 90.5t39.5 245.5q0 162 -61 303t-167 241t-255.5 157t-321.5 57q-224 0 -403 -97.5t-280 -271t-101 -389.5t102 -389t282 -270t405 -97q119 0 241.5 30t206.5 77v-219q-91 -36 -211.5 -58t-236.5 -22q-214 0 -399.5 71.5t-317 196t-206.5 301t-75 379.5 q0 204 75 380.5t206.5 301t316 195.5t397.5 71zM1102 213q119 0 196.5 83t77.5 210q0 129 -77.5 212t-196.5 83t-197 -83t-78 -212q0 -127 78 -210t197 -83z" />
<glyph unicode="A" horiz-adv-x="1443" d="M1124 0l-92 264h-618l-95 -264h-305l537 1421h344l537 -1421h-308zM496 500h454l-227 647z" />
<glyph unicode="B" horiz-adv-x="1335" d="M993 735q126 -31 201.5 -127t75.5 -231q0 -168 -110 -272.5t-281 -104.5h-740v1421h676q173 0 283 -100t110 -260q0 -114 -57.5 -200t-157.5 -126zM932 1004q0 75 -49.5 123.5t-126.5 48.5h-332v-349h332q76 0 126 51t50 126zM803 246q76 0 126 50.5t50 127.5 q0 78 -50 129t-126 51h-379v-358h379z" />
<glyph unicode="C" horiz-adv-x="1619" d="M1546 584q-38 -268 -240 -435t-491 -167q-213 0 -383 94t-265 261t-95 376q0 156 55.5 291.5t153.5 231.5t236 151t298 55q289 0 490 -166t241 -434h-293q-36 152 -154 245t-284 93q-198 0 -325.5 -131t-127.5 -334q0 -206 127.5 -339.5t325.5 -133.5q165 0 283.5 94.5 t154.5 247.5h293z" />
<glyph unicode="D" horiz-adv-x="1439" d="M637 1421q212 0 378.5 -89.5t259.5 -251.5t93 -367q0 -206 -93 -369t-260 -253.5t-378 -90.5h-498v1421h498zM633 252q196 0 320 129.5t124 333.5q0 201 -124 328.5t-320 127.5h-209v-919h209z" />
<glyph unicode="E" horiz-adv-x="1228" d="M1137 1171h-713v-333h657v-242h-657v-344h713v-252h-998v1421h998v-250z" />
<glyph unicode="F" horiz-adv-x="1173" d="M1108 1171h-684v-360h629v-240h-629v-571h-285v1421h969v-250z" />
<glyph unicode="G" horiz-adv-x="1624" d="M1550 786q0 -9 1 -34.5t1 -38.5q0 -158 -54.5 -293.5t-151 -232t-234 -151t-297.5 -54.5q-213 0 -383 94t-265 261t-95 376q0 156 55.5 291.5t153.5 231.5t236 151t298 55q176 0 328 -69.5t253 -193t132 -280.5h-297q-44 135 -154 216t-260 81q-198 0 -326.5 -136 t-128.5 -345q0 -211 128.5 -348.5t326.5 -137.5q159 0 275.5 87.5t148.5 228.5h-424v241h733z" />
<glyph unicode="H" horiz-adv-x="1402" d="M981 1421h285v-1421h-285v584h-557v-584h-285v1421h285v-587h557v587z" />
<glyph unicode="I" horiz-adv-x="561" d="M424 1421v-1421h-285v1421h285z" />
<glyph unicode="J" horiz-adv-x="1247" d="M336 1421h797v-927q0 -225 -148.5 -368.5t-380.5 -143.5q-234 0 -383 143.5t-149 368.5v43h284v-52q0 -112 68 -180.5t178 -68.5q111 0 179.5 68.5t68.5 180.5v686h-514v250z" />
<glyph unicode="K" horiz-adv-x="1325" d="M1276 1421l-561 -692l555 -729h-330l-516 692v-692h-285v1421h285v-657l522 657h330z" />
<glyph unicode="L" horiz-adv-x="1112" d="M424 252h657v-252h-942v1421h285v-1169z" />
<glyph unicode="M" horiz-adv-x="1851" d="M1300 1421h412v-1421h-285v1069l-380 -1069h-244l-379 1069v-1069h-285v1421h412l375 -1046z" />
<glyph unicode="N" horiz-adv-x="1474" d="M1051 1421h284v-1421h-362l-549 1038v-1038h-285v1421h363l549 -1038v1038z" />
<glyph unicode="O" horiz-adv-x="1632" d="M815 1442q213 0 383 -93.5t265.5 -260.5t95.5 -375q0 -209 -95.5 -376.5t-265.5 -261t-383 -93.5t-383 94t-265 261t-95 376q0 156 55.5 291.5t153.5 231.5t236 151t298 55zM815 1180q-197 0 -325 -131.5t-128 -333.5q0 -205 128 -339t325 -134q198 0 326.5 133.5 t128.5 339.5q0 202 -128.5 333.5t-326.5 131.5z" />
<glyph unicode="P" horiz-adv-x="1286" d="M758 1421q216 0 351.5 -131.5t135.5 -341.5q0 -209 -136 -341t-351 -132h-334v-475h-285v1421h619zM727 717q102 0 164.5 63.5t62.5 163.5q0 102 -62.5 164.5t-164.5 62.5h-303v-454h303z" />
<glyph unicode="Q" horiz-adv-x="1638" d="M1247 213l346 53v-266h-778q-160 0 -298 54.5t-236 149.5t-153.5 229.5t-55.5 289.5q0 205 95 369.5t265 257t383 92.5q156 0 293 -52t235 -142t154.5 -217.5t56.5 -274.5q0 -178 -82 -321t-225 -222zM815 252q198 0 326.5 131.5t128.5 333.5t-128.5 332.5t-326.5 130.5 q-197 0 -325 -130.5t-128 -332.5t128 -333.5t325 -131.5z" />
<glyph unicode="R" horiz-adv-x="1372" d="M1270 307q8 -247 28 -307h-297q-14 69 -18 270q-3 114 -55 181t-140 67h-364v-518h-285v1421h664q217 0 345 -110t128 -299q0 -130 -61.5 -224.5t-174.5 -140.5q105 -34 164.5 -120t65.5 -220zM772 748q98 0 156.5 58t58.5 155t-58.5 153.5t-156.5 56.5h-348v-423h348z " />
<glyph unicode="S" horiz-adv-x="1284" d="M643 1442q231 0 379.5 -127.5t151.5 -335.5h-277q-3 106 -74 168.5t-188 62.5q-106 0 -173 -50t-67 -134q0 -50 28 -85t75 -55.5t108.5 -36t129.5 -29.5t135.5 -30.5t129 -45.5t108.5 -69t75 -105.5t28 -151.5q0 -200 -160 -318t-417 -118q-253 0 -408.5 130t-160.5 345 h284q2 -108 82 -176t217 -68q121 0 197 53.5t76 141.5q0 49 -28 84t-75.5 55.5t-108.5 36t-129 29.5t-136 31t-129 45t-108.5 67.5t-75.5 103.5t-28 148q0 197 150 315.5t389 118.5z" />
<glyph unicode="T" horiz-adv-x="1169" d="M1143 1421v-250h-416v-1171h-285v1171h-415v250h1116z" />
<glyph unicode="U" horiz-adv-x="1363" d="M1249 1421v-903q0 -238 -158 -387t-409 -149t-409 149t-158 387v903h282v-889q0 -130 78.5 -210t206.5 -80q126 0 204.5 80t78.5 210v889h284z" />
<glyph unicode="V" horiz-adv-x="1421" d="M1104 1421h297l-524 -1421h-332l-527 1421h297l396 -1136z" />
<glyph unicode="W" horiz-adv-x="2045" d="M1724 1421h297l-419 -1421h-287l-293 1020l-293 -1020h-285l-419 1421h297l284 -1032l291 1032h248l291 -1032z" />
<glyph unicode="X" horiz-adv-x="1482" d="M1442 0h-342l-359 535l-360 -535h-340l510 721l-494 700h340l344 -516l342 516h342l-493 -700z" />
<glyph unicode="Y" horiz-adv-x="1404" d="M1393 1421l-545 -843v-578h-285v569l-551 852h322l368 -606l367 606h324z" />
<glyph unicode="Z" horiz-adv-x="1329" d="M424 252h817v-252h-1159v236l811 935h-791v250h1133v-235z" />
<glyph unicode="[" horiz-adv-x="653" d="M616 1368h-241v-1583h241v-195h-479v1973h479v-195z" />
<glyph unicode="\" horiz-adv-x="776" d="M219 1421l537 -1421h-193l-543 1421h199z" />
<glyph unicode="]" horiz-adv-x="653" d="M37 1563h479v-1973h-479v195h242v1583h-242v195z" />
<glyph unicode="^" horiz-adv-x="692" d="M598 1038h-145l-107 250l-106 -250h-144l187 383h129z" />
<glyph unicode="_" horiz-adv-x="1177" d="M109 -166h960v-160h-960v160z" />
<glyph unicode="`" horiz-adv-x="542" d="M307 1421l236 -311h-207l-299 311h270z" />
<glyph unicode="a" d="M883 1012h268v-1012h-268v164q-62 -87 -154 -134.5t-203 -47.5q-200 0 -330 148t-130 376q0 229 130 377.5t330 148.5q111 0 202.5 -48t154.5 -134v162zM612 213q118 0 194.5 82.5t76.5 210.5q0 129 -76 212t-195 83t-195.5 -83t-76.5 -212q0 -128 77 -210.5t195 -82.5z " />
<glyph unicode="b" d="M745 1032q200 0 329.5 -148.5t129.5 -377.5t-129.5 -376.5t-329.5 -147.5q-111 0 -203.5 47.5t-154.5 134.5v-164h-266v1421h266v-571q63 86 155 134t203 48zM662 213q117 0 193.5 83t76.5 210q0 129 -76.5 212t-193.5 83q-120 0 -197.5 -83t-77.5 -212 q0 -128 77.5 -210.5t197.5 -82.5z" />
<glyph unicode="c" horiz-adv-x="1206" d="M1145 426q-20 -194 -170.5 -319t-362.5 -125q-238 0 -392 147.5t-154 376.5t154 377.5t392 148.5q212 0 362.5 -125.5t170.5 -320.5h-271q-21 94 -93 154.5t-167 60.5q-120 0 -197 -83t-77 -212q0 -128 77 -210.5t197 -82.5q97 0 170 60t93 153h268z" />
<glyph unicode="d" d="M883 1421h268v-1421h-268v164q-62 -87 -154 -134.5t-203 -47.5q-200 0 -330 148t-130 376q0 229 130 377.5t330 148.5q111 0 202.5 -48t154.5 -134v571zM612 213q118 0 194.5 82.5t76.5 210.5q0 129 -76 212t-195 83t-195.5 -83t-76.5 -212q0 -128 77 -210.5t195 -82.5z " />
<glyph unicode="e" horiz-adv-x="1222" d="M1157 504q0 -47 -8 -80h-817q25 -101 102 -163t180 -62q88 0 158 45.5t98 115.5h269q-43 -166 -191 -272t-336 -106q-238 0 -392 147.5t-154 376.5t154 377.5t392 148.5q236 0 389.5 -149t155.5 -379zM614 815q-94 0 -166.5 -51t-105.5 -137h555q-31 84 -108.5 136 t-174.5 52z" />
<glyph unicode="f" horiz-adv-x="694" d="M571 1217q-50 0 -82 -29t-32 -76v-100h196v-221h-196v-791h-267v791h-141v221h141v100q0 145 106.5 237.5t272.5 92.5q48 0 84 -8v-232q-51 15 -82 15z" />
<glyph unicode="g" d="M883 1012h268v-944q0 -215 -148.5 -355.5t-377.5 -140.5q-195 0 -339 106.5t-173 270.5h249q22 -72 92.5 -118t159.5 -46q117 0 193 75t76 191v160q-62 -83 -154 -127.5t-203 -44.5q-200 0 -330 140.5t-130 357.5q0 215 130 355t330 140q110 0 202 -45.5t155 -126.5v152z M612 244q119 0 195 82t76 209q0 128 -76.5 210t-194.5 82q-119 0 -195.5 -82.5t-76.5 -209.5t76.5 -209t195.5 -82z" />
<glyph unicode="h" horiz-adv-x="1187" d="M702 1032q167 0 272 -111t105 -288v-633h-268v594q0 101 -57.5 163t-151.5 62q-97 0 -156 -62t-59 -163v-594h-266v1421h266v-567q50 85 131 131.5t184 46.5z" />
<glyph unicode="i" horiz-adv-x="514" d="M420 1292q0 -65 -46 -106t-118 -41q-71 0 -116.5 41.5t-45.5 105.5q0 66 45.5 108t116.5 42q72 0 118 -42t46 -108zM123 1012h268v-1012h-268v1012z" />
<glyph unicode="j" horiz-adv-x="514" d="M420 1292q0 -65 -46 -106t-118 -41q-71 0 -116.5 41.5t-45.5 105.5q0 66 45.5 108t116.5 42q72 0 118 -42t46 -108zM391 1012v-1422h-268v1422h268z" />
<glyph unicode="k" horiz-adv-x="1114" d="M1079 1012l-426 -482l426 -530h-315l-377 485v-485h-266v1421h266v-850l377 441h315z" />
<glyph unicode="l" horiz-adv-x="507" d="M121 1421h266v-1421h-266v1421z" />
<glyph unicode="m" horiz-adv-x="1744" d="M1294 1032q154 0 248 -100.5t94 -263.5v-668h-268v629q0 88 -47.5 139t-130.5 51q-82 0 -130 -51t-48 -139v-629h-269v629q0 88 -47 139t-129 51q-83 0 -131.5 -51t-48.5 -139v-629h-266v1012h266v-162q42 87 118.5 134.5t178.5 47.5q104 0 181 -51.5t114 -142.5 q42 90 124.5 142t190.5 52z" />
<glyph unicode="n" horiz-adv-x="1193" d="M709 1032q166 0 269 -111t103 -288v-633h-266v594q0 101 -58 163t-153 62t-154 -62t-59 -163v-594h-268v1012h268v-152q50 81 133.5 126.5t184.5 45.5z" />
<glyph unicode="o" horiz-adv-x="1222" d="M612 1032q236 0 390.5 -148.5t154.5 -377.5q0 -228 -154 -376t-391 -148q-238 0 -392 147.5t-154 376.5t154 377.5t392 148.5zM610 801q-118 0 -194 -83t-76 -212q0 -128 76 -210.5t194 -82.5q120 0 196.5 82.5t76.5 210.5q0 129 -76.5 212t-196.5 83z" />
<glyph unicode="p" d="M745 1032q200 0 329.5 -148.5t129.5 -377.5t-129.5 -376.5t-329.5 -147.5q-111 0 -203.5 47.5t-154.5 134.5v-574h-266v1422h266v-162q63 86 155 134t203 48zM662 213q117 0 193.5 83t76.5 210q0 129 -76.5 212t-193.5 83q-120 0 -197.5 -83t-77.5 -212 q0 -128 77.5 -210.5t197.5 -82.5z" />
<glyph unicode="q" d="M883 1012h268v-1422h-268v574q-62 -87 -154 -134.5t-203 -47.5q-200 0 -330 148t-130 376q0 229 130 377.5t330 148.5q111 0 202.5 -48t154.5 -134v162zM612 213q118 0 194.5 82.5t76.5 210.5q0 129 -76 212t-195 83t-195.5 -83t-76.5 -212q0 -128 77 -210.5t195 -82.5z " />
<glyph unicode="r" horiz-adv-x="774" d="M387 786q53 123 147.5 190.5t219.5 67.5v-266q-167 0 -267 -78.5t-100 -212.5v-487h-266v1012h266v-226z" />
<glyph unicode="s" horiz-adv-x="1044" d="M516 1032q184 0 301 -90t117 -231h-244q-5 60 -52 97.5t-120 37.5q-68 0 -110.5 -31t-42.5 -80q0 -23 12.5 -42t31 -31.5t53.5 -25t65 -20t81 -18.5q37 -8 66.5 -15.5t68 -21t68 -29t60 -39t50 -51t32 -65t12.5 -80.5q0 -139 -122.5 -227t-314.5 -88q-197 0 -321.5 91 t-124.5 236h258q5 -62 56 -99.5t130 -37.5q73 0 120.5 33t47.5 84q0 29 -14.5 50t-57.5 37.5t-67 23t-95 22.5q-23 5 -34 8q-324 76 -324 293q0 137 115 223t299 86z" />
<glyph unicode="t" horiz-adv-x="755" d="M721 1012v-221h-225v-791h-269v791h-188v221h188v264h269v-264h225z" />
<glyph unicode="u" horiz-adv-x="1175" d="M1065 1012v-592q0 -194 -132 -316t-343 -122q-212 0 -345.5 122t-133.5 316v592h266v-592q0 -98 58 -158.5t153 -60.5t153 60.5t58 158.5v592h266z" />
<glyph unicode="v" horiz-adv-x="1128" d="M827 1012h285l-389 -1012h-317l-390 1012h285l262 -748z" />
<glyph unicode="w" horiz-adv-x="1705" d="M1409 1012h277l-302 -1012h-340l-192 637l-193 -637h-340l-299 1012h277l215 -795l219 795h242l221 -795z" />
<glyph unicode="x" horiz-adv-x="1212" d="M1178 0h-308l-264 365l-262 -365h-309l381 510l-375 502h309l258 -355l256 355h307l-372 -500z" />
<glyph unicode="y" horiz-adv-x="1157" d="M860 1012h279l-662 -1418h-278l260 515l-443 903h285l283 -637z" />
<glyph unicode="z" horiz-adv-x="1097" d="M422 223h598v-223h-944v199l592 592h-586v221h934v-199z" />
<glyph unicode="{" horiz-adv-x="641" d="M426 743q0 -117 -113 -165q113 -45 113 -164v-494q0 -75 39 -122.5t110 -47.5v-178q-102 0 -178.5 26.5t-121 74.5t-66 109.5t-21.5 137.5v494q0 40 -20 56.5t-72 16.5v183q52 0 72 16t20 57v486q0 76 21.5 137.5t66 109.5t121 74.5t178.5 26.5v-180q-71 0 -110 -46.5 t-39 -121.5v-486z" />
<glyph unicode="|" horiz-adv-x="526" d="M164 1638h198v-2048h-198v2048z" />
<glyph unicode="}" horiz-adv-x="641" d="M451 743q0 -41 20.5 -57t73.5 -16v-183q-52 0 -73 -16.5t-21 -56.5v-494q0 -159 -93.5 -253.5t-294.5 -94.5v178q72 0 111 47.5t39 122.5v494q0 119 113 164q-113 45 -113 165v486q0 75 -38.5 121.5t-111.5 46.5v180q103 0 179.5 -26.5t121 -75t66 -109.5t21.5 -137v-486 z" />
<glyph unicode="~" horiz-adv-x="983" d="M96 729q115 39 219 39q77 0 177 -28.5t178 -28.5q100 0 219 39v-197q-119 -39 -221 -39q-77 0 -176.5 28.5t-176.5 28.5q-104 0 -219 -39v197z" />
<glyph unicode="&#xa1;" horiz-adv-x="669" d="M336 682q-81 0 -132.5 49t-51.5 125q0 77 51 125.5t133 48.5q80 0 132 -49t52 -125q0 -75 -52.5 -124.5t-131.5 -49.5zM504 -408h-340l49 981h242z" />
<glyph unicode="&#xa2;" horiz-adv-x="1206" d="M614 213q97 0 170 60t93 153h268q-19 -171 -139.5 -290.5t-298.5 -147.5v-148h-185v148q-203 28 -329.5 170.5t-126.5 347.5t126.5 348t329.5 172v145h185v-147q178 -26 298.5 -146.5t139.5 -291.5h-271q-21 94 -93 154.5t-167 60.5q-120 0 -197 -83t-77 -212 q0 -128 77 -210.5t197 -82.5z" />
<glyph unicode="&#xa3;" horiz-adv-x="1263" d="M422 252h747v-252h-1081v274q55 0 89 31.5t34 83.5v168h-123v199h123q4 196 96.5 353t254.5 245t364 88q89 0 176 -19v-280q-82 37 -176 37q-119 0 -216 -54.5t-154 -151.5t-60 -218h422v-199h-422v-133q0 -104 -74 -172z" />
<glyph unicode="&#xa4;" horiz-adv-x="978" d="M897 623q0 -143 -84 -248l100 -101l-73 -73l-103 104q-107 -74 -248 -74q-144 0 -245 72l-103 -102l-73 73l98 99q-84 108 -84 250q0 144 84 249l-98 101l73 71l101 -100q109 72 247 72q140 0 246 -72l105 103l73 -72l-100 -103q84 -105 84 -249zM489 401 q95 0 157.5 63.5t62.5 158.5q0 97 -62.5 160t-157.5 63q-97 0 -159 -63t-62 -160q0 -96 62.5 -159t158.5 -63z" />
<glyph unicode="&#xa5;" horiz-adv-x="1447" d="M1413 1421l-469 -723h254v-157h-948v157h254l-469 723h321l367 -606l369 606h321zM250 295v158h948v-158h-332v-295h-284v295h-332z" />
<glyph unicode="&#xa6;" horiz-adv-x="526" d="M164 877v761h198v-761h-198zM164 -410v762h198v-762h-198z" />
<glyph unicode="&#xa7;" horiz-adv-x="1333" d="M1243 418q0 -145 -90 -252q41 -74 41 -172q0 -187 -151 -304.5t-388 -117.5q-224 0 -371.5 118.5t-154.5 305.5h279q4 -84 72.5 -135t176.5 -51q110 0 178 50.5t68 135.5q0 49 -28 83.5t-75 55t-108.5 35.5t-129.5 28.5t-135.5 30t-129 45t-108.5 67.5t-75 103t-28 148 q0 149 90 256q-41 68 -41 170q0 188 151 306t388 118q224 0 371 -119t155 -305h-278q-6 84 -74.5 135t-175.5 51q-110 0 -178 -51t-68 -135q0 -49 28 -84t75 -55.5t108.5 -35.5t129.5 -29t135.5 -31t129 -45.5t108.5 -68t75 -103.5t28 -148zM338 592q0 -48 29.5 -83t76 -54 t113.5 -36t131.5 -28t141.5 -30t133 -42q28 48 28 99q0 58 -39 96t-109 59t-145 35t-170 35.5t-161 48.5q-29 -50 -29 -100z" />
<glyph unicode="&#xa8;" horiz-adv-x="620" d="M256 1290q0 -51 -36 -83.5t-93 -32.5q-56 0 -91.5 32.5t-35.5 83.5t35.5 83t91.5 32q57 0 93 -32t36 -83zM621 1290q0 -51 -35 -83.5t-92 -32.5q-56 0 -92.5 32.5t-36.5 83.5t36.5 83t92.5 32q57 0 92 -32t35 -83z" />
<glyph unicode="&#xa9;" horiz-adv-x="1665" d="M834 1442q159 0 297 -55t236 -151t154 -231.5t56 -291.5q0 -157 -56 -293t-154 -232t-236 -151t-297 -55q-213 0 -383.5 93.5t-266.5 261t-96 376.5q0 208 96 375t266.5 260.5t383.5 93.5zM834 1309q-264 0 -435.5 -168t-171.5 -426q0 -262 171.5 -432t435.5 -170 q173 0 311 77t215.5 214.5t77.5 310.5q0 258 -171 426t-433 168zM1245 651q-15 -149 -129.5 -245.5t-277.5 -96.5q-182 0 -300 113.5t-118 290.5q0 175 118 288t300 113q163 0 277.5 -96.5t129.5 -245.5h-207q-14 72 -68.5 118t-129.5 46q-92 0 -151.5 -63t-59.5 -160 q0 -98 59.5 -162t151.5 -64q75 0 130 46t70 118h205z" />
<glyph unicode="&#xaa;" horiz-adv-x="899" d="M618 1427h177v-653h-177v105q-87 -117 -235 -117q-132 0 -218.5 95.5t-86.5 244.5t86.5 244.5t218.5 95.5q148 0 235 -117v102zM449 920q73 0 121 52t48 130q0 79 -47.5 129.5t-121.5 50.5q-76 0 -125.5 -50.5t-49.5 -129.5q0 -78 50 -130t125 -52z" />
<glyph unicode="&#xab;" horiz-adv-x="1105" d="M584 918l-271 -396l271 -397h-228l-270 397l270 396h228zM991 918l-270 -396l270 -397h-227l-270 397l270 396h227z" />
<glyph unicode="&#xac;" horiz-adv-x="1073" d="M96 850h856v-471h-170v313h-686v158z" />
<glyph unicode="&#xad;" horiz-adv-x="987" d="M96 666h795v-197h-795v197z" />
<glyph unicode="&#xae;" horiz-adv-x="1665" d="M834 1442q159 0 297 -55t236 -151t154 -231.5t56 -291.5q0 -157 -56 -293t-154 -232t-236 -151t-297 -55q-213 0 -383.5 93.5t-266.5 261t-96 376.5q0 208 96 375t266.5 260.5t383.5 93.5zM834 113q173 0 311 77t215.5 214.5t77.5 310.5q0 258 -171 426t-433 168 q-264 0 -435.5 -168t-171.5 -426q0 -262 171.5 -432t435.5 -170zM1161 860q0 -85 -45.5 -145t-124.5 -82l187 -303h-181l-174 293h-133v-293h-155v766h376q111 0 180.5 -65.5t69.5 -170.5zM690 954v-209h184q47 0 77 29t30 76t-29.5 75.5t-77.5 28.5h-184z" />
<glyph unicode="&#xaf;" horiz-adv-x="612" d="M0 1337h612v-170h-612v170z" />
<glyph unicode="&#xb0;" horiz-adv-x="714" d="M358 1432q114 0 188.5 -72t74.5 -182t-74.5 -183t-188.5 -73t-188 72.5t-74 183.5q0 110 74 182t188 72zM358 1335q-71 0 -117 -44t-46 -113t46.5 -114.5t116.5 -45.5q69 0 115.5 45.5t46.5 114.5t-46 113t-116 44z" />
<glyph unicode="&#xb1;" horiz-adv-x="1030" d="M600 719h320v-156h-320v-190h-170v190h-321v156h321v336h170v-336zM109 141v158h811v-158h-811z" />
<glyph unicode="&#xb2;" horiz-adv-x="899" d="M336 1075h502v-190h-770v18q0 75 20 138t46 103.5t71.5 79t75.5 57t79 44.5q115 62 176.5 120t61.5 124q0 51 -39.5 85t-99.5 34q-62 0 -105.5 -38t-46.5 -104h-221q6 151 111 241.5t268 90.5q156 0 257 -83t101 -214q0 -215 -284 -364q-11 -6 -38 -20t-39 -20.5 t-33.5 -19t-32.5 -20.5t-25 -19t-22 -21.5t-13 -21.5z" />
<glyph unicode="&#xb3;" horiz-adv-x="933" d="M655 1393q96 -25 154.5 -90.5t58.5 -149.5q0 -118 -111 -199.5t-280 -81.5q-176 0 -290 91t-117 243h229q3 -68 51 -106.5t121 -38.5q70 0 117 34.5t47 84.5q0 57 -54.5 92t-142.5 35h-57v153h55q81 0 130.5 34.5t49.5 90.5q0 51 -39.5 81t-103.5 30q-67 0 -111 -39.5 t-47 -110.5h-211q6 153 108.5 242.5t266.5 89.5q152 0 253.5 -75t101.5 -187q0 -74 -49 -134.5t-130 -88.5z" />
<glyph unicode="&#xb4;" horiz-adv-x="503" d="M236 1421h268l-299 -311h-205z" />
<glyph unicode="&#xb6;" horiz-adv-x="1259" d="M575 1421h527v-1626h-172v1469h-119v-1469h-172v731h-64q-210 0 -343.5 126.5t-133.5 326.5q0 195 133.5 318.5t343.5 123.5z" />
<glyph unicode="&#xb7;" horiz-adv-x="530" d="M266 834q79 0 132 -50t53 -125q0 -76 -52.5 -125t-132.5 -49q-82 0 -133 48.5t-51 125.5q0 76 51.5 125.5t132.5 49.5z" />
<glyph unicode="&#xb8;" horiz-adv-x="243" d="M61 -66q82 0 132.5 -45.5t50.5 -119.5q0 -73 -50.5 -118.5t-132.5 -45.5q-29 0 -61 8v96q18 -6 37 -6q34 0 55 18.5t21 47.5t-21 47t-55 18q-13 0 -37 -4v96q32 8 61 8z" />
<glyph unicode="&#xb9;" horiz-adv-x="641" d="M324 1866h186v-981h-229v665h-220v133q115 0 189 51.5t74 131.5z" />
<glyph unicode="&#xba;" horiz-adv-x="860" d="M432 1442q152 0 251 -96t99 -244q0 -149 -98.5 -244.5t-251.5 -95.5q-155 0 -254.5 95.5t-99.5 244.5q0 148 99.5 244t254.5 96zM432 1278q-71 0 -116.5 -50t-45.5 -128q0 -76 45.5 -125t116.5 -49q68 0 114 49t46 125q0 77 -46 127.5t-114 50.5z" />
<glyph unicode="&#xbb;" horiz-adv-x="1105" d="M344 918l270 -396l-270 -397h-227l270 397l-270 396h227zM752 918l270 -396l-270 -397h-228l271 397l-271 396h228z" />
<glyph unicode="&#xbc;" horiz-adv-x="2060" d="M1294 1434h181l-871 -1434h-172zM510 442h-229v666h-220v133q115 0 189 51t74 131h186v-981zM2044 381v-170h-168v-211h-225l-2 211h-478v158l433 612h272v-600h168zM1653 788l-297 -407h293z" />
<glyph unicode="&#xbd;" horiz-adv-x="2097" d="M1294 1434h181l-871 -1434h-172zM510 442h-229v666h-220v133q115 0 189 51t74 131h186v-981zM1534 190h502v-190h-770v18q0 75 20 138t46.5 103.5t72 79t75.5 57t79 44.5q114 62 175.5 120t61.5 124q0 51 -39.5 85t-99.5 34q-62 0 -105.5 -37.5t-46.5 -103.5h-221 q6 151 111 241t268 90q156 0 257 -83t101 -214q0 -215 -284 -364q-11 -6 -38 -20t-39 -20.5t-33.5 -19t-32.5 -20.5t-25 -19t-22 -21.5t-13 -21.5z" />
<glyph unicode="&#xbe;" horiz-adv-x="2326" d="M868 711q0 -118 -111 -199.5t-280 -81.5q-176 0 -290 91t-117 243h229q3 -69 51 -107.5t121 -38.5q70 0 117 34.5t47 84.5q0 57 -54.5 92t-142.5 35h-57v154h55q81 0 130.5 34.5t49.5 90.5q0 50 -39.5 80t-103.5 30q-67 0 -111 -39t-47 -110h-211q6 153 108.5 242.5 t266.5 89.5q152 0 253.5 -75t101.5 -187q0 -74 -49.5 -135t-129.5 -89q96 -25 154.5 -90t58.5 -149zM1561 1434h180l-871 -1434h-172zM2312 381v-170h-168v-211h-225l-2 211h-477v158l432 612h272v-600h168zM1921 788l-297 -407h293z" />
<glyph unicode="&#xbf;" horiz-adv-x="1167" d="M584 680q-81 0 -133 49.5t-52 124.5q0 77 51.5 125.5t133.5 48.5q80 0 131 -49t51 -125q0 -75 -51.5 -124.5t-130.5 -49.5zM836 -4h266q0 -186 -149 -305t-378 -119q-221 0 -365 116.5t-144 293.5q0 152 108.5 261t284.5 142l10 186h240l14 -358h-51q-160 0 -246 -60 t-86 -155q0 -87 68.5 -146t175.5 -59q106 0 177.5 57.5t74.5 145.5z" />
<glyph unicode="&#xc0;" horiz-adv-x="1443" d="M850 1522h-205l-299 311h268zM1124 0l-92 264h-618l-95 -264h-305l537 1421h344l537 -1421h-308zM496 500h454l-227 647z" />
<glyph unicode="&#xc1;" horiz-adv-x="1443" d="M1100 1833l-299 -311h-205l235 311h269zM1124 0l-92 264h-618l-95 -264h-305l537 1421h344l537 -1421h-308zM496 500h454l-227 647z" />
<glyph unicode="&#xc2;" horiz-adv-x="1443" d="M723 1710l-174 -186h-205l238 311h258h26l236 -311h-205zM1124 0l-92 264h-618l-95 -264h-305l537 1421h344l537 -1421h-308zM496 500h454l-227 647z" />
<glyph unicode="&#xc3;" horiz-adv-x="1443" d="M592 1657q-35 0 -56.5 -33t-21.5 -88h-139q0 135 58.5 217t156.5 82q44 0 83.5 -21t63.5 -45.5t55 -45.5t60 -21q37 0 57.5 31.5t20.5 85.5h139q0 -134 -59 -215.5t-158 -81.5q-44 0 -84 21t-64.5 46.5t-54.5 46.5t-57 21zM1124 0l-92 264h-618l-95 -264h-305l537 1421 h344l537 -1421h-308zM496 500h454l-227 647z" />
<glyph unicode="&#xc4;" horiz-adv-x="1443" d="M539 1585q-55 0 -91 33t-36 84t35.5 83t91.5 32q57 0 93 -32t36 -83t-36 -84t-93 -33zM905 1585q-56 0 -92.5 33t-36.5 84t36.5 83t92.5 32q57 0 92 -32t35 -83t-35 -84t-92 -33zM1124 0l-92 264h-618l-95 -264h-305l537 1421h344l537 -1421h-308zM496 500h454l-227 647z " />
<glyph unicode="&#xc5;" horiz-adv-x="1443" d="M1124 0l-92 264h-618l-95 -264h-305l529 1401q-88 72 -88 196q0 115 77 189t197 74q121 0 198 -73.5t77 -189.5q0 -129 -97 -206l525 -1391h-308zM729 1712q-49 0 -82 -33t-33 -82q0 -47 33 -79.5t82 -32.5t82 32.5t33 79.5q0 49 -33 82t-82 33zM496 500h454l-227 647z " />
<glyph unicode="&#xc6;" horiz-adv-x="1902" d="M1808 1171h-819l127 -333h637v-242h-547l129 -344h473v-252h-614h-70l-92 264h-618l-95 -264h-305l537 1421h344h913v-250zM496 500h454l-227 647z" />
<glyph unicode="&#xc7;" horiz-adv-x="1619" d="M1546 584q-38 -268 -240 -435t-491 -167q-213 0 -383 94t-265 261t-95 376q0 156 55.5 291.5t153.5 231.5t236 151t298 55q289 0 490 -166t241 -434h-293q-36 152 -154 245t-284 93q-198 0 -325.5 -131t-127.5 -334q0 -206 127.5 -339.5t325.5 -133.5q165 0 283.5 94.5 t154.5 247.5h293zM788 -68q82 0 132.5 -45.5t50.5 -119.5q0 -73 -50.5 -118.5t-132.5 -45.5q-29 0 -61 8v96q18 -6 37 -6q34 0 55 18.5t21 47.5t-21 47t-55 18q-13 0 -37 -4v96q32 8 61 8z" />
<glyph unicode="&#xc8;" horiz-adv-x="1228" d="M770 1522h-205l-299 311h269zM1137 1171h-713v-333h657v-242h-657v-344h713v-252h-998v1421h998v-250z" />
<glyph unicode="&#xc9;" horiz-adv-x="1228" d="M1020 1833l-299 -311h-205l236 311h268zM1137 1171h-713v-333h657v-242h-657v-344h713v-252h-998v1421h998v-250z" />
<glyph unicode="&#xca;" horiz-adv-x="1228" d="M643 1710l-174 -186h-205l238 311h258h26l236 -311h-205zM1137 1171h-713v-333h657v-242h-657v-344h713v-252h-998v1421h998v-250z" />
<glyph unicode="&#xcb;" horiz-adv-x="1228" d="M459 1585q-55 0 -91 33t-36 84t35.5 83t91.5 32q57 0 93 -32t36 -83t-36 -84t-93 -33zM825 1585q-56 0 -92.5 33t-36.5 84t36.5 83t92.5 32q57 0 92 -32t35 -83t-35 -84t-92 -33zM1137 1171h-713v-333h657v-242h-657v-344h713v-252h-998v1421h998v-250z" />
<glyph unicode="&#xcc;" horiz-adv-x="561" d="M172 1833l236 -311h-205l-299 311h268zM424 1421v-1421h-285v1421h285z" />
<glyph unicode="&#xcd;" horiz-adv-x="561" d="M389 1833h268l-299 -311h-204zM424 1421v-1421h-285v1421h285z" />
<glyph unicode="&#xce;" horiz-adv-x="561" d="M424 1835l235 -311h-204l-174 186l-175 -186h-204l237 311h258h27zM139 0v1421h285v-1421h-285z" />
<glyph unicode="&#xcf;" horiz-adv-x="561" d="M227 1702q0 -51 -36 -84t-93 -33q-55 0 -91 33t-36 84t35.5 83t91.5 32q57 0 93 -32t36 -83zM592 1702q0 -51 -35 -84t-92 -33q-56 0 -92.5 33t-36.5 84t36.5 83t92.5 32q57 0 92 -32t35 -83zM424 1421v-1421h-285v1421h285z" />
<glyph unicode="&#xd0;" horiz-adv-x="1439" d="M637 1421q212 0 378.5 -89.5t259.5 -251.5t93 -367q0 -206 -93 -369t-260 -253.5t-378 -90.5h-498v629h-125v168h125v624h498zM633 252q196 0 320 129.5t124 333.5q0 201 -124 328.5t-320 127.5h-209v-374h203v-168h-203v-377h209z" />
<glyph unicode="&#xd1;" horiz-adv-x="1474" d="M608 1657q-35 0 -56.5 -33t-21.5 -88h-139q0 135 58.5 217t156.5 82q44 0 83.5 -21t63.5 -45.5t55 -45.5t60 -21q37 0 57.5 31.5t20.5 85.5h139q0 -134 -59 -215.5t-158 -81.5q-44 0 -84 21t-64.5 46.5t-54.5 46.5t-57 21zM1051 1421h284v-1421h-362l-549 1038v-1038 h-285v1421h363l549 -1038v1038z" />
<glyph unicode="&#xd2;" horiz-adv-x="1632" d="M707 1833l235 -311h-205l-299 311h269zM815 1442q213 0 383 -93.5t265.5 -260.5t95.5 -375q0 -209 -95.5 -376.5t-265.5 -261t-383 -93.5t-383 94t-265 261t-95 376q0 156 55.5 291.5t153.5 231.5t236 151t298 55zM815 1180q-197 0 -325 -131.5t-128 -333.5 q0 -205 128 -339t325 -134q198 0 326.5 133.5t128.5 339.5q0 202 -128.5 333.5t-326.5 131.5z" />
<glyph unicode="&#xd3;" horiz-adv-x="1632" d="M924 1833h268l-299 -311h-205zM815 1442q213 0 383 -93.5t265.5 -260.5t95.5 -375q0 -209 -95.5 -376.5t-265.5 -261t-383 -93.5t-383 94t-265 261t-95 376q0 156 55.5 291.5t153.5 231.5t236 151t298 55zM815 1180q-197 0 -325 -131.5t-128 -333.5q0 -205 128 -339 t325 -134q198 0 326.5 133.5t128.5 339.5q0 202 -128.5 333.5t-326.5 131.5z" />
<glyph unicode="&#xd4;" horiz-adv-x="1632" d="M815 1710l-174 -186h-205l238 311h258h26l236 -311h-205zM815 1442q213 0 383 -93.5t265.5 -260.5t95.5 -375q0 -209 -95.5 -376.5t-265.5 -261t-383 -93.5t-383 94t-265 261t-95 376q0 156 55.5 291.5t153.5 231.5t236 151t298 55zM815 242q198 0 326.5 133.5 t128.5 339.5q0 202 -128.5 333.5t-326.5 131.5q-197 0 -325 -131.5t-128 -333.5q0 -205 128 -339t325 -134z" />
<glyph unicode="&#xd5;" horiz-adv-x="1632" d="M684 1835q44 0 83.5 -21t63.5 -45.5t55 -45.5t60 -21q37 0 57.5 31.5t20.5 85.5h139q0 -134 -59 -215.5t-158 -81.5q-44 0 -84 21t-64.5 46.5t-54.5 46.5t-57 21q-35 0 -56.5 -33t-21.5 -88h-139q0 135 58.5 217t156.5 82zM815 1442q213 0 383 -93.5t265.5 -260.5 t95.5 -375q0 -209 -95.5 -376.5t-265.5 -261t-383 -93.5t-383 94t-265 261t-95 376q0 156 55.5 291.5t153.5 231.5t236 151t298 55zM815 1180q-197 0 -325 -131.5t-128 -333.5q0 -205 128 -339t325 -134q198 0 326.5 133.5t128.5 339.5q0 202 -128.5 333.5t-326.5 131.5z " />
<glyph unicode="&#xd6;" horiz-adv-x="1632" d="M762 1702q0 -51 -36 -84t-93 -33q-55 0 -91 33t-36 84t35.5 83t91.5 32q57 0 93 -32t36 -83zM1126 1702q0 -51 -35 -84t-92 -33q-56 0 -92.5 33t-36.5 84t36.5 83t92.5 32q57 0 92 -32t35 -83zM815 1442q213 0 383 -93.5t265.5 -260.5t95.5 -375q0 -209 -95.5 -376.5 t-265.5 -261t-383 -93.5t-383 94t-265 261t-95 376q0 156 55.5 291.5t153.5 231.5t236 151t298 55zM815 1180q-197 0 -325 -131.5t-128 -333.5q0 -205 128 -339t325 -134q198 0 326.5 133.5t128.5 339.5q0 202 -128.5 333.5t-326.5 131.5z" />
<glyph unicode="&#xd7;" horiz-adv-x="980" d="M872 911l-270 -270l270 -270l-112 -111l-271 270l-270 -270l-110 111l270 270l-270 270l112 111l271 -270l268 270z" />
<glyph unicode="&#xd8;" horiz-adv-x="1642" d="M1343 1241q103 -98 159.5 -233.5t56.5 -294.5q0 -209 -95.5 -376.5t-265.5 -261t-383 -93.5q-216 0 -389 98l-143 -182h-197l213 272q-108 100 -167.5 240t-59.5 303q0 156 55.5 291.5t153.5 231.5t236 151t298 55q224 0 402 -105l147 187h203zM362 715q0 -193 113 -322 l572 729q-103 58 -232 58q-197 0 -325 -131.5t-128 -333.5zM815 242q198 0 326.5 133.5t128.5 339.5q0 172 -103 303l-571 -723q95 -53 219 -53z" />
<glyph unicode="&#xd9;" horiz-adv-x="1363" d="M573 1833l236 -311h-205l-299 311h268zM1249 1421v-903q0 -238 -158 -387t-409 -149t-409 149t-158 387v903h282v-889q0 -130 78.5 -210t206.5 -80q126 0 204.5 80t78.5 210v889h284z" />
<glyph unicode="&#xda;" horiz-adv-x="1363" d="M791 1833h268l-299 -311h-205zM1249 1421v-903q0 -238 -158 -387t-409 -149t-409 149t-158 387v903h282v-889q0 -130 78.5 -210t206.5 -80q126 0 204.5 80t78.5 210v889h284z" />
<glyph unicode="&#xdb;" horiz-adv-x="1363" d="M682 1710l-174 -186h-205l238 311h258h26l236 -311h-205zM965 1421h284v-903q0 -238 -158 -387t-409 -149t-409 149t-158 387v903h282v-889q0 -130 78.5 -210t206.5 -80q126 0 204.5 80t78.5 210v889z" />
<glyph unicode="&#xdc;" horiz-adv-x="1363" d="M627 1702q0 -51 -36 -84t-93 -33q-55 0 -91 33t-36 84t35.5 83t91.5 32q57 0 93 -32t36 -83zM991 1702q0 -51 -35 -84t-92 -33q-56 0 -92.5 33t-36.5 84t36.5 83t92.5 32q57 0 92 -32t35 -83zM1249 1421v-903q0 -238 -158 -387t-409 -149t-409 149t-158 387v903h282v-889 q0 -130 78.5 -210t206.5 -80q126 0 204.5 80t78.5 210v889h284z" />
<glyph unicode="&#xdd;" horiz-adv-x="1404" d="M1079 1833l-299 -311h-205l236 311h268zM1393 1421l-545 -843v-578h-285v569l-551 852h322l368 -606l367 606h324z" />
<glyph unicode="&#xde;" horiz-adv-x="1269" d="M752 1194q209 0 341 -129t132 -332q0 -204 -132 -333.5t-341 -129.5h-328v-270h-285v1421h285v-227h328zM721 520q95 0 154 59t59 154q0 93 -59 151t-154 58h-297v-422h297z" />
<glyph unicode="&#xdf;" horiz-adv-x="1181" d="M879 766q110 -52 173.5 -149t63.5 -220q0 -181 -128.5 -297t-332.5 -116q-75 0 -149 24v238q64 -31 123 -31q94 0 154.5 59.5t60.5 149.5q0 98 -70.5 162.5t-177.5 64.5v201q68 3 112 54t44 126q0 77 -51.5 127.5t-129.5 50.5q-80 0 -132 -52.5t-52 -133.5v-1024h-266 v1042q0 174 127 287t323 113q197 0 326 -109.5t129 -277.5q0 -91 -39 -167t-108 -122z" />
<glyph unicode="&#xe0;" d="M762 1110h-205l-299 311h268zM883 1012h268v-1012h-268v164q-62 -87 -154 -134.5t-203 -47.5q-200 0 -330 148t-130 376q0 229 130 377.5t330 148.5q111 0 202.5 -48t154.5 -134v162zM612 213q118 0 194.5 82.5t76.5 210.5q0 129 -76 212t-195 83t-195.5 -83t-76.5 -212 q0 -128 77 -210.5t195 -82.5z" />
<glyph unicode="&#xe1;" d="M1012 1421l-299 -311h-205l235 311h269zM883 1012h268v-1012h-268v164q-62 -87 -154 -134.5t-203 -47.5q-200 0 -330 148t-130 376q0 229 130 377.5t330 148.5q111 0 202.5 -48t154.5 -134v162zM612 213q118 0 194.5 82.5t76.5 210.5q0 129 -76 212t-195 83t-195.5 -83 t-76.5 -212q0 -128 77 -210.5t195 -82.5z" />
<glyph unicode="&#xe2;" d="M635 1298l-174 -186h-205l238 311h258h26l236 -311h-205zM883 1012h268v-1012h-268v164q-62 -87 -154 -134.5t-203 -47.5q-200 0 -330 148t-130 376q0 229 130 377.5t330 148.5q111 0 202.5 -48t154.5 -134v162zM612 213q118 0 194.5 82.5t76.5 210.5q0 129 -76 212 t-195 83t-195.5 -83t-76.5 -212q0 -128 77 -210.5t195 -82.5z" />
<glyph unicode="&#xe3;" d="M506 1245q-35 0 -56.5 -33t-21.5 -88h-139q0 135 58.5 217t156.5 82q44 0 83.5 -21t63.5 -45.5t55 -45.5t60 -21q37 0 57.5 31.5t20.5 85.5h139q0 -134 -59 -215.5t-158 -81.5q-44 0 -84 21t-64.5 46.5t-54.5 46.5t-57 21zM883 1012h268v-1012h-268v164 q-62 -87 -154 -134.5t-203 -47.5q-200 0 -330 148t-130 376q0 229 130 377.5t330 148.5q111 0 202.5 -48t154.5 -134v162zM612 213q118 0 194.5 82.5t76.5 210.5q0 129 -76 212t-195 83t-195.5 -83t-76.5 -212q0 -128 77 -210.5t195 -82.5z" />
<glyph unicode="&#xe4;" d="M453 1174q-56 0 -91.5 32.5t-35.5 83.5t35.5 83t91.5 32q57 0 93 -32t36 -83t-36 -83.5t-93 -32.5zM819 1174q-56 0 -92.5 32.5t-36.5 83.5t36.5 83t92.5 32q57 0 92 -32t35 -83t-35 -83.5t-92 -32.5zM883 1012h268v-1012h-268v164q-62 -87 -154 -134.5t-203 -47.5 q-200 0 -330 148t-130 376q0 229 130 377.5t330 148.5q111 0 202.5 -48t154.5 -134v162zM612 213q118 0 194.5 82.5t76.5 210.5q0 129 -76 212t-195 83t-195.5 -83t-76.5 -212q0 -128 77 -210.5t195 -82.5z" />
<glyph unicode="&#xe5;" d="M635 1094q-120 0 -197.5 73.5t-77.5 188.5t77.5 188.5t197.5 73.5q122 0 199 -73.5t77 -188.5t-77 -188.5t-199 -73.5zM635 1468q-50 0 -81.5 -31.5t-31.5 -80.5q0 -48 32 -80.5t81 -32.5q50 0 82.5 32.5t32.5 80.5q0 50 -32 81t-83 31zM883 1012h268v-1012h-268v164 q-62 -87 -154 -134.5t-203 -47.5q-200 0 -330 148t-130 376q0 229 130 377.5t330 148.5q111 0 202.5 -48t154.5 -134v162zM612 213q118 0 194.5 82.5t76.5 210.5q0 129 -76 212t-195 83t-195.5 -83t-76.5 -212q0 -128 77 -210.5t195 -82.5z" />
<glyph unicode="&#xe6;" horiz-adv-x="2166" d="M2103 504q0 -10 -4 -72h-803q19 -114 90 -181t175 -67q88 0 155.5 48t95.5 128h273q-43 -166 -189.5 -272t-336.5 -106q-130 0 -238.5 46.5t-183.5 131.5v-160h-254v164q-62 -87 -154 -134.5t-203 -47.5q-200 0 -330 148t-130 376q0 229 130 377.5t330 148.5 q111 0 202.5 -48t154.5 -134v162h254v-160q74 86 183 133t239 47q236 0 390 -149t154 -379zM1565 829q-95 0 -163.5 -55t-94.5 -151h518q-23 96 -92.5 151t-167.5 55zM612 213q118 0 194.5 82.5t76.5 210.5q0 129 -76 212t-195 83t-195.5 -83t-76.5 -212q0 -128 77 -210.5 t195 -82.5z" />
<glyph unicode="&#xe7;" horiz-adv-x="1206" d="M1145 426q-20 -194 -170.5 -319t-362.5 -125q-238 0 -392 147.5t-154 376.5t154 377.5t392 148.5q212 0 362.5 -125.5t170.5 -320.5h-271q-21 94 -93 154.5t-167 60.5q-120 0 -197 -83t-77 -212q0 -128 77 -210.5t197 -82.5q97 0 170 60t93 153h268zM586 -72 q81 0 131.5 -46t50.5 -120q0 -73 -50 -118t-132 -45q-30 0 -62 8v96q18 -6 37 -6q34 0 55 18t21 47t-21 47.5t-55 18.5q-13 0 -37 -4v96q32 8 62 8z" />
<glyph unicode="&#xe8;" horiz-adv-x="1222" d="M739 1110h-204l-299 311h268zM1157 504q0 -47 -8 -80h-817q25 -101 102 -163t180 -62q88 0 158 45.5t98 115.5h269q-43 -166 -191 -272t-336 -106q-238 0 -392 147.5t-154 376.5t154 377.5t392 148.5q236 0 389.5 -149t155.5 -379zM614 815q-94 0 -166.5 -51t-105.5 -137 h555q-31 84 -108.5 136t-174.5 52z" />
<glyph unicode="&#xe9;" horiz-adv-x="1222" d="M989 1421l-299 -311h-205l236 311h268zM1157 504q0 -47 -8 -80h-817q25 -101 102 -163t180 -62q88 0 158 45.5t98 115.5h269q-43 -166 -191 -272t-336 -106q-238 0 -392 147.5t-154 376.5t154 377.5t392 148.5q236 0 389.5 -149t155.5 -379zM614 815q-94 0 -166.5 -51 t-105.5 -137h555q-31 84 -108.5 136t-174.5 52z" />
<glyph unicode="&#xea;" horiz-adv-x="1222" d="M612 1298l-174 -186h-205l238 311h258h27l235 -311h-205zM1157 504q0 -47 -8 -80h-817q25 -101 102 -163t180 -62q88 0 158 45.5t98 115.5h269q-43 -166 -191 -272t-336 -106q-238 0 -392 147.5t-154 376.5t154 377.5t392 148.5q236 0 389.5 -149t155.5 -379zM614 815 q-94 0 -166.5 -51t-105.5 -137h555q-31 84 -108.5 136t-174.5 52z" />
<glyph unicode="&#xeb;" horiz-adv-x="1222" d="M430 1174q-56 0 -91.5 32.5t-35.5 83.5t35.5 83t91.5 32q57 0 93 -32t36 -83t-36 -83.5t-93 -32.5zM797 1174q-56 0 -92.5 32.5t-36.5 83.5t36.5 83t92.5 32q57 0 92 -32t35 -83t-35 -83.5t-92 -32.5zM1157 504q0 -47 -8 -80h-817q25 -101 102 -163t180 -62 q88 0 158 45.5t98 115.5h269q-43 -166 -191 -272t-336 -106q-238 0 -392 147.5t-154 376.5t154 377.5t392 148.5q236 0 389.5 -149t155.5 -379zM614 815q-94 0 -166.5 -51t-105.5 -137h555q-31 84 -108.5 136t-174.5 52z" />
<glyph unicode="&#xec;" horiz-adv-x="528" d="M156 1421l235 -311h-205l-299 311h269zM131 1012h266v-1012h-266v1012z" />
<glyph unicode="&#xed;" horiz-adv-x="528" d="M373 1421h268l-299 -311h-205zM131 1012h266v-1012h-266v1012z" />
<glyph unicode="&#xee;" horiz-adv-x="528" d="M379 1421l194 -311h-174l-135 184l-133 -184h-176l195 311h229zM131 0v1012h266v-1012h-266z" />
<glyph unicode="&#xef;" horiz-adv-x="555" d="M246 1300q0 -52 -35 -84t-92 -32q-56 0 -92.5 32t-36.5 84q0 51 36.5 84t92.5 33q57 0 92 -33t35 -84zM563 1300q0 -52 -35 -84t-92 -32q-56 0 -92.5 32t-36.5 84q0 51 36.5 84t92.5 33q57 0 92 -33t35 -84zM143 1012h269v-1012h-269v1012z" />
<glyph unicode="&#xf0;" horiz-adv-x="1214" d="M977 895q90 -106 131 -195.5t41 -201.5q0 -227 -150.5 -371.5t-388.5 -144.5q-239 0 -391.5 145t-152.5 371q0 140 66.5 252t179.5 172.5t249 60.5q59 0 115 -12l-137 155l-103 -75l-90 90l109 82l-174 198h262l67 -82l119 88l90 -90l-127 -96zM610 211q119 0 196 80.5 t77 206.5q0 124 -77 205t-196 81q-118 0 -195 -80.5t-77 -205.5q0 -126 76.5 -206.5t195.5 -80.5z" />
<glyph unicode="&#xf1;" horiz-adv-x="1193" d="M471 1245q-35 0 -56.5 -33t-21.5 -88h-139q0 135 58.5 217t156.5 82q44 0 83.5 -21t63.5 -45.5t55 -45.5t60 -21q37 0 57.5 31.5t20.5 85.5h139q0 -134 -59 -215.5t-158 -81.5q-44 0 -84 21t-64.5 46.5t-54.5 46.5t-57 21zM709 1032q166 0 269 -111t103 -288v-633h-266 v594q0 101 -58 163t-153 62t-154 -62t-59 -163v-594h-268v1012h268v-152q50 81 133.5 126.5t184.5 45.5z" />
<glyph unicode="&#xf2;" horiz-adv-x="1222" d="M504 1421l235 -311h-204l-299 311h268zM612 1032q236 0 390.5 -148.5t154.5 -377.5q0 -228 -154 -376t-391 -148q-238 0 -392 147.5t-154 376.5t154 377.5t392 148.5zM610 801q-118 0 -194 -83t-76 -212q0 -128 76 -210.5t194 -82.5q120 0 196.5 82.5t76.5 210.5 q0 129 -76.5 212t-196.5 83z" />
<glyph unicode="&#xf3;" horiz-adv-x="1222" d="M721 1421h268l-299 -311h-205zM612 1032q236 0 390.5 -148.5t154.5 -377.5q0 -228 -154 -376t-391 -148q-238 0 -392 147.5t-154 376.5t154 377.5t392 148.5zM610 801q-118 0 -194 -83t-76 -212q0 -128 76 -210.5t194 -82.5q120 0 196.5 82.5t76.5 210.5q0 129 -76.5 212 t-196.5 83z" />
<glyph unicode="&#xf4;" horiz-adv-x="1222" d="M612 1298l-174 -186h-205l238 311h258h27l235 -311h-205zM612 1032q236 0 390.5 -148.5t154.5 -377.5q0 -228 -154 -376t-391 -148q-238 0 -392 147.5t-154 376.5t154 377.5t392 148.5zM610 213q120 0 196.5 82.5t76.5 210.5q0 129 -76.5 212t-196.5 83q-118 0 -194 -83 t-76 -212q0 -128 76 -210.5t194 -82.5z" />
<glyph unicode="&#xf5;" horiz-adv-x="1222" d="M481 1423q44 0 83.5 -21t63.5 -45.5t55 -45.5t60 -21q37 0 57.5 31.5t20.5 85.5h140q0 -134 -59.5 -215.5t-158.5 -81.5q-44 0 -84 21t-64.5 46.5t-54.5 46.5t-57 21q-35 0 -56 -33t-21 -88h-140q0 135 58.5 217t156.5 82zM612 1032q236 0 390.5 -148.5t154.5 -377.5 q0 -228 -154 -376t-391 -148q-238 0 -392 147.5t-154 376.5t154 377.5t392 148.5zM610 801q-118 0 -194 -83t-76 -212q0 -128 76 -210.5t194 -82.5q120 0 196.5 82.5t76.5 210.5q0 129 -76.5 212t-196.5 83z" />
<glyph unicode="&#xf6;" horiz-adv-x="1222" d="M559 1290q0 -51 -36 -83.5t-93 -32.5q-56 0 -91.5 32.5t-35.5 83.5t35.5 83t91.5 32q57 0 93 -32t36 -83zM924 1290q0 -51 -35 -83.5t-92 -32.5q-56 0 -92.5 32.5t-36.5 83.5t36.5 83t92.5 32q57 0 92 -32t35 -83zM612 1032q236 0 390.5 -148.5t154.5 -377.5 q0 -228 -154 -376t-391 -148q-238 0 -392 147.5t-154 376.5t154 377.5t392 148.5zM610 801q-118 0 -194 -83t-76 -212q0 -128 76 -210.5t194 -82.5q120 0 196.5 82.5t76.5 210.5q0 129 -76.5 212t-196.5 83z" />
<glyph unicode="&#xf7;" horiz-adv-x="1069" d="M535 1075q51 0 82.5 -30t31.5 -78q0 -46 -32 -76.5t-82 -30.5q-51 0 -83 30.5t-32 76.5q0 47 32 77.5t83 30.5zM96 719h877v-156h-877v156zM535 422q50 0 82 -30t32 -77t-32 -77.5t-82 -30.5t-82.5 30.5t-32.5 77.5t32.5 77t82.5 30z" />
<glyph unicode="&#xf8;" horiz-adv-x="1222" d="M979 905q85 -72 131.5 -174.5t46.5 -224.5q0 -228 -154 -376t-391 -148q-148 0 -266 59l-104 -143h-144l150 206q-86 72 -134 175.5t-48 226.5q0 229 154 377.5t392 148.5q145 0 267 -61l104 143h147zM340 506q0 -113 61 -193l332 459q-60 29 -123 29q-118 0 -194 -83 t-76 -212zM610 213q120 0 196.5 82.5t76.5 210.5q0 110 -58 190l-333 -456q59 -27 118 -27z" />
<glyph unicode="&#xf9;" horiz-adv-x="1175" d="M481 1421l236 -311h-205l-299 311h268zM1065 1012v-592q0 -194 -132 -316t-343 -122q-212 0 -345.5 122t-133.5 316v592h266v-592q0 -98 58 -158.5t153 -60.5t153 60.5t58 158.5v592h266z" />
<glyph unicode="&#xfa;" horiz-adv-x="1175" d="M698 1421h269l-299 -311h-205zM1065 1012v-592q0 -194 -132 -316t-343 -122q-212 0 -345.5 122t-133.5 316v592h266v-592q0 -98 58 -158.5t153 -60.5t153 60.5t58 158.5v592h266z" />
<glyph unicode="&#xfb;" horiz-adv-x="1175" d="M588 1298l-174 -186h-205l237 311h259h26l236 -311h-205zM799 1012h266v-592q0 -194 -132 -316t-343 -122q-212 0 -345.5 122t-133.5 316v592h266v-592q0 -98 58 -158.5t153 -60.5t153 60.5t58 158.5v592z" />
<glyph unicode="&#xfc;" horiz-adv-x="1175" d="M535 1290q0 -51 -36 -83.5t-93 -32.5q-56 0 -91.5 32.5t-35.5 83.5t35.5 83t91.5 32q57 0 93 -32t36 -83zM899 1290q0 -51 -35 -83.5t-92 -32.5q-56 0 -92.5 32.5t-36.5 83.5t36.5 83t92.5 32q57 0 92 -32t35 -83zM1065 1012v-592q0 -194 -132 -316t-343 -122 q-212 0 -345.5 122t-133.5 316v592h266v-592q0 -98 58 -158.5t153 -60.5t153 60.5t58 158.5v592h266z" />
<glyph unicode="&#xfd;" horiz-adv-x="1157" d="M954 1421l-299 -311h-204l235 311h268zM860 1012h279l-662 -1418h-278l260 515l-443 903h285l283 -637z" />
<glyph unicode="&#xfe;" horiz-adv-x="1273" d="M748 1032q199 0 328.5 -148.5t129.5 -377.5t-129 -376.5t-329 -147.5q-112 0 -204.5 47.5t-154.5 134.5v-574h-266v1831h266v-571q62 86 155 134t204 48zM664 213q117 0 193.5 83t76.5 210q0 129 -76.5 212t-193.5 83q-119 0 -197 -83t-78 -212q0 -127 78 -210t197 -83z " />
<glyph unicode="&#xff;" horiz-adv-x="1157" d="M395 1174q-56 0 -91.5 32.5t-35.5 83.5t35.5 83t91.5 32q57 0 93 -32t36 -83t-36 -83.5t-93 -32.5zM762 1174q-56 0 -92.5 32.5t-36.5 83.5t36.5 83t92.5 32q57 0 92 -32t35 -83t-35 -83.5t-92 -32.5zM860 1012h279l-662 -1418h-278l260 515l-443 903h285l283 -637z" />
<glyph unicode="&#x152;" horiz-adv-x="2058" d="M1964 1171h-713v-333h658v-242h-658v-344h713v-252h-969q-83 -18 -180 -18q-213 0 -383 94t-265 261t-95 376q0 156 55.5 291.5t153.5 231.5t236 151t298 55q99 0 184 -21h965v-250zM362 715q0 -205 128 -339t325 -134q87 0 154 34v871q-65 33 -154 33 q-197 0 -325 -131.5t-128 -333.5z" />
<glyph unicode="&#x153;" horiz-adv-x="2062" d="M1997 504q0 -10 -4 -72h-803q19 -114 89.5 -181t174.5 -67q90 0 157 47.5t95 128.5h272q-43 -168 -182.5 -273t-327.5 -105q-141 0 -253 55t-181 153q-72 -98 -184 -153t-250 -55q-232 0 -383 148t-151 376q0 229 151 377.5t383 148.5q137 0 249.5 -55.5t184.5 -153.5 q69 98 181.5 153.5t252.5 55.5q235 0 382 -148t147 -380zM1458 829q-99 0 -170 -61t-94 -166h530q-20 103 -92 165t-174 62zM610 213q120 0 196.5 82.5t76.5 210.5q0 129 -76.5 212t-196.5 83q-118 0 -194 -83t-76 -212q0 -128 76 -210.5t194 -82.5z" />
<glyph unicode="&#x178;" horiz-adv-x="1404" d="M518 1585q-55 0 -91 33t-36 84t35.5 83t91.5 32q57 0 93 -32t36 -83t-36 -84t-93 -33zM885 1585q-56 0 -92.5 33t-36.5 84t36.5 83t92.5 32q57 0 92 -32t35 -83t-35 -84t-92 -33zM1393 1421l-545 -843v-578h-285v569l-551 852h322l368 -606l367 606h324z" />
<glyph unicode="&#x2c6;" horiz-adv-x="757" d="M758 1110h-205l-174 186l-174 -186h-205l236 311h260h24z" />
<glyph unicode="&#x2dc;" horiz-adv-x="694" d="M215 1423q44 0 83.5 -21t63.5 -45.5t55 -45.5t60 -21q37 0 57.5 31.5t20.5 85.5h139q0 -134 -59 -215.5t-158 -81.5q-44 0 -84 21t-64.5 46.5t-54.5 46.5t-57 21q-35 0 -56.5 -33t-21.5 -88h-139q0 135 58.5 217t156.5 82z" />
<glyph unicode="&#x2000;" horiz-adv-x="939" />
<glyph unicode="&#x2001;" horiz-adv-x="1878" />
<glyph unicode="&#x2002;" horiz-adv-x="939" />
<glyph unicode="&#x2003;" horiz-adv-x="1878" />
<glyph unicode="&#x2004;" horiz-adv-x="626" />
<glyph unicode="&#x2005;" horiz-adv-x="469" />
<glyph unicode="&#x2006;" horiz-adv-x="313" />
<glyph unicode="&#x2007;" horiz-adv-x="313" />
<glyph unicode="&#x2008;" horiz-adv-x="234" />
<glyph unicode="&#x2009;" horiz-adv-x="375" />
<glyph unicode="&#x200a;" horiz-adv-x="104" />
<glyph unicode="&#x2010;" horiz-adv-x="987" d="M96 666h795v-197h-795v197z" />
<glyph unicode="&#x2011;" horiz-adv-x="987" d="M96 666h795v-197h-795v197z" />
<glyph unicode="&#x2012;" horiz-adv-x="987" d="M96 666h795v-197h-795v197z" />
<glyph unicode="&#x2013;" horiz-adv-x="1179" d="M96 662h987v-156h-987v156z" />
<glyph unicode="&#x2014;" horiz-adv-x="2172" d="M96 662h1983v-156h-1983v156z" />
<glyph unicode="&#x2018;" horiz-adv-x="520" d="M371 899h-289l186 522h205z" />
<glyph unicode="&#x2019;" horiz-adv-x="520" d="M150 1421h288l-186 -522h-205z" />
<glyph unicode="&#x201a;" horiz-adv-x="520" d="M150 256h288l-186 -522h-205z" />
<glyph unicode="&#x201c;" horiz-adv-x="940" d="M371 899h-289l186 522h205zM791 899h-289l186 522h205z" />
<glyph unicode="&#x201d;" horiz-adv-x="940" d="M150 1421h288l-186 -522h-205zM569 1421h289l-186 -522h-205z" />
<glyph unicode="&#x201e;" horiz-adv-x="940" d="M150 256h288l-186 -522h-205zM569 256h289l-186 -522h-205z" />
<glyph unicode="&#x2022;" horiz-adv-x="753" d="M377 788q117 0 192.5 -72.5t75.5 -185.5t-75.5 -185.5t-192.5 -72.5q-116 0 -192 73t-76 185t76 185t192 73z" />
<glyph unicode="&#x2026;" horiz-adv-x="1628" d="M815 332q79 0 130.5 -49.5t51.5 -124.5q0 -76 -51 -125t-131 -49q-82 0 -133 48.5t-51 125.5q0 76 51.5 125t132.5 49zM1321 332q79 0 131.5 -49.5t52.5 -124.5q0 -76 -52 -125t-132 -49q-82 0 -133 48.5t-51 125.5q0 76 51.5 125t132.5 49zM307 332q81 0 133 -49.5 t52 -124.5q0 -77 -51.5 -125.5t-133.5 -48.5q-80 0 -131 49t-51 125q0 75 51.5 124.5t130.5 49.5z" />
<glyph unicode="&#x202f;" horiz-adv-x="375" />
<glyph unicode="&#x2039;" horiz-adv-x="698" d="M584 918l-271 -396l271 -397h-228l-270 397l270 396h228z" />
<glyph unicode="&#x203a;" horiz-adv-x="698" d="M344 918l270 -396l-270 -397h-227l270 397l-270 396h227z" />
<glyph unicode="&#x205f;" horiz-adv-x="469" />
<glyph unicode="&#x20ac;" horiz-adv-x="1249" d="M1016 915l-43 -157h-907v157h151q64 237 257.5 382t459.5 145q112 0 221 -31l-72 -254q-86 23 -149 23q-141 0 -249.5 -71.5t-160.5 -193.5h492zM522 512q52 -125 160.5 -197.5t251.5 -72.5q95 0 182 41v-283q-86 -18 -182 -18q-268 0 -462.5 145t-256.5 385h-149v158 h878l-45 -158h-377z" />
<glyph unicode="&#x2122;" horiz-adv-x="1722" d="M78 1278v143h598v-143h-215v-608h-166v608h-217zM1374 1421h246v-751h-166v536l-182 -536h-162l-180 530v-530h-166v751h246l182 -522z" />
<glyph unicode="&#x25fc;" horiz-adv-x="1013" d="M0 1014h1014v-1014h-1014v1014z" />
<glyph unicode="&#xfb03;" horiz-adv-x="1738" d="M1483 1145q-72 0 -117 41t-45 106q0 66 45 108t117 42t117 -42t45 -108q0 -65 -45 -106t-117 -41zM1616 1012v-1012h-266v791h-314v-791h-266v791h-141h-172v-791h-267v791h-141v221h141v100q0 145 106.5 237.5t272.5 92.5q48 0 84 -8v-232q-51 15 -82 15q-50 0 -82 -29 t-32 -76v-100h196h117v100q0 145 106.5 237.5t272.5 92.5q48 0 84 -8v-232q-51 15 -82 15q-50 0 -82.5 -29t-32.5 -76v-100h580z" />
<glyph unicode="&#xfb04;" horiz-adv-x="1742" d="M1356 1421h268v-1421h-268v791h-320v-791h-266v791h-141h-172v-791h-267v791h-141v221h141v100q0 145 106.5 237.5t272.5 92.5q48 0 84 -8v-232q-51 15 -82 15q-50 0 -82 -29t-32 -76v-100h196h117v100q0 145 106.5 237.5t272.5 92.5q48 0 84 -8v-232q-51 15 -82 15 q-50 0 -82.5 -29t-32.5 -76v-100h320v409z" />
</font>
</defs>
</svg>
