<?xml version="1.0" standalone="no"?>
<!DOCTYPE svg PUBLIC "-//W3C//DTD SVG 1.1//EN" "http://www.w3.org/Graphics/SVG/1.1/DTD/svg11.dtd" >
<svg xmlns="http://www.w3.org/2000/svg">
<metadata></metadata>
<defs>
<font id="publica_sansblack" horiz-adv-x="1282" >
<font-face units-per-em="2048" ascent="1638" descent="-410" />
<missing-glyph horiz-adv-x="663" />
<glyph unicode="&#xfb01;" horiz-adv-x="1519" d="M1182 1100q-117 0 -192 67t-75 170t75 170.5t192 67.5q115 0 189.5 -67.5t74.5 -170.5t-74.5 -170t-189.5 -67zM1413 1030v-1030h-465v645h-299v-645h-465v645h-131v385h131q11 189 166 310.5t389 121.5q55 0 105 -6v-330q-54 21 -94 21q-57 0 -90 -33t-35 -84h788z" />
<glyph unicode="&#xfb02;" horiz-adv-x="1517" d="M961 1440h464v-1440h-464v645h-312v-645h-465v645h-131v385h131q11 189 166 310.5t389 121.5q55 0 105 -6v-330q-54 21 -94 21q-57 0 -90 -33t-35 -84h336v410z" />
<glyph horiz-adv-x="0" />
<glyph horiz-adv-x="682" />
<glyph unicode=" "  horiz-adv-x="663" />
<glyph unicode="&#x09;" horiz-adv-x="663" />
<glyph unicode="&#xa0;" horiz-adv-x="663" />
<glyph unicode="!" horiz-adv-x="866" d="M133 1440h600l-98 -873h-404zM428 457q110 0 182 -67.5t72 -170.5t-72 -170t-182 -67t-182 67t-72 170t72 170.5t182 67.5z" />
<glyph unicode="&#x22;" d="M121 1440h463l-58 -658h-348zM698 1440h463l-59 -658h-346z" />
<glyph unicode="#" horiz-adv-x="1626" d="M1532 852h-240l-65 -264h305v-226h-363l-92 -362h-264l92 362h-366l-93 -362h-264l92 362h-180v226h238l67 264h-305v225h363l92 363h264l-92 -363h366l93 363h264l-94 -363h182v-225zM963 588l67 264h-366l-68 -264h367z" />
<glyph unicode="$" horiz-adv-x="1415" d="M1352 463q0 -189 -132.5 -312t-355.5 -159v-152h-313v150q-220 35 -354.5 169t-137.5 339h498q-1 -69 45 -110.5t121 -41.5q56 0 90.5 20t34.5 50q0 28 -26 47.5t-69.5 32t-100.5 23.5t-119.5 25.5t-125 34t-119.5 53t-100.5 78t-69.5 113.5t-26 156q0 177 126.5 304.5 t332.5 164.5v151h313v-155q196 -43 318 -182.5t121 -327.5h-467q2 68 -37 108.5t-105 40.5q-44 0 -71 -19t-27 -48q0 -32 26 -54.5t69.5 -37t100.5 -27t119.5 -27t125 -33t119.5 -50t100.5 -72.5t69.5 -106t26 -146z" />
<glyph unicode="%" horiz-adv-x="1886" d="M451 1462q157 0 259.5 -101.5t102.5 -258.5t-102.5 -260t-259.5 -103t-259 103t-102 260t102 258.5t259 101.5zM1243 1440h264l-864 -1440h-264zM451 1202q-36 0 -58.5 -28t-21.5 -72q-1 -45 21.5 -74t58.5 -29q35 0 58 28.5t23 74.5q0 44 -23 72t-58 28zM1436 700 q157 0 258.5 -101.5t101.5 -258.5t-101.5 -258.5t-258.5 -101.5t-260 102t-103 258t103 258t260 102zM1436 442q-35 0 -58.5 -29t-23.5 -73t23.5 -73t58.5 -29t58.5 29t23.5 73t-23.5 73t-58.5 29z" />
<glyph unicode="&#x26;" horiz-adv-x="1669" d="M1571 0h-516l-76 78q-186 -98 -406 -98q-234 0 -356.5 113.5t-122.5 295.5q0 85 33 156t82.5 118t120.5 89l-6 8q-119 114 -119 303q0 183 123.5 291t351.5 108q121 0 214.5 -31t149 -84t83.5 -117.5t28 -137.5q0 -125 -73 -223.5t-187 -170.5l162 -168q32 38 53 84h453 q-115 -187 -263 -335zM676 1135q-55 0 -55 -80q0 -74 20 -94l18 -19q68 68 68 129q0 29 -14.5 46.5t-36.5 17.5zM655 354q36 0 56 2l-142 148q-32 -38 -32 -74q0 -32 27.5 -54t90.5 -22z" />
<glyph unicode="'" horiz-adv-x="704" d="M121 1440h463l-58 -658h-348z" />
<glyph unicode="(" horiz-adv-x="788" d="M698 1563q-75 -224 -117 -480.5t-42 -507.5q0 -510 159 -985h-256q-165 194 -254.5 449.5t-89.5 535.5q0 282 89.5 538t254.5 450h256z" />
<glyph unicode=")" horiz-adv-x="763" d="M66 1563h256q166 -194 255 -449.5t89 -538.5q0 -281 -89 -536t-255 -449h-256q159 466 159 985q0 253 -41.5 509.5t-117.5 478.5z" />
<glyph unicode="*" horiz-adv-x="1228" d="M1130 971l-311 -43l228 -217l-293 -213l-140 286l-139 -286l-295 213l230 217l-312 43l111 344l278 -148l-55 310h363l-56 -310l279 148z" />
<glyph unicode="+" horiz-adv-x="1200" d="M1110 797v-267h-367v-354h-288v354h-365v267h365v354h288v-354h367z" />
<glyph unicode="," horiz-adv-x="751" d="M145 420h504l-237 -637h-351z" />
<glyph unicode="-" horiz-adv-x="1099" d="M90 698h920v-340h-920v340z" />
<glyph unicode="." horiz-adv-x="755" d="M377 545q133 0 219 -80t86 -203q0 -125 -86 -205t-219 -80q-132 0 -217.5 80.5t-85.5 204.5q0 123 85.5 203t217.5 80z" />
<glyph unicode="/" horiz-adv-x="921" d="M563 1440h338l-553 -1440h-328z" />
<glyph unicode="0" horiz-adv-x="1359" d="M682 1462q286 0 455.5 -200.5t169.5 -540.5q0 -341 -169.5 -541t-455.5 -200q-289 0 -459 200t-170 541q0 340 170 540.5t459 200.5zM682 1069q-154 0 -154 -348q0 -350 154 -350q75 0 114.5 89.5t39.5 260.5q0 170 -39.5 259t-114.5 89z" />
<glyph unicode="1" horiz-adv-x="942" d="M455 1440h372v-1440h-467l2 866h-286v305q164 0 271.5 76t107.5 193z" />
<glyph unicode="2" d="M627 385h577v-385h-1128v35q0 86 14 162t33.5 131.5t53.5 106.5t62 82.5t70.5 65t67.5 50t65 39.5q287 168 287 307q0 42 -21.5 68t-56.5 26q-42 0 -74.5 -35.5t-29.5 -103.5h-449q3 159 76.5 279.5t200 184.5t287.5 64q229 0 377.5 -128.5t148.5 -329.5 q0 -79 -25.5 -151.5t-62 -124t-94 -102.5t-103.5 -82t-108 -67q-148 -78 -168 -92z" />
<glyph unicode="3" horiz-adv-x="1304" d="M979 741q111 -42 180.5 -133.5t69.5 -204.5q0 -116 -72 -212.5t-201.5 -153.5t-289.5 -57q-170 0 -304 63t-211.5 181t-80.5 274h462q4 -65 37.5 -99t79.5 -34q45 0 75 28t30 68q0 47 -44.5 75.5t-115.5 28.5h-76v309h74q67 0 109 34.5t42 90.5q0 43 -25 68t-63 25 q-48 0 -82 -39.5t-38 -118.5h-426q10 242 162.5 385t396.5 143q143 0 261 -53t185.5 -144.5t67.5 -201.5q0 -102 -56.5 -190.5t-146.5 -131.5z" />
<glyph unicode="4" horiz-adv-x="1413" d="M1339 647v-385h-204v-262h-467v262h-580v338l490 840h557v-793h204zM672 1028l-211 -381h209z" />
<glyph unicode="5" horiz-adv-x="1243" d="M762 965q196 0 306 -132.5t110 -347.5q0 -145 -74.5 -260.5t-206.5 -180t-297 -64.5q-228 0 -384.5 129.5t-162.5 314.5h469q3 -25 25.5 -41t54.5 -16q47 0 73.5 36.5t26.5 102.5q0 65 -25.5 102t-68.5 37q-81 0 -106 -90h-439l127 885h363h547v-385h-592l-23 -193 q103 103 277 103z" />
<glyph unicode="6" d="M803 963q114 0 211.5 -57t156 -160t58.5 -230q0 -156 -76 -278.5t-210 -190t-302 -67.5q-255 0 -421.5 148t-166.5 376q0 151 97 301l419 635h551l-358 -479q7 0 21 1t20 1zM641 377q51 0 82 35t31 92q0 56 -32 91.5t-81 35.5t-81 -35.5t-32 -91.5q0 -57 31.5 -92 t81.5 -35z" />
<glyph unicode="7" horiz-adv-x="1218" d="M76 1440h1065v-340l-465 -1100h-467l463 1055h-596v385z" />
<glyph unicode="8" horiz-adv-x="1368" d="M1057 758q233 -98 233 -332q0 -198 -165 -322t-441 -124q-277 0 -441.5 124t-164.5 322q0 117 59.5 201.5t171.5 132.5q-172 98 -172 299q0 182 147.5 292.5t399.5 110.5q251 0 399 -110.5t148 -292.5q0 -199 -174 -301zM684 1128q-60 0 -93.5 -34t-33.5 -95 q0 -57 33.5 -89.5t93.5 -32.5t93.5 32.5t33.5 89.5q0 61 -33.5 95t-93.5 34zM684 332q62 0 96.5 36.5t34.5 100.5q0 63 -34.5 98t-96.5 35t-96.5 -35t-34.5 -98q0 -64 34.5 -100.5t96.5 -36.5z" />
<glyph unicode="9" d="M641 1460q255 0 421.5 -148t166.5 -376q0 -153 -96 -301l-420 -635h-551l358 479q-14 -2 -41 -2q-114 0 -211.5 57t-156 160t-58.5 230q0 156 76 278.5t210 190t302 67.5zM641 1063q-51 0 -82 -35t-31 -92q0 -56 32 -91.5t81 -35.5t81 35.5t32 91.5q0 57 -31.5 92 t-81.5 35z" />
<glyph unicode=":" horiz-adv-x="901" d="M446 1051q110 0 182 -67.5t72 -170.5t-72 -170.5t-182 -67.5t-181.5 67.5t-71.5 170.5t71.5 170.5t181.5 67.5zM446 457q110 0 182 -67.5t72 -170.5t-72 -170t-182 -67t-181.5 67t-71.5 170t71.5 170.5t181.5 67.5z" />
<glyph unicode=";" horiz-adv-x="843" d="M432 1051q110 0 182 -67.5t72 -170.5t-72 -170.5t-182 -67.5q-112 0 -183 67.5t-71 170.5t71 170.5t183 67.5zM193 420h479l-367 -598h-338z" />
<glyph unicode="&#x3c;" horiz-adv-x="1101" d="M1012 1157v-315l-527 -178l527 -179v-315l-922 356v273z" />
<glyph unicode="=" horiz-adv-x="1112" d="M90 1008h932v-265h-932v265zM90 584h932v-267h-932v267z" />
<glyph unicode="&#x3e;" horiz-adv-x="1101" d="M90 1157l922 -358v-273l-922 -356v315l526 179l-526 178v315z" />
<glyph unicode="?" horiz-adv-x="1339" d="M682 1462q250 0 412.5 -116t162.5 -291q0 -136 -104 -235t-274 -128l-19 -125h-399l-33 285h51q141 0 222 34.5t81 96.5q0 40 -34 67t-80 27q-47 0 -82 -30t-41 -74h-463q0 213 170 351t430 138zM666 457q110 0 182 -67.5t72 -170.5t-72 -170t-182 -67t-182 67t-72 170 t72 170.5t182 67.5z" />
<glyph unicode="@" horiz-adv-x="2265" d="M1122 1458q304 0 546.5 -122.5t378.5 -340t136 -489.5q0 -244 -116.5 -385t-315.5 -141q-198 0 -295 163q-75 -78 -176 -120.5t-207 -42.5q-100 0 -192.5 40t-162 110t-111.5 171t-42 215q0 234 158.5 385.5t406.5 151.5q250 0 411 -151.5t161 -385.5v-108 q0 -69 20.5 -109.5t55.5 -40.5q59 0 94 67t35 181q0 203 -101 365.5t-280.5 254t-405.5 91.5q-218 0 -392.5 -91.5t-272 -254t-97.5 -365.5q0 -202 98.5 -363.5t274 -251.5t395.5 -90q108 0 236.5 27t212.5 68v-275q-93 -28 -217.5 -45.5t-231.5 -17.5q-300 0 -538.5 122 t-372 339t-133.5 489q0 204 78 381t215 302t330.5 196t416.5 71zM1141 381q43 0 72.5 38t29.5 97q0 58 -29.5 95.5t-72.5 37.5t-72 -37.5t-29 -95.5q0 -59 29 -97t72 -38z" />
<glyph unicode="A" horiz-adv-x="1593" d="M1053 0l-54 203h-403l-53 -203h-535l488 1440h602l489 -1440h-534zM682 522h231l-116 428z" />
<glyph unicode="B" horiz-adv-x="1425" d="M1116 750q118 -41 187 -136t69 -227q0 -175 -117 -281t-299 -106h-856v1440h789q187 0 304.5 -102.5t117.5 -272.5q0 -107 -51.5 -188.5t-143.5 -126.5zM815 965q0 37 -26 60.5t-68 23.5h-146v-175h146q42 0 68 25.5t26 65.5zM764 389q41 0 66.5 24.5t25.5 63.5 q0 40 -25.5 67t-66.5 27h-189v-182h189z" />
<glyph unicode="C" horiz-adv-x="1640" d="M1575 612q-31 -280 -240 -456t-514 -176q-219 0 -394 94.5t-273.5 263.5t-98.5 381q0 213 98.5 383t273.5 265t394 95q306 0 514.5 -177t239.5 -460h-506q-24 81 -90.5 132t-157.5 51q-115 0 -188.5 -80.5t-73.5 -206.5t73.5 -207.5t188.5 -81.5q89 0 155 50t93 130h506z " />
<glyph unicode="D" horiz-adv-x="1511" d="M715 1440q211 0 380.5 -93t265 -258t95.5 -370q0 -204 -95.5 -368.5t-265 -257.5t-380.5 -93h-615v1440h615zM711 436q102 0 171.5 82t69.5 203t-69.5 202t-171.5 81h-115v-568h115z" />
<glyph unicode="E" horiz-adv-x="1267" d="M1174 1028h-578v-110h508v-396h-508v-110h578v-412h-795h-279v1440h496h578v-412z" />
<glyph unicode="F" horiz-adv-x="1204" d="M1157 1004h-561v-156h528v-418h-528v-430h-496v1440h496h561v-436z" />
<glyph unicode="G" horiz-adv-x="1632" d="M1571 842q4 -62 4 -123q0 -214 -95.5 -382.5t-267.5 -262.5t-391 -94t-394 94.5t-273.5 263.5t-98.5 381q0 213 98.5 383t273.5 265t394 95q174 0 328.5 -68.5t259 -190t135.5 -271.5h-516q-85 102 -205 102q-115 0 -189.5 -88t-74.5 -225q0 -135 74.5 -223t189.5 -88 q85 0 148 41.5t76 105.5h-224v285h748z" />
<glyph unicode="H" horiz-adv-x="1460" d="M864 1440h496v-1440h-496v506h-268v-506h-496v1440h496v-498h268v498z" />
<glyph unicode="I" horiz-adv-x="696" d="M596 1440v-1440h-496v1440h496z" />
<glyph unicode="J" horiz-adv-x="1302" d="M270 1440h942v-969q0 -212 -163 -351.5t-412 -139.5q-165 0 -298 63.5t-208.5 175.5t-75.5 252v57h496v-82q0 -40 22 -62t62 -22q39 0 61.5 22.5t22.5 61.5v558h-449v436z" />
<glyph unicode="K" horiz-adv-x="1531" d="M1503 1440l-424 -697l404 -743h-565l-322 653v-653h-496v1440h496v-613l340 613h567z" />
<glyph unicode="L" horiz-adv-x="1144" d="M596 436h512v-436h-1008v1440h496v-1004z" />
<glyph unicode="M" horiz-adv-x="1941" d="M1149 1440h692v-1440h-493v860l-191 -860h-371l-190 860v-860h-496v1440h695l176 -811z" />
<glyph unicode="N" horiz-adv-x="1552" d="M956 1440h496v-1440h-629l-227 772v-772h-496v1440h629l227 -772v772z" />
<glyph unicode="O" horiz-adv-x="1642" d="M821 1462q219 0 394 -95t273.5 -265t98.5 -383q0 -212 -98.5 -381t-273.5 -263.5t-394 -94.5t-394 94.5t-273.5 263.5t-98.5 381q0 213 98.5 383t273.5 265t394 95zM821 1008q-114 0 -188 -80.5t-74 -206.5t74 -207.5t188 -81.5t188 81.5t74 207.5t-74 206.5t-188 80.5z " />
<glyph unicode="P" horiz-adv-x="1402" d="M838 1440q232 0 386 -150.5t154 -378.5q0 -224 -154 -374t-386 -150h-242v-387h-496v1440h738zM782 805q36 0 64 31.5t28 68.5q0 40 -27.5 69.5t-64.5 29.5h-186v-199h186z" />
<glyph unicode="Q" horiz-adv-x="1654" d="M1364 336l301 125v-461h-844q-219 0 -394 93.5t-273.5 260.5t-98.5 375q0 210 98.5 377.5t273.5 261.5t394 94q211 0 384 -86t272.5 -240t99.5 -345q0 -262 -213 -455zM821 438q114 0 188 79.5t74 203.5q0 125 -74 206t-188 81t-188 -81t-74 -206q0 -124 74 -203.5 t188 -79.5z" />
<glyph unicode="R" horiz-adv-x="1480" d="M1413 279q17 -233 31 -279h-516q-5 28 -8.5 115t-4.5 96q-6 92 -32.5 144.5t-71.5 52.5h-215v-408h-496v1440h760q251 0 399 -121t148 -326q0 -240 -205 -362q95 -43 147 -126.5t64 -225.5zM805 805q44 0 71 27t27 73q0 45 -26.5 72t-71.5 27h-209v-199h209z" />
<glyph unicode="S" horiz-adv-x="1415" d="M705 1462q256 0 427.5 -150t170.5 -378h-467q2 68 -37 108.5t-105 40.5q-44 0 -71 -19t-27 -48q0 -32 26 -54.5t69.5 -37t100.5 -27t119.5 -27t125 -33t119.5 -50t100.5 -72.5t69.5 -106t26 -146q0 -149 -86 -259.5t-234.5 -167t-339.5 -56.5q-180 0 -321.5 61 t-225 179.5t-86.5 277.5h498q-1 -69 45 -110.5t121 -41.5q56 0 90.5 20t34.5 50q0 28 -26 47.5t-69.5 32t-100.5 23.5t-119.5 25.5t-125 34t-119.5 53t-100.5 78t-69.5 113.5t-26 156q0 210 173.5 346.5t439.5 136.5z" />
<glyph unicode="T" horiz-adv-x="1230" d="M1214 1440v-436h-352v-1004h-493v1004h-353v436h1198z" />
<glyph unicode="U" horiz-adv-x="1402" d="M1315 1440v-932q0 -149 -79 -270t-218.5 -189.5t-312.5 -68.5q-174 0 -314.5 68.5t-220.5 189.5t-80 270v932h494v-903q0 -44 34 -74.5t84 -30.5q48 0 82.5 30.5t34.5 74.5v903h496z" />
<glyph unicode="V" horiz-adv-x="1595" d="M1065 1440h516l-494 -1440h-577l-496 1440h516l269 -938z" />
<glyph unicode="W" horiz-adv-x="2226" d="M1694 1440h518l-428 -1440h-502l-172 647l-172 -647h-498l-426 1440h518l197 -770l195 770h372l195 -772z" />
<glyph unicode="X" horiz-adv-x="1683" d="M1659 0h-596l-221 395l-224 -395h-593l489 729l-473 711h594l207 -383l205 383h595l-473 -711z" />
<glyph unicode="Y" horiz-adv-x="1593" d="M1589 1440l-540 -908v-532h-496v516l-551 924h561l234 -486l233 486h559z" />
<glyph unicode="Z" horiz-adv-x="1437" d="M686 436h668v-436h-1282v410l655 594h-614v436h1228v-410z" />
<glyph unicode="[" horiz-adv-x="788" d="M745 1229h-219v-1305h219v-334h-630v1973h630v-334z" />
<glyph unicode="\" horiz-adv-x="921" d="M358 1440l543 -1440h-328l-553 1440h338z" />
<glyph unicode="]" horiz-adv-x="788" d="M43 1563h631v-1973h-631v334h219v1305h-219v334z" />
<glyph unicode="^" horiz-adv-x="823" d="M717 1016h-242l-63 180l-64 -180h-242l199 424h213z" />
<glyph unicode="_" horiz-adv-x="1241" d="M131 -190h979v-269h-979v269z" />
<glyph unicode="`" horiz-adv-x="731" d="M537 1440l194 -314h-350l-311 314h467z" />
<glyph unicode="a" d="M725 1030h465v-1030h-465l10 152q-53 -83 -128 -127.5t-165 -44.5q-170 0 -279.5 150.5t-109.5 385.5q0 234 109.5 385.5t279.5 151.5q90 0 166 -45.5t129 -128.5zM629 373q41 0 68.5 40t27.5 103q0 62 -27 101.5t-69 39.5q-43 0 -72 -39.5t-29 -101.5t29 -102.5 t72 -40.5z" />
<glyph unicode="b" d="M840 1053q170 0 279.5 -151.5t109.5 -385.5q0 -235 -109.5 -385.5t-279.5 -150.5q-181 0 -295 172l12 -152h-465v1440h465v-543q114 156 283 156zM659 373q40 0 67.5 40.5t27.5 102.5t-27.5 101.5t-67.5 39.5q-43 0 -72.5 -39.5t-29.5 -101.5t29.5 -102.5t72.5 -40.5z " />
<glyph unicode="c" horiz-adv-x="1243" d="M1184 455q-11 -207 -167 -341t-388 -134q-251 0 -413.5 151t-162.5 385q0 233 163 385t413 152q231 0 387.5 -135.5t167.5 -342.5h-467q-25 109 -90 109q-42 0 -70.5 -47.5t-28.5 -120.5q0 -74 28.5 -122t70.5 -48q34 0 57.5 30t34.5 79h465z" />
<glyph unicode="d" d="M725 1440h465v-1440h-465l12 152q-114 -172 -295 -172q-170 0 -279.5 150.5t-109.5 385.5q0 234 109.5 385.5t279.5 151.5q169 0 283 -156v543zM629 373q41 0 68.5 40t27.5 103q0 62 -27 101.5t-69 39.5q-43 0 -72 -39.5t-29 -101.5t29 -102.5t72 -40.5z" />
<glyph unicode="e" horiz-adv-x="1251" d="M1200 508q0 -17 -4 -62h-655q6 -85 32 -131.5t68 -46.5q28 0 51 21.5t33 60.5h453q-52 -172 -197.5 -271t-345.5 -99q-267 0 -424.5 144t-157.5 392q0 233 163 385t413 152q164 0 294.5 -70t203.5 -194.5t73 -280.5zM641 758q-74 0 -96 -135h190q-9 64 -34 99.5t-60 35.5 z" />
<glyph unicode="f" horiz-adv-x="894" d="M754 1147q-57 0 -90 -33t-35 -84h217v-385h-193v-645h-465v645h-133v385h133q11 189 166 310.5t389 121.5q53 0 103 -6v-330q-51 21 -92 21z" />
<glyph unicode="g" d="M725 1030h465v-975q0 -218 -152.5 -351.5t-392.5 -133.5q-222 0 -375 122.5t-161 299.5l426 -2q0 -36 25 -57t67 -21q98 0 98 133v178q-113 -139 -283 -139t-279.5 136.5t-109.5 348.5q0 211 109.5 347.5t279.5 136.5q89 0 164.5 -40.5t128.5 -113.5zM629 432 q42 0 69 37.5t27 97.5q0 61 -27.5 100.5t-68.5 39.5q-43 0 -72 -39.5t-29 -100.5q0 -59 29 -97t72 -38z" />
<glyph unicode="h" horiz-adv-x="1245" d="M831 1053q152 0 242 -100.5t90 -270.5v-682h-465v612q0 29 -20.5 50.5t-48.5 21.5q-29 0 -50.5 -21.5t-21.5 -50.5v-612h-465v1440h465v-561q52 81 124.5 127.5t149.5 46.5z" />
<glyph unicode="i" horiz-adv-x="679" d="M604 1337q0 -103 -74.5 -170t-189.5 -67q-116 0 -190 67t-74 170t74 170.5t190 67.5q115 0 189.5 -67.5t74.5 -170.5zM106 1030h465v-1030h-465v1030z" />
<glyph unicode="j" horiz-adv-x="679" d="M604 1337q0 -103 -74.5 -170t-189.5 -67q-116 0 -190 67t-74 170t74 170.5t190 67.5q115 0 189.5 -67.5t74.5 -170.5zM571 1030v-1440h-465v1440h465z" />
<glyph unicode="k" horiz-adv-x="1316" d="M1305 1030l-299 -483l299 -547h-541l-207 438v-438h-465v1440h465v-797l207 387h541z" />
<glyph unicode="l" horiz-adv-x="649" d="M92 1440h465v-1440h-465v1440z" />
<glyph unicode="m" horiz-adv-x="1818" d="M1399 1053q154 0 246 -99.5t92 -263.5v-690h-465v623q0 25 -19 43t-45 18q-25 0 -43 -18t-18 -43v-623h-465v623q0 25 -19 43t-45 18q-25 0 -43 -18t-18 -43v-623h-465v1030h465l-22 -164q42 86 117 136.5t165 50.5q89 0 165.5 -49.5t119.5 -135.5q43 85 122.5 135 t174.5 50z" />
<glyph unicode="n" horiz-adv-x="1243" d="M852 1053q137 0 223 -101.5t86 -269.5v-682h-465v612q0 29 -20.5 50.5t-48.5 21.5q-29 0 -50.5 -21.5t-21.5 -50.5v-612h-465v1030h465l-10 -176q48 92 129 145.5t178 53.5z" />
<glyph unicode="o" horiz-adv-x="1251" d="M629 1053q249 0 410 -152t161 -385q0 -235 -161 -385.5t-410 -150.5q-251 0 -413.5 151t-162.5 385q0 233 163 385t413 152zM627 709q-60 0 -93.5 -51t-33.5 -142t33.5 -142.5t93.5 -51.5q58 0 91.5 51.5t33.5 142.5t-33 142t-92 51z" />
<glyph unicode="p" d="M840 1053q170 0 279.5 -151.5t109.5 -385.5q0 -235 -109.5 -385.5t-279.5 -150.5q-171 0 -283 153v-543h-465v1440h465l-12 -151q115 174 295 174zM659 373q40 0 67.5 40.5t27.5 102.5t-27.5 101.5t-67.5 39.5q-43 0 -72.5 -39.5t-29.5 -101.5t29.5 -102.5t72.5 -40.5z " />
<glyph unicode="q" d="M725 1030h465v-1440h-465v543q-112 -153 -283 -153q-170 0 -279.5 150.5t-109.5 385.5q0 234 109.5 385.5t279.5 151.5q180 0 295 -174zM629 373q41 0 68.5 40t27.5 103q0 62 -27 101.5t-69 39.5q-43 0 -72 -39.5t-29 -101.5t29 -102.5t72 -40.5z" />
<glyph unicode="r" horiz-adv-x="868" d="M547 874q52 95 128 147t167 52v-461q-127 0 -206 -46.5t-79 -121.5v-444h-465v1030h465z" />
<glyph unicode="s" horiz-adv-x="1159" d="M571 1053q224 0 358 -98t134 -261h-406q-2 43 -26 67.5t-66 24.5q-28 0 -45.5 -13t-17.5 -36t23 -39.5t85 -27.5q7 -1 40 -5.5t53.5 -7.5t60 -10.5t66.5 -15.5t65 -22.5t64 -31t54 -41t45.5 -52t28.5 -65t11 -79.5q0 -164 -138 -262t-370 -98q-240 0 -381 96.5 t-141 261.5h424q1 -38 25 -61t61 -23q32 0 51.5 14.5t19.5 34.5q0 54 -143 68q-7 1 -34 3t-45.5 4t-51.5 7.5t-56.5 12t-55 19t-54.5 27.5t-46.5 37.5t-38.5 49.5t-24.5 63.5t-9.5 79.5q0 172 130.5 275.5t350.5 103.5z" />
<glyph unicode="t" horiz-adv-x="958" d="M922 1030v-385h-224v-645h-465v645h-192v385h192v279h465v-279h224z" />
<glyph unicode="u" horiz-adv-x="1241" d="M1159 1030v-600q0 -194 -152.5 -322t-383.5 -128q-153 0 -277 58.5t-194 161.5t-70 230v600h465v-600q0 -29 21.5 -50.5t52.5 -21.5q29 0 50 21.5t21 50.5v600h467z" />
<glyph unicode="v" horiz-adv-x="1286" d="M784 1030h494l-358 -1030h-553l-357 1030h492l141 -624z" />
<glyph unicode="w" horiz-adv-x="1863" d="M1380 1030h478l-261 -1030h-589l-76 399l-76 -399h-588l-260 1030h477l117 -678l125 678h410l127 -678z" />
<glyph unicode="x" horiz-adv-x="1329" d="M1321 0h-533l-122 274l-123 -274h-535l354 522l-342 508h535l111 -250l110 250h533l-340 -504z" />
<glyph unicode="y" horiz-adv-x="1329" d="M834 1030h485l-633 -1442h-483l256 506l-449 936h492l170 -440z" />
<glyph unicode="z" horiz-adv-x="1177" d="M676 385h411v-385h-1001v344l406 301h-394v385h983v-344z" />
<glyph unicode="{" horiz-adv-x="780" d="M610 815q0 -171 -164 -237q164 -66 164 -238v-346q0 -56 15 -85.5t63 -29.5v-309q-114 0 -200 22t-140.5 59t-88.5 92t-47 115.5t-13 135.5v346q0 50 -25 66t-100 16v309q75 0 100 16t25 68v340q0 73 13 133t47 115t88.5 92.5t140.5 59.5t200 22v-309q-48 0 -63 -29 t-15 -84v-340z" />
<glyph unicode="|" horiz-adv-x="600" d="M131 1638h338v-2048h-338v2048z" />
<glyph unicode="}" horiz-adv-x="780" d="M582 815q0 -52 25 -68t100 -16v-309q-75 0 -100 -16t-25 -66v-346q0 -75 -13.5 -135.5t-47.5 -115.5t-88.5 -92t-140.5 -59t-200 -22v309q48 0 63 29.5t15 85.5v346q0 172 164 238q-164 66 -164 237v340q0 55 -15 84t-63 29v309q114 0 200.5 -22t140.5 -59.5t88 -92.5 t47.5 -115t13.5 -133v-340z" />
<glyph unicode="~" horiz-adv-x="1112" d="M90 825q139 33 260 33q90 0 205.5 -25.5t204.5 -25.5q101 0 262 33v-338q-143 -33 -260 -33q-90 0 -205.5 25.5t-204.5 25.5q-105 0 -262 -33v338z" />
<glyph unicode="&#xa1;" horiz-adv-x="886" d="M459 575q-110 0 -182 67.5t-72 170.5t72 170.5t182 67.5t182 -67.5t72 -170.5t-72 -170.5t-182 -67.5zM752 -408h-598l98 873h401z" />
<glyph unicode="&#xa2;" horiz-adv-x="1234" d="M627 346q34 0 57.5 30t34.5 79h465q-7 -168 -116 -291.5t-280 -165.5v-158h-313v156q-191 43 -306.5 184t-115.5 336q0 194 116 334.5t306 183.5v156h313v-158q171 -42 280 -165.5t116 -291.5h-467q-25 109 -90 109q-42 0 -70.5 -47.5t-28.5 -120.5q0 -74 28.5 -122 t70.5 -48z" />
<glyph unicode="&#xa3;" horiz-adv-x="1333" d="M631 436h612v-436h-1149v475q35 0 62.5 15t38.5 40h-101v338h123q54 266 263 430t503 164q115 0 199 -22v-490q-88 58 -199 58q-77 0 -141 -37.5t-103 -102.5h174v-338h-233q-15 -41 -49 -94z" />
<glyph unicode="&#xa4;" horiz-adv-x="1011" d="M930 639q0 -129 -74 -233l102 -103l-116 -119l-111 113q-104 -55 -225 -55q-130 0 -225 53l-111 -111l-119 119l103 103q-72 97 -72 233q0 134 72 231l-103 103l119 117l111 -109q95 53 225 53q128 0 223 -53l113 111l116 -117l-102 -105q74 -99 74 -231zM506 530 q44 0 73 31.5t29 77.5t-29 76t-73 30q-46 0 -75.5 -30t-29.5 -76t30 -77.5t75 -31.5z" />
<glyph unicode="&#xa5;" horiz-adv-x="1644" d="M1616 1440l-426 -719h172v-264h-1079v264h172l-426 719h561l233 -486l234 486h559zM283 160v264h1079v-264h-293v-160h-494v160h-292z" />
<glyph unicode="&#xa6;" horiz-adv-x="600" d="M131 883v755h338v-755h-338zM131 -410v756h338v-756h-338z" />
<glyph unicode="&#xa7;" horiz-adv-x="1476" d="M1399 463q0 -149 -88 -264q28 -70 28 -156q0 -204 -173.5 -338.5t-438.5 -134.5q-249 0 -418 137.5t-178 349.5h483q6 -33 38 -54t77 -21q43 0 75 18.5t32 44.5q0 28 -32.5 47t-85.5 28.5t-121 23t-139 27.5t-139 44.5t-121 72t-85.5 113t-32.5 164.5q0 152 88 266 q-31 74 -31 158q0 133 79.5 241.5t220.5 170t315 61.5q164 0 298 -63t212.5 -174.5t83.5 -251.5h-482q-8 34 -39 56t-75 22t-75.5 -20t-31.5 -46q0 -28 32.5 -47t85.5 -28.5t121 -23t139 -27.5t139 -45t121 -73t85.5 -113.5t32.5 -164.5zM516 565q0 -34 58 -51t185 -34.5 t202 -35.5q2 6 2 15q0 36 -57.5 54t-185.5 35.5t-202 35.5q-2 -6 -2 -19z" />
<glyph unicode="&#xa8;" horiz-adv-x="907" d="M401 1356q0 -79 -55.5 -129.5t-144.5 -50.5q-86 0 -143.5 51t-57.5 129q0 76 57.5 127t143.5 51q88 0 144 -50.5t56 -127.5zM907 1356q0 -79 -55.5 -129.5t-144.5 -50.5q-86 0 -143.5 51t-57.5 129q0 76 57.5 127t143.5 51q88 0 144 -50.5t56 -127.5z" />
<glyph unicode="&#xa9;" horiz-adv-x="1687" d="M844 1462q219 0 394 -95t273.5 -265t98.5 -383q0 -212 -98.5 -381t-273.5 -263.5t-394 -94.5t-394 94.5t-273.5 263.5t-98.5 381q0 213 98.5 383t273.5 265t394 95zM844 1243q-234 0 -386.5 -147.5t-152.5 -374.5q0 -228 152.5 -376t386.5 -148t386 148t152 376 q0 227 -152.5 374.5t-385.5 147.5zM1159 682q-4 -118 -93.5 -194t-221.5 -76q-143 0 -236.5 86t-93.5 219t93.5 220t236.5 87q132 0 221.5 -77t93.5 -195h-266q-14 61 -51 61q-24 0 -40 -27t-16 -69q0 -41 16.5 -68.5t39.5 -27.5q39 0 53 61h264z" />
<glyph unicode="&#xaa;" horiz-adv-x="987" d="M557 1450h299v-659h-299l10 98q-75 -115 -200 -115q-116 0 -191.5 98t-75.5 248t75.5 246t191.5 96q125 0 200 -112zM500 1042q26 0 41.5 22t15.5 56q0 33 -15.5 53.5t-41.5 20.5q-27 0 -45.5 -21t-18.5 -53q0 -33 18.5 -55.5t45.5 -22.5z" />
<glyph unicode="&#xab;" horiz-adv-x="1396" d="M739 901l-256 -379l256 -379h-389l-254 379l254 379h389zM1270 901l-256 -379l256 -379h-389l-254 379l254 379h389z" />
<glyph unicode="&#xac;" horiz-adv-x="1224" d="M90 956h1026v-639h-289v375h-737v264z" />
<glyph unicode="&#xad;" horiz-adv-x="1099" d="M90 698h920v-340h-920v340z" />
<glyph unicode="&#xae;" horiz-adv-x="1687" d="M844 1462q219 0 394 -95t273.5 -265t98.5 -383q0 -212 -98.5 -381t-273.5 -263.5t-394 -94.5t-394 94.5t-273.5 263.5t-98.5 381q0 213 98.5 383t273.5 265t394 95zM844 197q234 0 386 148t152 376q0 227 -152.5 374.5t-385.5 147.5q-234 0 -386.5 -147.5t-152.5 -374.5 q0 -228 152.5 -376t386.5 -148zM1157 799q0 -60 -29 -108.5t-79 -76.5l122 -184h-260l-92 154h-47v-154h-227v582h383q98 0 163.5 -60.5t65.5 -152.5zM924 786q0 11 -7.5 19t-17.5 8h-127v-53h127q10 0 17.5 7.5t7.5 18.5z" />
<glyph unicode="&#xaf;" horiz-adv-x="679" d="M0 1419h680v-286h-680v286z" />
<glyph unicode="&#xb0;" horiz-adv-x="737" d="M369 1444q115 0 188.5 -71.5t73.5 -182.5q0 -113 -73.5 -184.5t-188.5 -71.5q-114 0 -188.5 72t-74.5 184q0 110 74.5 182t188.5 72zM369 1290q-44 0 -73.5 -28.5t-29.5 -71.5q0 -44 29.5 -73.5t73.5 -29.5t73 29.5t29 73.5q0 43 -29 71.5t-73 28.5z" />
<glyph unicode="&#xb1;" horiz-adv-x="1150" d="M719 797h317v-267h-317v-147h-289v147h-315v267h315v354h289v-354zM115 53v269h921v-269h-921z" />
<glyph unicode="&#xb2;" horiz-adv-x="987" d="M520 1174h406v-289h-869v28q0 89 19.5 163.5t45.5 120.5t67 85t68.5 57t64.5 37q117 63 176 107.5t59 87.5q0 25 -19.5 42t-41.5 17q-29 0 -54 -26t-26 -62h-340q1 113 57 201t154.5 136t222.5 48q176 0 289.5 -94t113.5 -242q0 -58 -18.5 -111t-45 -90t-63.5 -70 t-66 -52t-61 -35q-28 -14 -76.5 -33.5t-62.5 -25.5z" />
<glyph unicode="&#xb3;" horiz-adv-x="1001" d="M782 1409q78 -30 125 -91.5t47 -141.5q0 -127 -122.5 -216.5t-307.5 -89.5q-195 0 -323 102.5t-131 266.5h364q5 -27 30 -48.5t56 -21.5q26 0 42 16.5t16 41.5q0 29 -22.5 49t-68.5 20h-61v191h59q43 0 65.5 22t22.5 54q0 27 -14.5 44t-40.5 17q-33 0 -57 -25t-27 -57 h-336q9 174 126 279.5t304 105.5q166 0 281 -85t115 -208q0 -69 -39.5 -131t-102.5 -94z" />
<glyph unicode="&#xb4;" horiz-adv-x="661" d="M195 1440h467l-312 -314h-350z" />
<glyph unicode="&#xb6;" horiz-adv-x="1611" d="M707 1440h786v-1645h-289v1381h-137v-1381h-289v445h-71q-183 0 -331 77t-231.5 215.5t-83.5 311.5q0 170 83.5 306.5t231.5 213t331 76.5z" />
<glyph unicode="&#xb7;" horiz-adv-x="804" d="M401 934q134 0 220 -80.5t86 -204.5q0 -123 -86.5 -202.5t-219.5 -79.5q-132 0 -217.5 79.5t-85.5 202.5q0 124 85.5 204.5t217.5 80.5z" />
<glyph unicode="&#xb8;" horiz-adv-x="301" d="M78 -68q99 0 161 -52.5t62 -139.5q0 -86 -62 -138.5t-161 -52.5q-33 0 -78 9v155q20 -4 33 -4q51 0 51 31q0 14 -14 23.5t-37 9.5q-13 0 -33 -4v153q50 10 78 10z" />
<glyph unicode="&#xb9;" horiz-adv-x="745" d="M342 1911h311v-1026h-385v610h-213v221q124 0 205.5 54.5t81.5 140.5z" />
<glyph unicode="&#xba;" horiz-adv-x="933" d="M469 1462q158 0 261.5 -97.5t103.5 -246.5t-103.5 -246.5t-261.5 -97.5q-161 0 -265 97t-104 247t104 247t265 97zM469 1204q-27 0 -44 -24.5t-17 -63.5q0 -38 17 -61t44 -23q24 0 40.5 23.5t16.5 60.5q0 39 -16.5 63.5t-40.5 24.5z" />
<glyph unicode="&#xbb;" horiz-adv-x="1396" d="M516 901l254 -379l-254 -379h-389l256 379l-256 379h389zM1047 901l253 -379l-253 -379h-390l256 379l-256 379h390z" />
<glyph unicode="&#xbc;" horiz-adv-x="2322" d="M653 414h-385v610h-213v221q124 0 205.5 54.5t81.5 140.5h311v-1026zM1421 1434h221l-868 -1434h-215zM2304 477v-289h-147v-188h-388l-2 188h-413v269l334 569h469v-549h147zM1769 670l-112 -193h108z" />
<glyph unicode="&#xbd;" horiz-adv-x="2320" d="M653 414h-385v610h-213v221q124 0 205.5 54.5t81.5 140.5h311v-1026zM1421 1434h221l-868 -1434h-215zM1853 289h406v-289h-868v29q0 89 19.5 163.5t45.5 120.5t66.5 85t68 57t64.5 37q118 63 176.5 107t58.5 87q0 25 -19.5 42t-41.5 17q-29 0 -54 -26t-26 -62h-340 q1 113 57 201t154.5 136t222.5 48q176 0 290 -93.5t114 -241.5q0 -58 -18.5 -111t-45 -90t-63.5 -70.5t-66.5 -52.5t-60.5 -35q-28 -14 -77 -33.5t-63 -25.5z" />
<glyph unicode="&#xbe;" horiz-adv-x="2529" d="M954 705q0 -127 -122.5 -216.5t-307.5 -89.5q-195 0 -323 102.5t-131 266.5h364q5 -27 30 -48.5t56 -21.5q26 0 42 16.5t16 41.5q0 29 -22.5 49t-68.5 20h-61v191h59q43 0 65.5 22t22.5 54q0 27 -14.5 44t-40.5 17q-33 0 -57 -25t-27 -57h-336q9 174 126 279.5t304 105.5 q166 0 281 -85t115 -208q0 -69 -39.5 -131t-102.5 -94q78 -30 125 -91.5t47 -141.5zM1628 1434h221l-868 -1434h-215zM2513 477v-289h-148v-188h-387l-2 188h-413v269l333 569h469v-549h148zM1978 670l-112 -193h108z" />
<glyph unicode="&#xbf;" horiz-adv-x="1280" d="M643 573q-110 0 -182 67.5t-72 170.5t72 170.5t182 67.5t182 -67.5t72 -170.5t-72 -170.5t-182 -67.5zM764 57h463q0 -213 -169 -350t-431 -137q-250 0 -412 115t-162 290q0 136 104 235t275 128l19 125h399l31 -285h-52q-139 2 -220 -33t-81 -98q0 -40 33.5 -66 t79.5 -26q48 0 83.5 29t39.5 73z" />
<glyph unicode="&#xc0;" horiz-adv-x="1593" d="M1016 1538h-350l-312 313h467zM1053 0l-54 203h-403l-53 -203h-535l488 1440h602l489 -1440h-534zM682 522h231l-116 428z" />
<glyph unicode="&#xc1;" horiz-adv-x="1593" d="M1241 1851l-311 -313h-350l194 313h467zM1053 0l-54 203h-403l-53 -203h-535l488 1440h602l489 -1440h-534zM682 522h231l-116 428z" />
<glyph unicode="&#xc2;" horiz-adv-x="1593" d="M797 1638l-92 -100h-351l197 313h446h47l197 -313h-350zM1053 0l-54 203h-403l-53 -203h-535l488 1440h602l489 -1440h-534zM682 522h231l-116 428z" />
<glyph unicode="&#xc3;" horiz-adv-x="1593" d="M711 1612q-12 0 -20.5 -17t-8.5 -43h-229q0 157 63 247.5t172 90.5q48 0 89 -19t67.5 -37.5t38.5 -18.5q30 0 30 61h232q0 -156 -64.5 -247t-175.5 -91q-46 0 -87.5 18.5t-68.5 37t-38 18.5zM1053 0l-54 203h-403l-53 -203h-535l488 1440h602l489 -1440h-534zM682 522 h231l-116 428z" />
<glyph unicode="&#xc4;" horiz-adv-x="1593" d="M545 1587q-86 0 -143.5 51t-57.5 129q0 77 57.5 128t143.5 51q88 0 144 -51t56 -128q0 -79 -55.5 -129.5t-144.5 -50.5zM1051 1587q-86 0 -143.5 51t-57.5 129q0 77 57.5 128t143.5 51q88 0 144 -51t56 -128q0 -79 -55.5 -129.5t-144.5 -50.5zM1053 0l-54 203h-403 l-53 -203h-535l488 1440h602l489 -1440h-534zM682 522h231l-116 428z" />
<glyph unicode="&#xc5;" horiz-adv-x="1593" d="M1053 0l-54 203h-403l-53 -203h-535l488 1440h26q-57 79 -57 186q0 140 96.5 230t247.5 90q152 0 249 -90t97 -230q0 -107 -57 -186l489 -1440h-534zM809 1696q-31 0 -51.5 -19.5t-20.5 -50.5t20.5 -50.5t51.5 -19.5q32 0 53 19.5t21 50.5t-21 50.5t-53 19.5zM682 522 h231l-116 428z" />
<glyph unicode="&#xc6;" horiz-adv-x="2045" d="M1952 1028h-713l37 -110h606v-396h-473l39 -110h504v-412h-778h-121l-54 203h-403l-53 -203h-535l488 1440h602h854v-412zM682 522h231l-116 428z" />
<glyph unicode="&#xc7;" horiz-adv-x="1640" d="M1575 612q-31 -280 -240 -456t-514 -176q-219 0 -394 94.5t-273.5 263.5t-98.5 381q0 213 98.5 383t273.5 265t394 95q306 0 514.5 -177t239.5 -460h-506q-24 81 -90.5 132t-157.5 51q-115 0 -188.5 -80.5t-73.5 -206.5t73.5 -207.5t188.5 -81.5q89 0 155 50t93 130h506z M780 -70q99 0 161.5 -52.5t62.5 -139.5q0 -86 -62.5 -138.5t-161.5 -52.5q-33 0 -78 9v155q20 -4 33 -4q51 0 51 31q0 14 -14 23.5t-37 9.5q-13 0 -33 -4v153q50 10 78 10z" />
<glyph unicode="&#xc8;" horiz-adv-x="1267" d="M856 1538h-350l-311 313h467zM1174 1028h-578v-110h508v-396h-508v-110h578v-412h-795h-279v1440h496h578v-412z" />
<glyph unicode="&#xc9;" horiz-adv-x="1267" d="M1083 1851l-311 -313h-350l194 313h467zM1174 1028h-578v-110h508v-396h-508v-110h578v-412h-795h-279v1440h496h578v-412z" />
<glyph unicode="&#xca;" horiz-adv-x="1267" d="M637 1638l-92 -100h-350l196 313h447h47l196 -313h-350zM1174 1028h-578v-110h508v-396h-508v-110h578v-412h-795h-279v1440h496h578v-412z" />
<glyph unicode="&#xcb;" horiz-adv-x="1267" d="M385 1587q-86 0 -143.5 51t-57.5 129q0 77 57.5 128t143.5 51q88 0 144.5 -51t56.5 -128q0 -78 -56 -129t-145 -51zM891 1587q-86 0 -143.5 51t-57.5 129q0 77 57.5 128t143.5 51q88 0 144.5 -51t56.5 -128q0 -78 -56 -129t-145 -51zM1174 1028h-578v-110h508v-396h-508 v-110h578v-412h-795h-279v1440h496h578v-412z" />
<glyph unicode="&#xcc;" horiz-adv-x="696" d="M373 1851l194 -313h-350l-311 313h467zM596 1440v-1440h-496v1440h496z" />
<glyph unicode="&#xcd;" horiz-adv-x="696" d="M326 1851h467l-312 -313h-350zM596 1440v-1440h-496v1440h496z" />
<glyph unicode="&#xce;" horiz-adv-x="696" d="M348 1638l-92 -100h-350l196 313h447h47l197 -313h-351zM100 0v1440h496v-1440h-496z" />
<glyph unicode="&#xcf;" horiz-adv-x="696" d="M295 1767q0 -78 -56 -129t-145 -51q-86 0 -143 51t-57 129q0 77 57 128t143 51q88 0 144.5 -51t56.5 -128zM801 1767q0 -78 -56 -129t-145 -51q-86 0 -143.5 51t-57.5 129q0 77 57.5 128t143.5 51q88 0 144.5 -51t56.5 -128zM596 1440v-1440h-496v1440h496z" />
<glyph unicode="&#xd0;" horiz-adv-x="1511" d="M715 1440q211 0 380.5 -93t265 -258t95.5 -370q0 -204 -95.5 -368.5t-265 -257.5t-380.5 -93h-615v573h-82v287h82v580h615zM711 436q102 0 171.5 82t69.5 203t-69.5 202t-171.5 81h-115v-144h102v-287h-102v-137h115z" />
<glyph unicode="&#xd1;" horiz-adv-x="1552" d="M688 1612q-12 0 -20.5 -17t-8.5 -43h-229q0 157 63.5 247.5t172.5 90.5q48 0 89 -19t67 -37.5t38 -18.5q31 0 31 61h231q0 -157 -64.5 -247.5t-174.5 -90.5q-46 0 -88 18.5t-69 37t-38 18.5zM956 1440h496v-1440h-629l-227 772v-772h-496v1440h629l227 -772v772z" />
<glyph unicode="&#xd2;" horiz-adv-x="1642" d="M846 1851l194 -313h-350l-311 313h467zM821 1462q219 0 394 -95t273.5 -265t98.5 -383q0 -212 -98.5 -381t-273.5 -263.5t-394 -94.5t-394 94.5t-273.5 263.5t-98.5 381q0 213 98.5 383t273.5 265t394 95zM821 1008q-114 0 -188 -80.5t-74 -206.5t74 -207.5t188 -81.5 t188 81.5t74 207.5t-74 206.5t-188 80.5z" />
<glyph unicode="&#xd3;" horiz-adv-x="1642" d="M799 1851h467l-312 -313h-350zM821 1462q219 0 394 -95t273.5 -265t98.5 -383q0 -212 -98.5 -381t-273.5 -263.5t-394 -94.5t-394 94.5t-273.5 263.5t-98.5 381q0 213 98.5 383t273.5 265t394 95zM821 1008q-114 0 -188 -80.5t-74 -206.5t74 -207.5t188 -81.5t188 81.5 t74 207.5t-74 206.5t-188 80.5z" />
<glyph unicode="&#xd4;" horiz-adv-x="1642" d="M821 1638l-92 -100h-350l196 313h447h47l197 -313h-351zM821 1462q219 0 394 -95t273.5 -265t98.5 -383q0 -212 -98.5 -381t-273.5 -263.5t-394 -94.5t-394 94.5t-273.5 263.5t-98.5 381q0 213 98.5 383t273.5 265t394 95zM821 432q114 0 188 81.5t74 207.5t-74 206.5 t-188 80.5t-188 -80.5t-74 -206.5t74 -207.5t188 -81.5z" />
<glyph unicode="&#xd5;" horiz-adv-x="1642" d="M711 1890q48 0 89 -19t67 -37.5t38 -18.5q31 0 31 61h231q0 -157 -64.5 -247.5t-174.5 -90.5q-46 0 -88 18.5t-69 37t-38 18.5q-12 0 -20 -17t-8 -43h-230q0 157 63.5 247.5t172.5 90.5zM821 1462q219 0 394 -95t273.5 -265t98.5 -383q0 -212 -98.5 -381t-273.5 -263.5 t-394 -94.5t-394 94.5t-273.5 263.5t-98.5 381q0 213 98.5 383t273.5 265t394 95zM821 1008q-114 0 -188 -80.5t-74 -206.5t74 -207.5t188 -81.5t188 81.5t74 207.5t-74 206.5t-188 80.5z" />
<glyph unicode="&#xd6;" horiz-adv-x="1642" d="M768 1767q0 -78 -56 -129t-145 -51q-86 0 -143 51t-57 129q0 77 57 128t143 51q88 0 144.5 -51t56.5 -128zM1274 1767q0 -78 -56 -129t-145 -51q-86 0 -143.5 51t-57.5 129q0 77 57.5 128t143.5 51q88 0 144.5 -51t56.5 -128zM821 1462q219 0 394 -95t273.5 -265 t98.5 -383q0 -212 -98.5 -381t-273.5 -263.5t-394 -94.5t-394 94.5t-273.5 263.5t-98.5 381q0 213 98.5 383t273.5 265t394 95zM821 1008q-114 0 -188 -80.5t-74 -206.5t74 -207.5t188 -81.5t188 81.5t74 207.5t-74 206.5t-188 80.5z" />
<glyph unicode="&#xd7;" horiz-adv-x="1171" d="M1057 946l-283 -282l283 -283l-189 -188l-282 282l-283 -282l-188 188l282 283l-282 282l188 189l283 -283l282 283z" />
<glyph unicode="&#xd8;" horiz-adv-x="1662" d="M1610 1542l-228 -301q98 -100 151.5 -233.5t53.5 -288.5q0 -212 -98.5 -381t-273.5 -263.5t-394 -94.5q-184 0 -332 65l-110 -147h-326l217 290q-103 100 -159 236.5t-56 294.5q0 213 98.5 383t273.5 265t394 95q186 0 342 -69l111 149h336zM559 721q0 -54 21 -115 l294 398q-36 4 -53 4q-114 0 -188 -80.5t-74 -206.5zM1083 721q0 46 -14 100l-289 -387q14 -2 41 -2q114 0 188 81.5t74 207.5z" />
<glyph unicode="&#xd9;" horiz-adv-x="1402" d="M725 1851l195 -313h-351l-311 313h467zM1315 1440v-932q0 -149 -79 -270t-218.5 -189.5t-312.5 -68.5q-174 0 -314.5 68.5t-220.5 189.5t-80 270v932h494v-903q0 -44 34 -74.5t84 -30.5q48 0 82.5 30.5t34.5 74.5v903h496z" />
<glyph unicode="&#xda;" horiz-adv-x="1402" d="M678 1851h467l-311 -313h-351zM1315 1440v-932q0 -149 -79 -270t-218.5 -189.5t-312.5 -68.5q-174 0 -314.5 68.5t-220.5 189.5t-80 270v932h494v-903q0 -44 34 -74.5t84 -30.5q48 0 82.5 30.5t34.5 74.5v903h496z" />
<glyph unicode="&#xdb;" horiz-adv-x="1402" d="M700 1638l-92 -100h-350l197 313h446h47l197 -313h-350zM819 1440h496v-932q0 -149 -79 -270t-218.5 -189.5t-312.5 -68.5q-174 0 -314.5 68.5t-220.5 189.5t-80 270v932h494v-903q0 -44 34 -74.5t84 -30.5q48 0 82.5 30.5t34.5 74.5v903z" />
<glyph unicode="&#xdc;" horiz-adv-x="1402" d="M649 1767q0 -79 -55.5 -129.5t-144.5 -50.5q-86 0 -143.5 51t-57.5 129q0 77 57.5 128t143.5 51q88 0 144 -51t56 -128zM1155 1767q0 -78 -56 -129t-145 -51q-86 0 -143 51t-57 129q0 77 57 128t143 51q88 0 144.5 -51t56.5 -128zM1315 1440v-932q0 -149 -79 -270 t-218.5 -189.5t-312.5 -68.5q-174 0 -314.5 68.5t-220.5 189.5t-80 270v932h494v-903q0 -44 34 -74.5t84 -30.5q48 0 82.5 30.5t34.5 74.5v903h496z" />
<glyph unicode="&#xdd;" horiz-adv-x="1593" d="M1241 1851l-311 -313h-350l194 313h467zM1589 1440l-540 -908v-532h-496v516l-551 924h561l234 -486l233 486h559z" />
<glyph unicode="&#xde;" horiz-adv-x="1411" d="M842 1276q236 0 391.5 -152.5t155.5 -384.5q0 -229 -155.5 -379.5t-391.5 -150.5h-246v-209h-496v1440h496v-164h246zM786 641q41 0 70 29t29 69q0 41 -29 71t-70 30h-190v-199h190z" />
<glyph unicode="&#xdf;" horiz-adv-x="1314" d="M1071 788q191 -145 191 -354q0 -195 -146 -320.5t-383 -125.5q-71 0 -102 4v395q27 -14 69 -14q59 0 93 31.5t34 82.5q0 64 -54 104t-140 40v299q40 -3 63 20t23 60t-22 60.5t-58 23.5q-35 0 -58.5 -21.5t-23.5 -52.5v-1020h-465v1038q0 185 149.5 304.5t379.5 119.5 q232 0 383 -120t151 -304q0 -137 -84 -250z" />
<glyph unicode="&#xe0;" d="M889 1126h-350l-312 314h467zM725 1030h465v-1030h-465l10 152q-53 -83 -128 -127.5t-165 -44.5q-170 0 -279.5 150.5t-109.5 385.5q0 234 109.5 385.5t279.5 151.5q90 0 166 -45.5t129 -128.5zM629 373q41 0 68.5 40t27.5 103q0 62 -27 101.5t-69 39.5q-43 0 -72 -39.5 t-29 -101.5t29 -102.5t72 -40.5z" />
<glyph unicode="&#xe1;" d="M1114 1440l-311 -314h-350l194 314h467zM725 1030h465v-1030h-465l10 152q-53 -83 -128 -127.5t-165 -44.5q-170 0 -279.5 150.5t-109.5 385.5q0 234 109.5 385.5t279.5 151.5q90 0 166 -45.5t129 -128.5zM629 373q41 0 68.5 40t27.5 103q0 62 -27 101.5t-69 39.5 q-43 0 -72 -39.5t-29 -101.5t29 -102.5t72 -40.5z" />
<glyph unicode="&#xe2;" d="M670 1227l-92 -101h-351l197 314h446h48l196 -314h-350zM725 1030h465v-1030h-465l10 152q-53 -83 -128 -127.5t-165 -44.5q-170 0 -279.5 150.5t-109.5 385.5q0 234 109.5 385.5t279.5 151.5q90 0 166 -45.5t129 -128.5zM629 373q41 0 68.5 40t27.5 103q0 62 -27 101.5 t-69 39.5q-43 0 -72 -39.5t-29 -101.5t29 -102.5t72 -40.5z" />
<glyph unicode="&#xe3;" d="M582 1200q-12 0 -20.5 -16.5t-8.5 -42.5h-229q0 157 63 247.5t172 90.5q48 0 89 -19t67.5 -38t38.5 -19q30 0 30 61h232q0 -156 -64.5 -247t-175.5 -91q-46 0 -87.5 18.5t-68.5 37t-38 18.5zM725 1030h465v-1030h-465l10 152q-53 -83 -128 -127.5t-165 -44.5 q-170 0 -279.5 150.5t-109.5 385.5q0 234 109.5 385.5t279.5 151.5q90 0 166 -45.5t129 -128.5zM629 373q41 0 68.5 40t27.5 103q0 62 -27 101.5t-69 39.5q-43 0 -72 -39.5t-29 -101.5t29 -102.5t72 -40.5z" />
<glyph unicode="&#xe4;" d="M418 1176q-86 0 -143.5 51t-57.5 129q0 76 57.5 127t143.5 51q88 0 144 -50.5t56 -127.5q0 -79 -55.5 -129.5t-144.5 -50.5zM924 1176q-86 0 -143.5 51t-57.5 129q0 76 57.5 127t143.5 51q88 0 144 -50.5t56 -127.5q0 -79 -55.5 -129.5t-144.5 -50.5zM725 1030h465v-1030 h-465l10 152q-53 -83 -128 -127.5t-165 -44.5q-170 0 -279.5 150.5t-109.5 385.5q0 234 109.5 385.5t279.5 151.5q90 0 166 -45.5t129 -128.5zM629 373q41 0 68.5 40t27.5 103q0 62 -27 101.5t-69 39.5q-43 0 -72 -39.5t-29 -101.5t29 -102.5t72 -40.5z" />
<glyph unicode="&#xe5;" d="M670 1096q-151 0 -247.5 90t-96.5 231q0 140 96.5 230t247.5 90q152 0 249 -90t97 -230q0 -141 -97 -231t-249 -90zM670 1487q-31 0 -51.5 -20.5t-20.5 -49.5q0 -31 20.5 -51t51.5 -20q32 0 52.5 20t20.5 51q0 30 -20.5 50t-52.5 20zM725 1030h465v-1030h-465l10 152 q-53 -83 -128 -127.5t-165 -44.5q-170 0 -279.5 150.5t-109.5 385.5q0 234 109.5 385.5t279.5 151.5q90 0 166 -45.5t129 -128.5zM629 373q41 0 68.5 40t27.5 103q0 62 -27 101.5t-69 39.5q-43 0 -72 -39.5t-29 -101.5t29 -102.5t72 -40.5z" />
<glyph unicode="&#xe6;" horiz-adv-x="2166" d="M2114 508q0 -5 0.5 -12.5t0.5 -16.5t-1 -24h-660q16 -172 102 -172q21 0 43 18t37 49h459q-49 -167 -176 -268.5t-311 -101.5q-283 0 -418 194v-174h-465l10 152q-53 -83 -128 -127.5t-165 -44.5q-170 0 -279.5 150.5t-109.5 385.5q0 234 109.5 385.5t279.5 151.5 q90 0 166 -45.5t129 -128.5l-12 151h465v-174q65 93 171 145t247 52q242 0 374 -150.5t132 -394.5zM1556 735q-74 0 -96 -121h191q-9 58 -34 89.5t-61 31.5zM629 373q41 0 68.5 40t27.5 103q0 62 -27 101.5t-69 39.5q-43 0 -72 -39.5t-29 -101.5t29 -102.5t72 -40.5z" />
<glyph unicode="&#xe7;" horiz-adv-x="1243" d="M1184 455q-11 -207 -167 -341t-388 -134q-251 0 -413.5 151t-162.5 385q0 233 163 385t413 152q231 0 387.5 -135.5t167.5 -342.5h-467q-25 109 -90 109q-42 0 -70.5 -47.5t-28.5 -120.5q0 -74 28.5 -122t70.5 -48q34 0 57.5 30t34.5 79h465zM586 -78q99 0 161 -52.5 t62 -139.5q0 -86 -62 -138.5t-161 -52.5q-38 0 -78 8v156q20 -4 33 -4q51 0 51 31q0 14 -14 23t-37 9q-13 0 -33 -4v154q50 10 78 10z" />
<glyph unicode="&#xe8;" horiz-adv-x="1251" d="M846 1126h-350l-312 314h467zM1200 508q0 -17 -4 -62h-655q6 -85 32 -131.5t68 -46.5q28 0 51 21.5t33 60.5h453q-52 -172 -197.5 -271t-345.5 -99q-267 0 -424.5 144t-157.5 392q0 233 163 385t413 152q164 0 294.5 -70t203.5 -194.5t73 -280.5zM641 758q-74 0 -96 -135 h190q-9 64 -34 99.5t-60 35.5z" />
<glyph unicode="&#xe9;" horiz-adv-x="1251" d="M1073 1440l-311 -314h-350l194 314h467zM1200 508q0 -17 -4 -62h-655q6 -85 32 -131.5t68 -46.5q28 0 51 21.5t33 60.5h453q-52 -172 -197.5 -271t-345.5 -99q-267 0 -424.5 144t-157.5 392q0 233 163 385t413 152q164 0 294.5 -70t203.5 -194.5t73 -280.5zM641 758 q-74 0 -96 -135h190q-9 64 -34 99.5t-60 35.5z" />
<glyph unicode="&#xea;" horiz-adv-x="1251" d="M627 1227l-92 -101h-351l197 314h446h47l197 -314h-350zM1200 508q0 -17 -4 -62h-655q6 -85 32 -131.5t68 -46.5q28 0 51 21.5t33 60.5h453q-52 -172 -197.5 -271t-345.5 -99q-267 0 -424.5 144t-157.5 392q0 233 163 385t413 152q164 0 294.5 -70t203.5 -194.5 t73 -280.5zM641 758q-74 0 -96 -135h190q-9 64 -34 99.5t-60 35.5z" />
<glyph unicode="&#xeb;" horiz-adv-x="1251" d="M375 1176q-86 0 -143.5 51t-57.5 129q0 76 57.5 127t143.5 51q88 0 144 -50.5t56 -127.5q0 -79 -55.5 -129.5t-144.5 -50.5zM881 1176q-86 0 -143.5 51t-57.5 129q0 76 57.5 127t143.5 51q88 0 144 -50.5t56 -127.5q0 -79 -55.5 -129.5t-144.5 -50.5zM1200 508 q0 -17 -4 -62h-655q6 -85 32 -131.5t68 -46.5q28 0 51 21.5t33 60.5h453q-52 -172 -197.5 -271t-345.5 -99q-267 0 -424.5 144t-157.5 392q0 233 163 385t413 152q164 0 294.5 -70t203.5 -194.5t73 -280.5zM641 758q-74 0 -96 -135h190q-9 64 -34 99.5t-60 35.5z" />
<glyph unicode="&#xec;" horiz-adv-x="669" d="M358 1440l195 -314h-350l-312 314h467zM102 1030h465v-1030h-465v1030z" />
<glyph unicode="&#xed;" horiz-adv-x="669" d="M311 1440h467l-311 -314h-350zM102 1030h465v-1030h-465v1030z" />
<glyph unicode="&#xee;" horiz-adv-x="669" d="M336 1231l-84 -105h-297l188 314h385l187 -314h-295zM102 0v1030h465v-1030h-465z" />
<glyph unicode="&#xef;" horiz-adv-x="720" d="M326 1350q0 -77 -56.5 -128t-144.5 -51q-86 0 -143.5 51t-57.5 128q0 76 57.5 127t143.5 51q89 0 145 -50.5t56 -127.5zM795 1350q0 -77 -56.5 -128t-144.5 -51q-86 0 -143.5 51t-57.5 128q0 76 57.5 127t143.5 51q89 0 145 -50.5t56 -127.5zM127 1030h465v-1030h-465 v1030z" />
<glyph unicode="&#xf0;" horiz-adv-x="1236" d="M961 952q125 -145 174 -237t49 -217q0 -228 -154 -373t-407 -145q-252 0 -411 145.5t-159 372.5q0 136 68 244t177 164.5t237 56.5h10l-66 69l-69 -59l-154 145l78 66l-244 256h453l39 -45l86 71l153 -145l-102 -86zM623 377q43 0 70.5 33.5t27.5 87.5t-27.5 88.5 t-70.5 34.5t-71 -34.5t-28 -88.5t28 -87.5t71 -33.5z" />
<glyph unicode="&#xf1;" horiz-adv-x="1243" d="M537 1200q-12 0 -20.5 -16.5t-8.5 -42.5h-229q0 157 63 247.5t172 90.5q48 0 89 -19t67.5 -38t38.5 -19q30 0 30 61h232q0 -156 -64.5 -247t-175.5 -91q-46 0 -87.5 18.5t-68.5 37t-38 18.5zM852 1053q137 0 223 -101.5t86 -269.5v-682h-465v612q0 29 -20.5 50.5 t-48.5 21.5q-29 0 -50.5 -21.5t-21.5 -50.5v-612h-465v1030h465l-10 -176q48 92 129 145.5t178 53.5z" />
<glyph unicode="&#xf2;" horiz-adv-x="1251" d="M651 1440l195 -314h-350l-312 314h467zM629 1053q249 0 410 -152t161 -385q0 -235 -161 -385.5t-410 -150.5q-251 0 -413.5 151t-162.5 385q0 233 163 385t413 152zM627 709q-60 0 -93.5 -51t-33.5 -142t33.5 -142.5t93.5 -51.5q58 0 91.5 51.5t33.5 142.5t-33 142 t-92 51z" />
<glyph unicode="&#xf3;" horiz-adv-x="1251" d="M606 1440h467l-311 -314h-350zM629 1053q249 0 410 -152t161 -385q0 -235 -161 -385.5t-410 -150.5q-251 0 -413.5 151t-162.5 385q0 233 163 385t413 152zM627 709q-60 0 -93.5 -51t-33.5 -142t33.5 -142.5t93.5 -51.5q58 0 91.5 51.5t33.5 142.5t-33 142t-92 51z" />
<glyph unicode="&#xf4;" horiz-adv-x="1251" d="M627 1227l-92 -101h-351l197 314h446h47l197 -314h-350zM629 1053q249 0 410 -152t161 -385q0 -235 -161 -385.5t-410 -150.5q-251 0 -413.5 151t-162.5 385q0 233 163 385t413 152zM627 322q58 0 91.5 51.5t33.5 142.5t-33 142t-92 51q-60 0 -93.5 -51t-33.5 -142 t33.5 -142.5t93.5 -51.5z" />
<glyph unicode="&#xf5;" horiz-adv-x="1251" d="M518 1479q48 0 89 -19t67.5 -38t38.5 -19q30 0 30 61h232q0 -156 -64.5 -247t-175.5 -91q-46 0 -87.5 18.5t-68.5 37t-38 18.5q-12 0 -20.5 -16.5t-8.5 -42.5h-229q0 157 63 247.5t172 90.5zM629 1053q249 0 410 -152t161 -385q0 -235 -161 -385.5t-410 -150.5 q-251 0 -413.5 151t-162.5 385q0 233 163 385t413 152zM627 709q-60 0 -93.5 -51t-33.5 -142t33.5 -142.5t93.5 -51.5q58 0 91.5 51.5t33.5 142.5t-33 142t-92 51z" />
<glyph unicode="&#xf6;" horiz-adv-x="1251" d="M575 1356q0 -79 -55.5 -129.5t-144.5 -50.5q-86 0 -143.5 51t-57.5 129q0 76 57.5 127t143.5 51q88 0 144 -50.5t56 -127.5zM1081 1356q0 -79 -55.5 -129.5t-144.5 -50.5q-86 0 -143.5 51t-57.5 129q0 76 57.5 127t143.5 51q88 0 144 -50.5t56 -127.5zM629 1053 q249 0 410 -152t161 -385q0 -235 -161 -385.5t-410 -150.5q-251 0 -413.5 151t-162.5 385q0 233 163 385t413 152zM627 709q-60 0 -93.5 -51t-33.5 -142t33.5 -142.5t93.5 -51.5q58 0 91.5 51.5t33.5 142.5t-33 142t-92 51z" />
<glyph unicode="&#xf7;" horiz-adv-x="1224" d="M612 1176q77 0 126.5 -46t49.5 -118q0 -71 -50 -117.5t-126 -46.5q-77 0 -126.5 46.5t-49.5 117.5q0 72 49 118t127 46zM90 797h1045v-267h-1045v267zM612 479q76 0 126 -46t50 -118q0 -71 -50 -117t-126 -46t-126 46t-50 117q0 72 50 118t126 46z" />
<glyph unicode="&#xf8;" horiz-adv-x="1251" d="M1020 918q86 -73 133 -176.5t47 -225.5q0 -235 -161 -385.5t-410 -150.5q-121 0 -219 34l-80 -116h-232l144 208q-90 73 -139.5 178.5t-49.5 231.5q0 233 163 385t413 152q111 0 217 -37l80 117h239zM627 709q-60 0 -93.5 -51t-33.5 -142q0 -38 6 -65l2 2l137 223l14 29 q-20 4 -32 4zM627 322q58 0 91.5 51.5t33.5 142.5q0 7 -1 22.5t-1 22.5l-132 -207l-16 -30q4 0 12 -1t13 -1z" />
<glyph unicode="&#xf9;" horiz-adv-x="1241" d="M647 1440l195 -314h-350l-312 314h467zM1159 1030v-600q0 -194 -152.5 -322t-383.5 -128q-153 0 -277 58.5t-194 161.5t-70 230v600h465v-600q0 -29 21.5 -50.5t52.5 -21.5q29 0 50 21.5t21 50.5v600h467z" />
<glyph unicode="&#xfa;" horiz-adv-x="1241" d="M600 1440h467l-311 -314h-350zM1159 1030v-600q0 -194 -152.5 -322t-383.5 -128q-153 0 -277 58.5t-194 161.5t-70 230v600h465v-600q0 -29 21.5 -50.5t52.5 -21.5q29 0 50 21.5t21 50.5v600h467z" />
<glyph unicode="&#xfb;" horiz-adv-x="1241" d="M623 1227l-93 -101h-350l197 314h446h47l197 -314h-350zM692 1030h467v-600q0 -194 -152.5 -322t-383.5 -128q-153 0 -277 58.5t-194 161.5t-70 230v600h465v-600q0 -29 21.5 -50.5t52.5 -21.5q29 0 50 21.5t21 50.5v600z" />
<glyph unicode="&#xfc;" horiz-adv-x="1241" d="M569 1356q0 -79 -55.5 -129.5t-144.5 -50.5q-86 0 -143.5 51t-57.5 129q0 76 57.5 127t143.5 51q88 0 144 -50.5t56 -127.5zM1075 1356q0 -78 -56 -129t-145 -51q-86 0 -143 51t-57 129q0 77 57 127.5t143 50.5q89 0 145 -50.5t56 -127.5zM1159 1030v-600 q0 -194 -152.5 -322t-383.5 -128q-153 0 -277 58.5t-194 161.5t-70 230v600h465v-600q0 -29 21.5 -50.5t52.5 -21.5q29 0 50 21.5t21 50.5v600h467z" />
<glyph unicode="&#xfd;" horiz-adv-x="1329" d="M1108 1440l-311 -314h-351l195 314h467zM834 1030h485l-633 -1442h-483l256 506l-449 936h492l170 -440z" />
<glyph unicode="&#xfe;" horiz-adv-x="1280" d="M840 1053q169 0 279 -152t110 -385q0 -234 -110 -385t-279 -151q-171 0 -283 153v-543h-467v1850h467v-543q114 156 283 156zM657 373q42 0 69.5 40.5t27.5 102.5t-27.5 101.5t-69.5 39.5q-43 0 -71.5 -39.5t-28.5 -101.5q0 -63 28.5 -103t71.5 -40z" />
<glyph unicode="&#xff;" horiz-adv-x="1329" d="M412 1176q-86 0 -143.5 51t-57.5 129q0 76 57.5 127t143.5 51q88 0 144 -50.5t56 -127.5q0 -79 -55.5 -129.5t-144.5 -50.5zM918 1176q-86 0 -143.5 51t-57.5 129q0 76 57.5 127t143.5 51q88 0 144 -50.5t56 -127.5q0 -79 -55.5 -129.5t-144.5 -50.5zM834 1030h485 l-633 -1442h-483l256 506l-449 936h492l170 -440z" />
<glyph unicode="&#x152;" horiz-adv-x="2136" d="M2042 1028h-578v-110h508v-396h-508v-110h578v-412h-795h-227q-90 -20 -199 -20q-219 0 -394 94.5t-273.5 263.5t-98.5 381q0 213 98.5 383t273.5 265t394 95q103 0 199 -22h444h578v-412zM559 721q0 -126 74 -207.5t188 -81.5q77 0 148 33v510q-62 33 -148 33 q-114 0 -188 -80.5t-74 -206.5z" />
<glyph unicode="&#x153;" horiz-adv-x="1961" d="M1911 508q0 -20 -2 -53h-658q6 -82 32 -127t69 -45q46 0 82 67h454q-48 -163 -190.5 -266.5t-329.5 -103.5q-239 0 -385 137q-149 -137 -377 -137q-242 0 -397.5 150.5t-155.5 385.5q0 234 156 385.5t397 151.5q224 0 377 -140q150 140 385 140q163 0 287 -70.5t190 -194 t66 -280.5zM1352 735q-75 0 -97 -121h191q-9 58 -33.5 89.5t-60.5 31.5zM627 373q43 0 70.5 40t27.5 103t-27.5 102t-70.5 39t-71 -39t-28 -102t28 -103t71 -40z" />
<glyph unicode="&#x178;" horiz-adv-x="1593" d="M543 1587q-86 0 -143.5 51t-57.5 129q0 77 57.5 128t143.5 51q88 0 144 -51t56 -128q0 -79 -55.5 -129.5t-144.5 -50.5zM1049 1587q-86 0 -143.5 51t-57.5 129q0 77 57.5 128t143.5 51q88 0 144 -51t56 -128q0 -79 -55.5 -129.5t-144.5 -50.5zM1589 1440l-540 -908v-532 h-496v516l-551 924h561l234 -486l233 486h559z" />
<glyph unicode="&#x2c6;" horiz-adv-x="886" d="M887 1126h-350l-93 101l-94 -101h-350l197 314h448h45z" />
<glyph unicode="&#x2dc;" horiz-adv-x="692" d="M236 1479q38 0 72 -12t53.5 -26t38.5 -26t30 -12q31 0 31 61h231q0 -157 -64.5 -247.5t-174.5 -90.5q-46 0 -88 18.5t-69 37t-38 18.5q-12 0 -20.5 -16.5t-8.5 -42.5h-229q0 157 63.5 247.5t172.5 90.5z" />
<glyph unicode="&#x2000;" horiz-adv-x="973" />
<glyph unicode="&#x2001;" horiz-adv-x="1946" />
<glyph unicode="&#x2002;" horiz-adv-x="973" />
<glyph unicode="&#x2003;" horiz-adv-x="1946" />
<glyph unicode="&#x2004;" horiz-adv-x="648" />
<glyph unicode="&#x2005;" horiz-adv-x="486" />
<glyph unicode="&#x2006;" horiz-adv-x="324" />
<glyph unicode="&#x2007;" horiz-adv-x="324" />
<glyph unicode="&#x2008;" horiz-adv-x="243" />
<glyph unicode="&#x2009;" horiz-adv-x="389" />
<glyph unicode="&#x200a;" horiz-adv-x="108" />
<glyph unicode="&#x2010;" horiz-adv-x="1099" d="M90 698h920v-340h-920v340z" />
<glyph unicode="&#x2011;" horiz-adv-x="1099" d="M90 698h920v-340h-920v340z" />
<glyph unicode="&#x2012;" horiz-adv-x="1099" d="M90 698h920v-340h-920v340z" />
<glyph unicode="&#x2013;" horiz-adv-x="1163" d="M90 690h983v-264h-983v264z" />
<glyph unicode="&#x2014;" horiz-adv-x="2162" d="M90 690h1983v-264h-1983v264z" />
<glyph unicode="&#x2018;" horiz-adv-x="792" d="M639 803h-506l240 637h350z" />
<glyph unicode="&#x2019;" horiz-adv-x="792" d="M154 1440h503l-237 -637h-350z" />
<glyph unicode="&#x201a;" horiz-adv-x="792" d="M154 420h503l-237 -637h-350z" />
<glyph unicode="&#x201c;" horiz-adv-x="1425" d="M639 803h-506l240 637h350zM1272 803h-506l240 637h350z" />
<glyph unicode="&#x201d;" horiz-adv-x="1425" d="M154 1440h503l-237 -637h-350zM786 1440h504l-237 -637h-351z" />
<glyph unicode="&#x201e;" horiz-adv-x="1425" d="M154 420h503l-237 -637h-350zM786 420h504l-237 -637h-351z" />
<glyph unicode="&#x2022;" horiz-adv-x="860" d="M432 827q135 0 224 -84t89 -213q0 -127 -89 -209.5t-224 -82.5q-137 0 -227 82.5t-90 209.5q0 129 90 213t227 84z" />
<glyph unicode="&#x2026;" horiz-adv-x="2134" d="M377 545q133 0 219 -80t86 -203q0 -125 -86 -205t-219 -80q-132 0 -217.5 80.5t-85.5 204.5q0 123 85.5 203t217.5 80zM1067 545q133 0 219 -80t86 -203q0 -125 -86 -205t-219 -80q-132 0 -217.5 80.5t-85.5 204.5q0 123 85.5 203t217.5 80zM1757 545q132 0 217.5 -80 t85.5 -203q0 -124 -85.5 -204.5t-217.5 -80.5t-217.5 80.5t-85.5 204.5q0 123 85.5 203t217.5 80z" />
<glyph unicode="&#x202f;" horiz-adv-x="389" />
<glyph unicode="&#x2039;" horiz-adv-x="866" d="M739 901l-256 -379l256 -379h-389l-254 379l254 379h389z" />
<glyph unicode="&#x203a;" horiz-adv-x="866" d="M516 901l254 -379l-254 -379h-389l256 379l-256 379h389z" />
<glyph unicode="&#x205f;" horiz-adv-x="486" />
<glyph unicode="&#x20ac;" horiz-adv-x="1310" d="M1077 946l-59 -211h-959v211h156q70 234 268 375t467 141q139 0 267 -41l-127 -444q-67 31 -140 31q-98 0 -176 -62h303zM780 496q70 -64 170 -64q109 0 195 60v-492q-84 -20 -195 -20q-271 0 -469 141t-266 375h-156v206l953 3l-60 -209h-172z" />
<glyph unicode="&#x2122;" horiz-adv-x="1912" d="M567 1442v-2h199v-242h-199v-555h-278v555h-199v242h199v2h278zM1395 1440h415v-797h-276v399l-82 -399h-262l-80 391v-391h-279v797h420l72 -353z" />
<glyph unicode="&#x25fc;" horiz-adv-x="1034" d="M0 1034h1034v-1034h-1034v1034z" />
<glyph unicode="&#xfb03;" horiz-adv-x="2283" d="M1944 1100q-115 0 -190 67t-75 170t75 170.5t190 67.5q116 0 191 -67.5t75 -170.5t-74.5 -170t-191.5 -67zM2177 1030v-1030h-465v645h-297v-645h-465v645h-133h-164v-645h-465v645h-133v385h133q11 189 166 310.5t389 121.5q53 0 103 -6v-330q-51 21 -92 21 q-57 0 -90 -33t-35 -84h217h104q11 189 166 310.5t389 121.5q55 0 105 -6v-330q-54 21 -94 21q-57 0 -90 -33t-35 -84h786z" />
<glyph unicode="&#xfb04;" horiz-adv-x="2281" d="M1724 1440h465v-1440h-465v645h-309v-645h-465v645h-133h-164v-645h-465v645h-133v385h133q11 189 166 310.5t389 121.5q53 0 103 -6v-330q-51 21 -92 21q-57 0 -90 -33t-35 -84h217h104q11 189 166 310.5t389 121.5q55 0 105 -6v-330q-54 21 -94 21q-57 0 -90 -33 t-35 -84h333v410z" />
</font>
</defs>
</svg>
